<?xml version="1.0" encoding="iso-8859-1"?>
<!-- Generator: Adobe Illustrator 15.1.0, SVG Export Plug-In . SVG Version: 6.00 Build 0)  -->
<!DOCTYPE svg PUBLIC "-//W3C//DTD SVG 1.1//EN" "http://www.w3.org/Graphics/SVG/1.1/DTD/svg11.dtd">
<svg version="1.1" id="Layer_1" xmlns="http://www.w3.org/2000/svg" xmlns:xlink="http://www.w3.org/1999/xlink" x="0px" y="0px"
	 width="612px" height="792px" viewBox="0 0 612 792" style="enable-background:new 0 0 612 792;" xml:space="preserve">
<style type="text/css">
<![CDATA[
]]>
</style>
<circle style="fill:#FFFFFF;stroke:#000000;stroke-miterlimit:10;" cx="339.279" cy="295.43" r="103.226"/>
<line style="fill:none;stroke:#000000;stroke-miterlimit:10;" x1="339.279" y1="295.431" x2="339.279" y2="192.205"/>
<line style="fill:none;stroke:#000000;stroke-miterlimit:10;" x1="339.279" y1="295.431" x2="442.028" y2="305.352"/>
<line style="fill:none;stroke:#000000;stroke-miterlimit:10;" x1="339.279" y1="295.431" x2="235.924" y2="305.107"/>
<text transform="matrix(1 0 0 1 254.4341 248.6558)" style="font-family:'Garamond'; font-size:12;">2.8 cm</text>
<text transform="matrix(1 0 0 1 392.6533 248.6558)" style="font-family:'Garamond'; font-size:12;">3.1 cm</text>
<text transform="matrix(1 0 0 1 342.5996 289.4263)" style="font-family:'Garamond'; font-size:12;">100&#xBA;</text>
<text transform="matrix(1 0 0 1 316.1074 289.4263)" style="font-family:'Garamond'; font-size:12;">100&#xBA;</text>
<text transform="matrix(1 0 0 1 226.29 310.5469)" style="font-family:'Garamond-Italic'; font-size:12;">P</text>
<text transform="matrix(1 0 0 1 335.2656 185.771)" style="font-family:'Garamond-Italic'; font-size:12;">Q</text>
<text transform="matrix(1 0 0 1 445.0391 309.3813)" style="font-family:'Garamond-Italic'; font-size:12;">R</text>
<line style="fill:none;stroke:#000000;stroke-miterlimit:10;" x1="235.924" y1="305.107" x2="339.28" y2="192.205"/>
<line style="fill:none;stroke:#000000;stroke-miterlimit:10;" x1="339.28" y1="192.205" x2="442.028" y2="305.352"/>
</svg>
