<?xml version="1.0" encoding="iso-8859-1"?>
<!-- Generator: Adobe Illustrator 15.1.0, SVG Export Plug-In . SVG Version: 6.00 Build 0)  -->
<!DOCTYPE svg PUBLIC "-//W3C//DTD SVG 1.1//EN" "http://www.w3.org/Graphics/SVG/1.1/DTD/svg11.dtd">
<svg version="1.1" id="Layer_1" xmlns="http://www.w3.org/2000/svg" xmlns:xlink="http://www.w3.org/1999/xlink" x="0px" y="0px"
	 width="252.81px" height="247.191px" viewBox="0 0 252.81 247.191" style="enable-background:new 0 0 252.81 247.191;"
	 xml:space="preserve">
<style type="text/css">
<![CDATA[
]]>
</style>
<text transform="matrix(1 0 0 1 68.5396 17.9775)" style="font-family:'Garamond-Italic'; font-size:12;">A</text>
<text transform="matrix(1 0 0 1 14.6069 76.4043)" style="font-family:'Garamond-Italic'; font-size:12;">B</text>
<text transform="matrix(1 0 0 1 14.6069 164.0449)" style="font-family:'Garamond-Italic'; font-size:12;">C</text>
<text transform="matrix(1 0 0 1 78.6519 230.3369)" style="font-family:'Garamond-Italic'; font-size:12;">D</text>
<text transform="matrix(1 0 0 1 171.9111 230.3369)" style="font-family:'Garamond-Italic'; font-size:12;">E</text>
<text transform="matrix(1 0 0 1 231.4609 164.0449)" style="font-family:'Garamond-Italic'; font-size:12;">F</text>
<text transform="matrix(1 0 0 1 225.834 76.4043)" style="font-family:'Garamond-Italic'; font-size:12;">G</text>
<text transform="matrix(1 0 0 1 171.9102 17.9775)" style="font-family:'Garamond-Italic'; font-size:12;">H</text>
<polygon style="fill:#FFFFFF;stroke:#000000;stroke-miterlimit:10;" points="86.803,219.092 29.214,161.503 29.214,80.061 
	86.803,22.472 168.245,22.472 225.834,80.061 225.834,161.503 168.245,219.092 "/>
<text transform="matrix(1 0 0 1 49.4385 46.0674)" style="font-family:'Garamond'; font-size:12;">2</text>
</svg>
