<?xml version="1.0" encoding="iso-8859-1"?>
<!-- Generator: Adobe Illustrator 15.1.0, SVG Export Plug-In . SVG Version: 6.00 Build 0)  -->
<!DOCTYPE svg PUBLIC "-//W3C//DTD SVG 1.1//EN" "http://www.w3.org/Graphics/SVG/1.1/DTD/svg11.dtd">
<svg version="1.1" id="Layer_1" xmlns="http://www.w3.org/2000/svg" xmlns:xlink="http://www.w3.org/1999/xlink" x="0px" y="0px"
	 width="612px" height="792px" viewBox="0 0 612 792" style="enable-background:new 0 0 612 792;" xml:space="preserve">
<style type="text/css">
<![CDATA[
]]>
</style>
<polygon style="fill:#FFFFFF;stroke:#000000;stroke-miterlimit:10;" points="178.955,343.847 289.905,151.675 400.855,343.847 "/>
<line style="fill:none;stroke:#000000;stroke-miterlimit:10;" x1="217.631" y1="276.858" x2="317.449" y2="343.847"/>
<line style="fill:none;stroke:#000000;stroke-miterlimit:10;" x1="317.449" y1="343.847" x2="332.709" y2="225.814"/>
<line style="fill:none;stroke:#000000;stroke-miterlimit:10;" x1="332.709" y1="225.814" x2="217.631" y2="276.858"/>
<line style="fill:none;stroke:#000000;stroke-miterlimit:10;" x1="239.921" y1="212.708" x2="260.146" y2="225.814"/>
<line style="fill:none;stroke:#000000;stroke-miterlimit:10;" x1="244.5" y1="206.155" x2="264.725" y2="219.261"/>
<line style="fill:none;stroke:#000000;stroke-miterlimit:10;" x1="238.333" y1="333.667" x2="238.333" y2="354.5"/>
<line style="fill:none;stroke:#000000;stroke-miterlimit:10;" x1="246.667" y1="333.667" x2="246.667" y2="354.5"/>
<line style="fill:none;stroke:#000000;stroke-miterlimit:10;" x1="359.334" y1="291.333" x2="376" y2="283.333"/>
<line style="fill:none;stroke:#000000;stroke-miterlimit:10;" x1="362.334" y1="297.667" x2="380" y2="289.333"/>
<text transform="matrix(1 0 0 1 167 348.5)" style="font-family:'Garamond-Italic'; font-size:12;">A</text>
<text transform="matrix(1 0 0 1 207.5 276.8579)" style="font-family:'Garamond-Italic'; font-size:12;">B</text>
<text transform="matrix(1 0 0 1 285 146)" style="font-family:'Garamond-Italic'; font-size:12;">C</text>
<text transform="matrix(1.0572 0 0 1 337 225.8145)" style="font-family:'Garamond-Italic'; font-size:12;">D</text>
<text transform="matrix(1 0 0 1 402.5 348.5)" style="font-family:'Garamond-Italic'; font-size:12;">E</text>
<text transform="matrix(1 0 0 1 313.5 354.5)" style="font-family:'Garamond-Italic'; font-size:12;">F</text>
</svg>
