<?xml version="1.0" encoding="iso-8859-1"?>
<!-- Generator: Adobe Illustrator 15.1.0, SVG Export Plug-In . SVG Version: 6.00 Build 0)  -->
<!DOCTYPE svg PUBLIC "-//W3C//DTD SVG 1.1//EN" "http://www.w3.org/Graphics/SVG/1.1/DTD/svg11.dtd">
<svg version="1.1" id="Layer_1" xmlns="http://www.w3.org/2000/svg" xmlns:xlink="http://www.w3.org/1999/xlink" x="0px" y="0px"
	 width="612px" height="792px" viewBox="0 0 612 792" style="enable-background:new 0 0 612 792;" xml:space="preserve">
<style type="text/css">
<![CDATA[
]]>
</style>
<text transform="matrix(1 0 0 1 289.1099 352.3335)" style="font-family:'Garamond-Italic'; font-size:12;">E</text>
<text transform="matrix(1 0 0 1 91.1675 224.2529)" style="font-family:'Garamond-Italic'; font-size:12;">B</text>
<line style="fill:none;stroke:#000000;stroke-miterlimit:10;" x1="104.495" y1="155.022" x2="104.495" y2="341.835"/>
<polyline style="fill:none;stroke:#000000;stroke-miterlimit:10;" points="104.495,341.835 263.834,341.835 289.11,341.835 "/>
<line style="fill:none;stroke:#000000;stroke-miterlimit:10;" x1="104.495" y1="155.022" x2="222.077" y2="341.835"/>
<line style="fill:none;stroke:#000000;stroke-miterlimit:10;" x1="289.11" y1="341.835" x2="104.495" y2="224.253"/>
<path style="fill:none;stroke:#000000;stroke-miterlimit:10;" d="M104.495,185.791c17.688,17.583,15.448-6.226,15.448-6.226"/>
<path style="fill:none;stroke:#000000;stroke-miterlimit:10;" d="M259.439,341.835c-16.483-17.165,4.221-16.209,4.221-16.209"/>
<line style="fill:none;stroke:#000000;stroke-miterlimit:10;" x1="104.495" y1="325.616" x2="120.034" y2="325.616"/>
<line style="fill:none;stroke:#000000;stroke-miterlimit:10;" x1="120.034" y1="325.616" x2="120.034" y2="341.835"/>
<line style="fill:none;stroke:#000000;stroke-miterlimit:10;" x1="131.897" y1="214.815" x2="146.393" y2="206.857"/>
<line style="fill:none;stroke:#000000;stroke-miterlimit:10;" x1="134.725" y1="220.141" x2="149.922" y2="212.42"/>
<line style="fill:none;stroke:#000000;stroke-miterlimit:10;" x1="225" y1="292.857" x2="216.5" y2="306.357"/>
<line style="fill:none;stroke:#000000;stroke-miterlimit:10;" x1="230.952" y1="295.75" x2="222.077" y2="310.25"/>
<text transform="matrix(1 0 0 1 91.1675 345.3335)" style="font-family:'Garamond-Italic'; font-size:12;">A</text>
<text transform="matrix(1 0 0 1 91.1675 155.022)" style="font-family:'Garamond-Italic'; font-size:12;">C</text>
<text transform="matrix(1 0 0 1 178.5 266.8569)" style="font-family:'Garamond-Italic'; font-size:12;">D</text>
<text transform="matrix(1 0 0 1 216.5 352.3335)" style="font-family:'Garamond-Italic'; font-size:12;">F</text>
</svg>
