<?xml version="1.0" encoding="iso-8859-1"?>
<!-- Generator: Adobe Illustrator 15.1.0, SVG Export Plug-In . SVG Version: 6.00 Build 0)  -->
<!DOCTYPE svg PUBLIC "-//W3C//DTD SVG 1.1//EN" "http://www.w3.org/Graphics/SVG/1.1/DTD/svg11.dtd">
<svg version="1.1" id="Layer_1" xmlns="http://www.w3.org/2000/svg" xmlns:xlink="http://www.w3.org/1999/xlink" x="0px" y="0px"
	 width="612px" height="792px" viewBox="0 0 612 792" style="enable-background:new 0 0 612 792;" xml:space="preserve">
<style type="text/css">
<![CDATA[
]]>
</style>
<line style="fill:none;stroke:#000000;stroke-miterlimit:10;" x1="69.135" y1="430.686" x2="454.528" y2="430.686"/>
<line style="fill:none;stroke:#000000;stroke-miterlimit:10;" x1="69.135" y1="430.686" x2="264.641" y2="285.742"/>
<line style="fill:none;stroke:#000000;stroke-miterlimit:10;" x1="454.528" y1="430.686" x2="264.641" y2="285.742"/>
<line style="fill:none;stroke:#000000;stroke-miterlimit:10;" x1="69.135" y1="430.686" x2="353.191" y2="353.333"/>
<line style="fill:none;stroke:#000000;stroke-miterlimit:10;" x1="454.528" y1="430.686" x2="172.395" y2="354.131"/>
<line style="fill:none;stroke:#000000;stroke-miterlimit:10;" x1="122.295" y1="380.447" x2="136.2" y2="394.126"/>
<line style="fill:none;stroke:#000000;stroke-miterlimit:10;" x1="214.359" y1="312.708" x2="226.438" y2="328.438"/>
<line style="fill:none;stroke:#000000;stroke-miterlimit:10;" x1="297.225" y1="328.438" x2="313.461" y2="312.708"/>
<line style="fill:none;stroke:#000000;stroke-miterlimit:10;" x1="395.334" y1="401.334" x2="410.231" y2="387.541"/>
<text transform="matrix(1 0 0 1 54.3335 435.666)" style="font-family:'Garamond-Italic'; font-size:12;">A</text>
<text transform="matrix(1 0 0 1 261.8315 283.3335)" style="font-family:'Garamond-Italic'; font-size:12;">B</text>
<text transform="matrix(1 0 0 1 456 437.334)" style="font-family:'Garamond-Italic'; font-size:12;">C</text>
<text transform="matrix(1 0 0 1 160 354.1309)" style="font-family:'Garamond-Italic'; font-size:12;">D</text>
<text transform="matrix(1 0 0 1 359.5859 354.1309)" style="font-family:'Garamond-Italic'; font-size:12;">E</text>
<text transform="matrix(1 0 0 1 259 375.667)" style="font-family:'Garamond-Italic'; font-size:12;">F</text>
</svg>
