<?xml version="1.0" encoding="iso-8859-1"?>
<!-- Generator: Adobe Illustrator 15.1.0, SVG Export Plug-In . SVG Version: 6.00 Build 0)  -->
<!DOCTYPE svg PUBLIC "-//W3C//DTD SVG 1.1//EN" "http://www.w3.org/Graphics/SVG/1.1/DTD/svg11.dtd">
<svg version="1.1" id="Layer_1" xmlns="http://www.w3.org/2000/svg" xmlns:xlink="http://www.w3.org/1999/xlink" x="0px" y="0px"
	 width="612px" height="792px" viewBox="0 0 612 792" style="enable-background:new 0 0 612 792;" xml:space="preserve">
<style type="text/css">
<![CDATA[
]]>
</style>
<line style="fill:none;stroke:#000000;stroke-miterlimit:10;" x1="27.562" y1="234.056" x2="202.843" y2="449.786"/>
<line style="fill:none;stroke:#000000;stroke-miterlimit:10;" x1="27.562" y1="234.056" x2="392.73" y2="427.314"/>
<line style="fill:none;stroke:#000000;stroke-miterlimit:10;" x1="202.843" y1="449.786" x2="202.843" y2="200.348"/>
<line style="fill:none;stroke:#000000;stroke-miterlimit:10;" x1="202.843" y1="200.348" x2="392.73" y2="427.314"/>
<text transform="matrix(1 0 0 1 297.7866 308.2134)" style="font-family:'Garamond-Italic'; font-size:12;">15</text>
<text transform="matrix(1 0 0 1 99.4717 349.7866)" style="font-family:'Garamond-Italic'; font-size:12;">15</text>
<text transform="matrix(1 0 0 1 210.146 239.6743)" style="font-family:'Garamond-Italic'; font-size:12;">21&#xBA;</text>
<text transform="matrix(1 0 0 1 185.6401 427.3145)" style="font-family:'Garamond-Italic'; font-size:12;">21&#xBA;</text>
<text transform="matrix(1 0 0 1 202.8428 193.6064)" style="font-family:'Garamond-Italic'; font-size:12;">A</text>
<text transform="matrix(1 0 0 1 392.7305 435.1797)" style="font-family:'Garamond-Italic'; font-size:12;">B</text>
<text transform="matrix(1 0 0 1 210.146 325.0674)" style="font-family:'Garamond-Italic'; font-size:12;">C</text>
<text transform="matrix(1 0 0 1 16.3257 234.0562)" style="font-family:'Garamond-Italic'; font-size:12;">D</text>
<text transform="matrix(1 0 0 1 194.978 461.0234)" style="font-family:'Garamond-Italic'; font-size:12;">E</text>
</svg>
