<?xml version="1.0" encoding="iso-8859-1"?>
<!-- Generator: Adobe Illustrator 15.1.0, SVG Export Plug-In . SVG Version: 6.00 Build 0)  -->
<!DOCTYPE svg PUBLIC "-//W3C//DTD SVG 1.1//EN" "http://www.w3.org/Graphics/SVG/1.1/DTD/svg11.dtd">
<svg version="1.1" id="Layer_1" xmlns="http://www.w3.org/2000/svg" xmlns:xlink="http://www.w3.org/1999/xlink" x="0px" y="0px"
	 width="269px" height="89px" viewBox="0 0 269 89" style="enable-background:new 0 0 269 89;" xml:space="preserve">
<style type="text/css">
<![CDATA[
]]>
</style>
<line style="fill:none;stroke:#000000;stroke-miterlimit:10;" x1="-491" y1="467" x2="-271" y2="333"/>
<line style="fill:none;stroke:#000000;stroke-miterlimit:10;" x1="-271" y1="333" x2="-186" y2="507"/>
<g>
	<g>
		<line style="fill:none;stroke:#000000;stroke-miterlimit:10;" x1="-491" y1="467" x2="-488.025" y2="467.39"/>
		
			<line style="fill:none;stroke:#000000;stroke-miterlimit:10;stroke-dasharray:5.6908,5.6908,5.6908,5.6908;" x1="-482.383" y1="468.13" x2="-462.634" y2="470.72"/>
		
			<line style="fill:none;stroke:#000000;stroke-miterlimit:10;stroke-dasharray:5.6908,5.6908,5.6908,5.6908,5.6908,5.6908;" x1="-459.813" y1="471.09" x2="-191.796" y2="506.24"/>
		<line style="fill:none;stroke:#000000;stroke-miterlimit:10;" x1="-188.975" y1="506.61" x2="-186" y2="507"/>
	</g>
</g>
<g>
	<g>
		<line style="fill:none;stroke:#000000;stroke-miterlimit:10;" x1="-271" y1="333" x2="-271.296" y2="335.985"/>
		
			<line style="fill:none;stroke:#000000;stroke-miterlimit:10;stroke-dasharray:5.3638,5.3638,5.3638,5.3638;" x1="-271.827" y1="341.323" x2="-273.682" y2="360.004"/>
		
			<line style="fill:none;stroke:#000000;stroke-miterlimit:10;stroke-dasharray:5.3638,5.3638,5.3638,5.3638,5.3638,5.3638;" x1="-273.947" y1="362.673" x2="-286.407" y2="488.104"/>
		<line style="fill:none;stroke:#000000;stroke-miterlimit:10;" x1="-286.672" y1="490.773" x2="-286.968" y2="493.758"/>
	</g>
</g>
<g>
	<g>
		<line style="fill:none;stroke:#000000;stroke-miterlimit:10;" x1="-285.605" y1="480.039" x2="-279.659" y2="480.837"/>
		
			<line style="fill:none;stroke:#000000;stroke-miterlimit:10;stroke-dasharray:1.0946,0.1824,1.0946,0.1824;" x1="-279.478" y1="480.862" x2="-277.037" y2="481.189"/>
		<line style="fill:none;stroke:#000000;stroke-miterlimit:10;" x1="-276.947" y1="481.202" x2="-271" y2="482"/>
	</g>
</g>
<path style="fill:none;stroke:#000000;stroke-miterlimit:10;" d="M-271,495.853"/>
<path style="fill:none;stroke:#000000;stroke-miterlimit:10;" d="M-271,482"/>
<g>
	<g>
		<line style="fill:none;stroke:#000000;stroke-miterlimit:10;" x1="-271" y1="482" x2="-271.764" y2="487.951"/>
		
			<line style="fill:none;stroke:#000000;stroke-miterlimit:10;stroke-dasharray:0.6939,0.1156,0.6939,0.1156;" x1="-271.778" y1="488.066" x2="-271.977" y2="489.614"/>
		<line style="fill:none;stroke:#000000;stroke-miterlimit:10;" x1="-271.984" y1="489.672" x2="-272.748" y2="495.623"/>
	</g>
</g>
<text transform="matrix(1 0 0 1 -387 394)" style="font-family:'Garamond-Italic'; font-size:13;">c</text>
<text transform="matrix(1 0 0 1 -509 475)" style="font-family:'Garamond-Italic'; font-size:13;">M</text>
<text transform="matrix(1 0 0 1 -296 420)" style="font-family:'Garamond-Italic'; font-size:13;">h</text>
<text transform="matrix(1 0 0 1 -219 420)" style="font-family:'Garamond-Italic'; font-size:13;">m</text>
<text transform="matrix(1 0 0 1 -240 513)" style="font-family:'Garamond-Italic'; font-size:13;">y</text>
<text transform="matrix(1 0 0 1 -397 493.7583)" style="font-family:'Garamond-Italic'; font-size:13;">x</text>
<text transform="matrix(1 0 0 1 -336 524)" style="font-family:'Garamond-Italic'; font-size:13;">a</text>
<g>
	<g>
		<line style="fill:none;stroke:#000000;stroke-miterlimit:10;" x1="-482" y1="476.667" x2="-479.027" y2="477.074"/>
		
			<line style="fill:none;stroke:#000000;stroke-miterlimit:10;stroke-dasharray:6.3672,6.3672,6.3672,6.3672;" x1="-472.719" y1="477.939" x2="-450.641" y2="480.968"/>
		
			<line style="fill:none;stroke:#000000;stroke-miterlimit:10;stroke-dasharray:6.3672,6.3672,6.3672,6.3672,6.3672,6.3672;" x1="-447.487" y1="481.4" x2="-412.792" y2="486.16"/>
		<line style="fill:none;stroke:#000000;stroke-miterlimit:10;" x1="-409.638" y1="486.592" x2="-406.666" y2="487"/>
	</g>
</g>
<g>
	<g>
		<line style="fill:none;stroke:#000000;stroke-miterlimit:10;" x1="-381" y1="490.667" x2="-378.025" y2="491.057"/>
		
			<line style="fill:none;stroke:#000000;stroke-miterlimit:10;stroke-dasharray:6.9119,6.9119,6.9119,6.9119;" x1="-371.172" y1="491.956" x2="-347.186" y2="495.101"/>
		
			<line style="fill:none;stroke:#000000;stroke-miterlimit:10;stroke-dasharray:6.9119,6.9119,6.9119,6.9119,6.9119,6.9119;" x1="-343.76" y1="495.551" x2="-306.067" y2="500.494"/>
		<line style="fill:none;stroke:#000000;stroke-miterlimit:10;" x1="-302.641" y1="500.943" x2="-299.666" y2="501.333"/>
	</g>
</g>
<g>
	<g>
		<line style="fill:none;stroke:#000000;stroke-miterlimit:10;" x1="-280.333" y1="504.667" x2="-277.354" y2="505.03"/>
		
			<line style="fill:none;stroke:#000000;stroke-miterlimit:10;stroke-dasharray:4.8447,4.8447,4.8447,4.8447;" x1="-272.546" y1="505.618" x2="-255.715" y2="507.676"/>
		<line style="fill:none;stroke:#000000;stroke-miterlimit:10;" x1="-253.311" y1="507.97" x2="-250.333" y2="508.333"/>
	</g>
</g>
<g>
	<g>
		<line style="fill:none;stroke:#000000;stroke-miterlimit:10;" x1="-226.999" y1="511.333" x2="-224.022" y2="511.709"/>
		
			<line style="fill:none;stroke:#000000;stroke-miterlimit:10;stroke-dasharray:5.1835,5.1835,5.1835,5.1835;" x1="-218.88" y1="512.359" x2="-200.881" y2="514.633"/>
		<line style="fill:none;stroke:#000000;stroke-miterlimit:10;" x1="-198.31" y1="514.958" x2="-195.333" y2="515.333"/>
	</g>
</g>
<g>
	<g>
		<line style="fill:none;stroke:#000000;stroke-miterlimit:10;" x1="-344.333" y1="520" x2="-347.305" y2="519.595"/>
		
			<line style="fill:none;stroke:#000000;stroke-miterlimit:10;stroke-dasharray:6.175,6.175,6.175,6.175;" x1="-353.423" y1="518.76" x2="-374.838" y2="515.84"/>
		
			<line style="fill:none;stroke:#000000;stroke-miterlimit:10;stroke-dasharray:6.175,6.175,6.175,6.175,6.175,6.175;" x1="-377.897" y1="515.423" x2="-484.968" y2="500.822"/>
		<line style="fill:none;stroke:#000000;stroke-miterlimit:10;" x1="-488.027" y1="500.405" x2="-491" y2="500"/>
	</g>
</g>
<g>
	<g>
		<line style="fill:none;stroke:#000000;stroke-miterlimit:10;" x1="-322.333" y1="523.117" x2="-319.357" y2="523.499"/>
		
			<line style="fill:none;stroke:#000000;stroke-miterlimit:10;stroke-dasharray:6.7438,6.7438,6.7438,6.7438;" x1="-312.668" y1="524.355" x2="-289.256" y2="527.355"/>
		
			<line style="fill:none;stroke:#000000;stroke-miterlimit:10;stroke-dasharray:6.7438,6.7438,6.7438,6.7438,6.7438,6.7438;" x1="-285.911" y1="527.784" x2="-208.986" y2="537.641"/>
		<line style="fill:none;stroke:#000000;stroke-miterlimit:10;" x1="-205.642" y1="538.069" x2="-202.666" y2="538.451"/>
	</g>
</g>
</svg>
