<?xml version="1.0" encoding="iso-8859-1"?>
<!-- Generator: Adobe Illustrator 15.1.0, SVG Export Plug-In . SVG Version: 6.00 Build 0)  -->
<!DOCTYPE svg PUBLIC "-//W3C//DTD SVG 1.1//EN" "http://www.w3.org/Graphics/SVG/1.1/DTD/svg11.dtd">
<svg version="1.1" id="Layer_1" xmlns="http://www.w3.org/2000/svg" xmlns:xlink="http://www.w3.org/1999/xlink" x="0px" y="0px"
	 width="576px" height="288px" viewBox="0 0 576 288" style="enable-background:new 0 0 576 288;" xml:space="preserve">
<style type="text/css">
<![CDATA[
]]>
</style>
<g>
	<polyline style="fill:none;stroke:#000000;stroke-width:0.7719;stroke-linecap:square;stroke-miterlimit:10;" points="
		334.81,144.297 334.81,147.385 334.038,150.473 333.268,153.561 332.497,156.647 331.727,159.735 330.185,162.051 328.644,165.139 
		327.103,167.455 325.562,170.542 323.249,172.858 320.938,174.401 318.625,176.718 316.313,178.262 313.23,179.805 
		310.918,181.349 307.836,182.893 304.753,183.665 301.67,184.437 298.588,184.437 295.505,185.208 292.423,185.208 289.34,184.437 
		286.257,184.437 283.174,183.665 280.092,182.893 277.009,181.349 274.697,179.805 271.614,178.262 269.302,176.718 
		266.99,174.401 264.678,172.858 262.366,170.542 260.825,167.455 259.284,165.139 257.742,162.051 256.201,159.735 255.43,156.647 
		254.66,153.561 253.889,150.473 253.118,147.385 253.118,144.297 253.118,141.21 253.889,138.122 254.66,135.035 255.43,131.947 
		256.201,128.859 257.742,126.543 259.284,123.456 260.825,121.14 262.366,118.053 264.678,115.737 266.99,114.193 269.302,111.877 
		271.614,110.333 274.697,108.79 277.009,107.246 280.092,105.702 283.174,104.93 286.257,104.158 289.34,104.158 292.423,103.386 
		295.505,103.386 298.588,104.158 301.67,104.158 304.753,104.93 307.836,105.702 310.918,107.246 313.23,108.79 316.313,110.333 
		318.625,111.877 320.938,114.193 323.249,115.737 325.562,118.053 327.103,121.14 328.644,123.456 330.185,126.543 
		331.727,128.859 332.497,131.947 333.268,135.035 334.038,138.122 334.81,141.21 334.81,144.297 	"/>
	
		<line style="fill:none;stroke:#000000;stroke-width:0.7719;stroke-linecap:square;stroke-miterlimit:10;" x1="67.387" y1="184.437" x2="506.668" y2="185.98"/>
	<path style="fill-rule:evenodd;clip-rule:evenodd;stroke:#000000;stroke-width:0.25;stroke-linecap:square;stroke-miterlimit:10;" d="
		M292.423,144.297c0-0.857,0.685-1.543,1.541-1.543s1.541,0.687,1.541,1.543c0,0.858-0.685,1.544-1.541,1.544
		S292.423,145.155,292.423,144.297L292.423,144.297z"/>
	<path style="fill-rule:evenodd;clip-rule:evenodd;stroke:#000000;stroke-width:0.25;stroke-linecap:square;stroke-miterlimit:10;" d="
		M256.201,125.771c0-0.857,0.685-1.543,1.541-1.543s1.542,0.686,1.542,1.543c0,0.858-0.685,1.544-1.542,1.544
		S256.201,126.629,256.201,125.771L256.201,125.771z"/>
	<g>
		<defs>
			<polygon id="SVGID_1_" points="235.393,118.053 256.201,118.053 256.201,130.403 235.393,130.403 235.393,118.053 			"/>
		</defs>
		<clipPath id="SVGID_2_">
			<use xlink:href="#SVGID_1_"  style="overflow:visible;"/>
		</clipPath>
		<g style="clip-path:url(#SVGID_2_);">
			<text transform="matrix(0.9984 0 0 1 235.4033 127.3711)"><tspan x="0" y="0" style="font-family:'ArialMT'; font-size:9.2629;">c</tspan><tspan x="5.4" y="0" style="font-family:'ArialMT'; font-size:9.2629;">h</tspan><tspan x="10.033" y="0" style="font-family:'ArialMT'; font-size:9.2629;">i</tspan><tspan x="12.341" y="0" style="font-family:'ArialMT'; font-size:9.2629;">p</tspan></text>
		</g>
	</g>
</g>
</svg>
