<?xml version="1.0" encoding="iso-8859-1"?>
<!-- Generator: Adobe Illustrator 15.1.0, SVG Export Plug-In . SVG Version: 6.00 Build 0)  -->
<!DOCTYPE svg PUBLIC "-//W3C//DTD SVG 1.1//EN" "http://www.w3.org/Graphics/SVG/1.1/DTD/svg11.dtd">
<svg version="1.1" id="Layer_1" xmlns="http://www.w3.org/2000/svg" xmlns:xlink="http://www.w3.org/1999/xlink" x="0px" y="0px"
	 width="576px" height="288px" viewBox="0 0 576 288" style="enable-background:new 0 0 576 288;" xml:space="preserve">
<style type="text/css">
<![CDATA[
]]>
</style>
<g>
	<polyline style="fill:none;stroke:#000000;stroke-width:0.635;stroke-linecap:square;stroke-miterlimit:10;" points="
		116.429,121.83 116.429,124.116 116.429,126.401 115.857,128.687 115.286,130.973 114.714,133.259 113.571,135.545 113,137.26 
		111.857,139.545 110.714,141.26 109,142.975 107.856,144.689 106.142,146.403 104.427,148.118 102.713,149.261 100.427,150.975 
		98.712,152.119 96.426,153.262 94.712,153.832 92.426,154.977 90.14,155.547 87.854,155.547 85.568,156.119 83.282,156.119 
		80.996,156.119 78.71,156.119 76.424,155.547 74.138,155.547 71.852,154.977 69.566,153.832 67.852,153.262 65.565,152.119 
		63.852,150.975 61.565,149.261 59.851,148.118 58.136,146.403 56.422,144.689 55.279,142.975 53.564,141.26 52.421,139.545 
		51.278,137.26 50.707,135.545 49.564,133.259 48.992,130.973 48.421,128.687 47.849,126.401 47.849,124.116 47.849,121.83 
		47.849,119.543 47.849,117.257 48.421,114.971 48.992,112.686 49.564,110.4 50.707,108.114 51.278,106.399 52.421,104.113 
		53.564,102.398 55.279,100.684 56.422,98.97 58.136,97.255 59.851,95.541 61.565,94.398 63.852,92.684 65.565,91.541 
		67.852,90.397 69.566,89.826 71.852,88.683 74.138,88.111 76.424,88.111 78.71,87.54 80.996,87.54 83.282,87.54 85.568,87.54 
		87.854,88.111 90.14,88.111 92.426,88.683 94.712,89.826 96.426,90.397 98.712,91.541 100.427,92.684 102.713,94.398 
		104.427,95.541 106.142,97.255 107.856,98.97 109,100.684 110.714,102.398 111.857,104.113 113,106.399 113.571,108.114 
		114.714,110.4 115.286,112.686 115.857,114.971 116.429,117.257 116.429,119.543 116.429,121.83 	"/>
	<polyline style="fill:none;stroke:#000000;stroke-width:1.905;stroke-linecap:square;stroke-miterlimit:10;" points="
		10.131,180.693 10.702,180.693 10.702,180.121 11.273,180.121 11.845,180.121 11.845,179.551 12.417,179.551 12.988,179.551 
		12.988,178.979 13.56,178.979 14.131,178.979 14.131,178.406 14.703,178.406 15.274,178.406 15.274,177.836 15.846,177.836 
		16.417,177.836 16.417,177.264 16.988,177.264 17.56,177.264 17.56,176.691 18.131,176.691 18.703,176.691 18.703,176.121 
		19.274,176.121 19.846,176.121 19.846,175.549 20.417,175.549 20.989,175.549 20.989,174.979 21.561,174.979 22.132,174.979 
		22.132,174.406 22.704,174.406 23.275,174.406 23.275,173.835 23.847,173.835 24.418,173.835 24.418,173.264 24.99,173.264 
		25.561,173.264 26.133,172.692 26.704,172.692 26.704,172.121 27.276,172.121 27.847,172.121 27.847,171.549 28.418,171.549 
		28.99,171.549 29.561,170.978 30.133,170.978 30.704,170.406 31.276,170.406 31.847,170.406 31.847,169.835 32.419,169.835 
		32.99,169.835 32.99,169.263 33.562,169.263 34.133,169.263 34.133,168.691 34.705,168.691 35.276,168.691 35.276,168.12 
		35.848,168.12 36.419,168.12 36.991,167.549 37.562,167.549 38.134,167.549 38.134,166.978 38.706,166.978 39.277,166.978 
		39.277,166.405 39.849,166.405 40.42,166.405 40.991,165.834 41.562,165.834 42.134,165.834 42.134,165.263 42.706,165.263 
		43.277,165.263 43.849,164.691 44.42,164.691 44.992,164.691 44.992,164.119 45.563,164.119 46.135,164.119 46.707,163.548 
		47.278,163.548 47.849,163.548 47.849,162.977 48.421,162.977 48.992,162.977 49.564,162.977 49.564,162.405 50.135,162.405 
		50.707,162.405 51.278,161.834 51.85,161.834 52.421,161.834 52.993,161.834 52.993,161.262 53.564,161.262 54.136,161.262 
		54.707,161.262 54.707,160.691 55.279,160.691 55.85,160.691 56.422,160.691 56.422,160.119 56.993,160.119 57.564,160.119 
		58.136,160.119 58.708,159.549 59.279,159.549 59.851,159.549 60.422,159.549 60.422,158.977 60.994,158.977 61.565,158.977 
		62.137,158.977 62.708,158.977 63.28,158.404 63.852,158.404 64.423,158.404 64.994,158.404 65.565,158.404 65.565,157.834 
		66.137,157.834 66.708,157.834 67.28,157.834 67.852,157.834 68.423,157.834 68.423,157.262 68.995,157.262 69.566,157.262 
		70.138,157.262 70.709,157.262 71.281,157.262 71.852,157.262 72.424,157.262 72.424,156.689 72.995,156.689 73.567,156.689 
		74.138,156.689 74.71,156.689 75.281,156.689 75.853,156.689 76.424,156.689 76.996,156.689 77.567,156.689 78.138,156.689 
		78.71,156.119 79.281,156.119 79.853,156.119 80.424,156.119 80.996,156.119 81.567,156.119 82.139,156.119 82.71,156.119 
		83.282,156.119 83.854,156.119 84.425,156.119 84.997,156.119 85.568,156.119 86.14,156.119 86.711,156.119 87.283,156.119 
		87.854,156.119 88.426,156.119 88.997,156.119 89.568,156.689 90.14,156.689 90.711,156.689 91.283,156.689 91.854,156.689 
		92.426,156.689 92.998,156.689 93.569,156.689 94.141,156.689 94.712,156.689 95.283,157.262 95.855,157.262 96.426,157.262 
		96.998,157.262 97.569,157.262 98.141,157.262 98.712,157.262 99.284,157.834 99.855,157.834 100.427,157.834 100.999,157.834 
		101.57,157.834 102.141,158.404 102.713,158.404 103.284,158.404 103.855,158.404 104.427,158.404 104.427,158.977 
		104.999,158.977 105.57,158.977 106.142,158.977 106.713,158.977 107.285,159.549 107.856,159.549 108.428,159.549 109,159.549 
		109,160.119 109.571,160.119 110.143,160.119 110.714,160.119 111.286,160.691 111.857,160.691 112.429,160.691 113,160.691 
		113,161.262 113.571,161.262 114.143,161.262 114.714,161.262 114.714,161.834 115.286,161.834 115.857,161.834 116.429,161.834 
		116.429,162.405 117,162.405 117.572,162.405 118.143,162.405 118.143,162.977 118.715,162.977 119.286,162.977 119.858,163.548 
		120.429,163.548 121.001,163.548 121.001,164.119 121.572,164.119 122.144,164.119 122.715,164.119 122.715,164.691 
		123.287,164.691 123.858,164.691 124.43,165.263 125.001,165.263 125.573,165.834 126.144,165.834 126.715,165.834 
		127.287,166.405 127.858,166.405 128.43,166.978 129.001,166.978 129.573,166.978 129.573,167.549 130.145,167.549 
		130.716,167.549 130.716,168.12 131.288,168.12 131.859,168.12 131.859,168.691 132.431,168.691 133.002,168.691 133.574,169.263 
		134.145,169.263 134.717,169.263 134.717,169.835 135.288,169.835 135.86,169.835 135.86,170.406 136.431,170.406 137.003,170.406 
		137.003,170.978 137.574,170.978 138.146,170.978 138.146,171.549 138.717,171.549 139.289,171.549 139.289,172.121 
		139.86,172.121 140.432,172.121 141.003,172.692 141.574,172.692 142.146,173.264 142.717,173.264 143.289,173.835 143.86,173.835 
		144.432,174.406 145.003,174.406 145.575,174.979 146.146,174.979 146.718,175.549 147.29,175.549 147.861,176.121 
		148.433,176.121 149.004,176.691 149.576,176.691 150.147,177.264 150.718,177.264 151.29,177.836 151.861,177.836 
		152.433,178.406 153.004,178.406 153.576,178.979 154.147,178.979 154.719,179.551 155.291,179.551 155.862,180.121 
		156.434,180.121 157.005,180.693 157.577,180.693 158.148,180.693 158.148,181.264 158.72,181.264 159.291,181.836 
		159.862,181.836 160.434,182.408 161.005,182.408 161.577,182.979 162.148,182.979 162.72,182.979 162.72,183.551 163.291,183.551 
		163.863,183.551 163.863,184.121 164.434,184.121 165.006,184.121 165.006,184.693 165.577,184.693 166.149,184.693 
		166.149,185.266 166.72,185.266 167.292,185.266 167.292,185.836 167.863,185.836 168.435,185.836 169.006,186.408 
		169.578,186.408 169.578,186.979 170.149,186.979 170.721,186.979 171.292,187.551 171.864,187.551 172.436,187.551 
		172.436,188.122 173.007,188.122 173.579,188.122 173.579,188.693 174.15,188.693 174.721,188.693 175.292,189.265 
		175.864,189.265 176.436,189.265 176.436,189.837 177.007,189.837 177.579,189.837 177.579,190.408 178.15,190.408 
		178.722,190.408 179.293,190.979 179.865,190.979 180.436,190.979 180.436,191.551 181.008,191.551 181.579,191.551 
		182.151,191.551 182.151,192.123 182.722,192.123 183.294,192.123 183.865,192.694 184.437,192.694 185.008,192.694 
		185.58,193.266 186.151,193.266 186.723,193.266 186.723,193.837 187.294,193.837 187.866,193.837 188.437,193.837 
		188.437,194.408 189.008,194.408 189.58,194.408 190.151,194.408 190.723,194.98 191.294,194.98 191.866,194.98 192.438,195.552 
		193.009,195.552 193.581,195.552 194.152,195.552 194.152,196.123 194.724,196.123 195.295,196.123 195.867,196.123 
		196.438,196.123 196.438,196.694 197.01,196.694 197.582,196.694 198.153,196.694 198.724,196.694 198.724,197.267 
		199.295,197.267 199.867,197.267 200.438,197.267 	"/>
	<polyline style="fill:none;stroke:#000000;stroke-width:1.905;stroke-linecap:square;stroke-miterlimit:10;" points="
		200.438,197.267 201.01,197.267 201.582,197.838 202.153,197.838 202.725,197.838 203.296,197.838 203.868,197.838 
		204.439,197.838 204.439,198.409 205.011,198.409 205.582,198.409 206.154,198.409 206.725,198.409 207.296,198.409 
		207.868,198.409 208.439,198.98 209.011,198.98 209.583,198.98 210.154,198.98 210.726,198.98 211.297,198.98 211.868,198.98 
		212.44,198.98 213.011,198.98 213.583,198.98 214.154,198.98 214.154,199.553 214.726,199.553 215.297,199.553 215.869,199.553 
		216.44,199.553 217.012,199.553 217.583,199.553 218.155,199.553 218.727,199.553 219.298,199.553 219.87,199.553 220.441,199.553 
		221.013,199.553 221.584,199.553 222.156,199.553 222.727,199.553 223.298,199.553 223.87,199.553 224.441,199.553 225.013,198.98 
		225.584,198.98 226.156,198.98 226.727,198.98 227.299,198.98 227.87,198.98 228.442,198.98 229.013,198.98 229.585,198.98 
		230.156,198.98 230.728,198.98 230.728,198.409 231.299,198.409 231.871,198.409 232.442,198.409 233.014,198.409 233.585,198.409 
		234.157,198.409 234.729,197.838 235.3,197.838 235.871,197.838 236.442,197.838 237.014,197.838 237.585,197.838 237.585,197.267 
		238.157,197.267 238.729,197.267 239.3,197.267 239.872,197.267 240.443,197.267 240.443,196.694 241.015,196.694 241.586,196.694 
		242.158,196.694 242.729,196.123 243.301,196.123 243.873,196.123 244.444,196.123 245.015,195.552 245.587,195.552 
		246.158,195.552 246.73,195.552 246.73,194.98 247.301,194.98 247.873,194.98 248.444,194.98 249.016,194.408 249.587,194.408 
		250.159,194.408 250.73,193.837 251.302,193.837 251.873,193.837 251.873,193.266 252.445,193.266 253.016,193.266 
		253.588,193.266 254.159,192.694 254.73,192.694 255.302,192.694 255.302,192.123 255.874,192.123 256.445,192.123 
		257.017,192.123 257.017,191.551 257.588,191.551 258.16,191.551 258.16,190.979 258.731,190.979 259.303,190.979 259.874,190.979 
		259.874,190.408 260.445,190.408 261.017,190.408 261.017,189.837 261.588,189.837 262.16,189.837 262.731,189.265 
		263.303,189.265 263.875,189.265 263.875,188.693 264.446,188.693 265.018,188.693 265.018,188.122 265.589,188.122 
		266.161,188.122 266.732,187.551 267.304,187.551 267.875,187.551 267.875,186.979 268.447,186.979 269.018,186.979 
		269.018,186.408 269.59,186.408 270.161,186.408 270.161,185.836 270.733,185.836 271.304,185.836 271.875,185.266 
		272.447,185.266 273.018,184.693 273.59,184.693 274.161,184.693 274.161,184.121 274.733,184.121 275.304,183.551 
		275.876,183.551 276.447,183.551 276.447,182.979 277.019,182.979 277.59,182.979 277.59,182.408 278.162,182.408 278.733,182.408 
		278.733,181.836 279.305,181.836 279.876,181.836 279.876,181.264 280.448,181.264 281.02,181.264 281.02,180.693 281.591,180.693 
		282.163,180.693 282.163,180.121 282.734,180.121 283.306,180.121 283.306,179.551 283.877,179.551 284.448,179.551 
		284.448,178.979 285.02,178.979 285.591,178.979 285.591,178.406 286.163,178.406 286.734,178.406 286.734,177.836 
		287.306,177.836 287.877,177.836 287.877,177.264 288.449,177.264 289.021,177.264 289.021,176.691 289.592,176.691 
		290.163,176.691 290.163,176.121 290.734,176.121 291.306,176.121 291.306,175.549 291.877,175.549 292.45,175.549 292.45,174.979 
		293.021,174.979 293.593,174.979 293.593,174.406 294.164,174.406 294.735,174.406 294.735,173.835 295.307,173.835 
		295.878,173.835 295.878,173.264 296.449,173.264 297.021,173.264 297.021,172.692 297.594,172.692 298.164,172.692 
		298.164,172.121 298.736,172.121 299.307,172.121 299.879,171.549 300.449,171.549 300.449,170.978 301.021,170.978 
		301.592,170.978 302.166,170.406 302.736,170.406 303.309,169.835 303.879,169.835 304.451,169.835 304.451,169.263 
		305.021,169.263 305.594,169.263 305.594,168.691 306.164,168.691 306.737,168.691 306.737,168.12 307.309,168.12 307.88,168.12 
		308.451,167.549 309.022,167.549 309.594,167.549 309.594,166.978 310.165,166.978 310.736,166.978 310.736,166.405 
		311.308,166.405 311.881,166.405 312.452,165.834 313.023,165.834 313.595,165.834 313.595,165.263 314.166,165.263 
		314.737,165.263 314.737,164.691 315.309,164.691 315.88,164.691 316.453,164.691 316.453,164.119 317.024,164.119 
		317.596,164.119 317.596,163.548 318.167,163.548 318.738,163.548 319.31,163.548 319.31,162.977 319.881,162.977 320.452,162.977 
		321.023,162.405 321.596,162.405 322.168,162.405 322.738,162.405 322.738,161.834 323.311,161.834 323.881,161.834 
		324.453,161.262 325.023,161.262 325.596,161.262 326.168,160.691 326.74,160.691 327.311,160.691 327.883,160.691 
		327.883,160.119 328.453,160.119 329.025,160.119 329.596,160.119 330.168,159.549 330.738,159.549 331.312,159.549 
		331.883,159.549 332.454,158.977 333.025,158.977 333.597,158.977 334.168,158.977 334.168,158.404 334.739,158.404 
		335.311,158.404 335.884,158.404 336.455,158.404 337.026,158.404 337.026,157.834 337.598,157.834 338.169,157.834 
		338.74,157.834 339.312,157.834 339.883,157.834 340.454,157.262 341.027,157.262 341.599,157.262 342.17,157.262 342.741,157.262 
		343.312,157.262 343.884,157.262 343.884,156.689 344.455,156.689 345.026,156.689 345.6,156.689 346.17,156.689 346.742,156.689 
		347.312,156.689 347.885,156.689 348.455,156.689 349.027,156.689 349.598,156.689 350.17,156.119 350.742,156.119 
		351.314,156.119 351.885,156.119 352.457,156.119 353.027,156.119 353.6,156.119 354.17,156.119 354.742,156.119 355.314,156.119 
		355.886,156.119 356.457,156.119 357.028,156.119 357.6,156.119 358.171,156.119 358.742,156.119 359.313,156.119 359.885,156.119 
		360.458,156.119 360.458,156.689 361.029,156.689 361.601,156.689 362.172,156.689 362.743,156.689 363.314,156.689 
		363.886,156.689 364.457,156.689 365.03,156.689 365.602,156.689 366.173,156.689 366.744,157.262 367.315,157.262 
		367.887,157.262 368.458,157.262 369.029,157.262 369.601,157.262 370.174,157.262 370.174,157.834 370.744,157.834 
		371.316,157.834 371.887,157.834 372.459,157.834 373.029,157.834 373.602,158.404 374.172,158.404 374.744,158.404 
		375.316,158.404 375.889,158.404 375.889,158.977 376.459,158.977 377.031,158.977 377.602,158.977 378.174,158.977 
		378.174,159.549 378.744,159.549 379.316,159.549 379.889,159.549 380.46,159.549 380.46,160.119 381.031,160.119 381.603,160.119 
		382.174,160.119 382.745,160.691 383.316,160.691 383.888,160.691 384.459,161.262 385.032,161.262 385.604,161.262 
		386.175,161.262 386.175,161.834 386.746,161.834 387.317,161.834 387.889,161.834 387.889,162.405 388.46,162.405 
		389.031,162.405 389.604,162.977 390.176,162.977 390.747,162.977 391.318,163.548 391.89,163.548 392.461,163.548 
		392.461,164.119 393.032,164.119 	"/>
	<polyline style="fill:none;stroke:#000000;stroke-width:1.905;stroke-linecap:square;stroke-miterlimit:10;" points="
		393.032,164.119 393.604,164.119 394.175,164.119 394.175,164.691 394.748,164.691 395.318,164.691 395.891,165.263 
		396.461,165.263 397.033,165.263 397.033,165.834 397.604,165.834 398.176,165.834 398.176,166.405 398.746,166.405 
		399.32,166.405 399.891,166.978 400.463,166.978 401.033,166.978 401.033,167.549 401.605,167.549 402.176,167.549 402.176,168.12 
		402.748,168.12 403.318,168.12 403.891,168.691 404.463,168.691 405.034,168.691 405.034,169.263 405.605,169.263 406.177,169.835 
		406.748,169.835 407.319,169.835 407.319,170.406 407.891,170.406 408.462,170.406 408.462,170.978 409.035,170.978 
		409.606,170.978 409.606,171.549 410.178,171.549 410.749,171.549 410.749,172.121 411.32,172.121 411.892,172.121 
		411.892,172.692 412.463,172.692 413.034,172.692 413.605,173.264 414.179,173.264 414.75,173.835 415.321,173.835 
		415.893,174.406 416.464,174.406 416.464,174.979 417.035,174.979 417.606,174.979 418.178,175.549 418.75,175.549 
		419.322,176.121 419.893,176.121 420.465,176.691 421.035,176.691 421.607,177.264 422.178,177.264 422.75,177.836 423.32,177.836 
		423.895,178.406 424.465,178.406 425.037,178.979 425.607,178.979 426.18,179.551 426.75,179.551 427.322,180.121 427.893,180.121 
		428.466,180.693 429.037,180.693 429.608,181.264 430.18,181.264 430.751,181.836 431.322,181.836 431.894,182.408 
		432.465,182.408 433.036,182.979 433.609,182.979 434.181,183.551 434.752,183.551 435.323,183.551 435.323,184.121 
		435.895,184.121 436.466,184.121 436.466,184.693 437.037,184.693 437.608,184.693 437.608,185.266 438.182,185.266 
		438.753,185.266 438.753,185.836 439.324,185.836 439.896,185.836 439.896,186.408 440.467,186.408 441.038,186.408 
		441.609,186.979 442.181,186.979 442.752,186.979 442.752,187.551 443.324,187.551 443.896,187.551 443.896,188.122 
		444.467,188.122 445.039,188.122 445.039,188.693 445.609,188.693 446.182,188.693 446.752,189.265 447.324,189.265 
		447.896,189.837 448.469,189.837 449.039,189.837 449.611,190.408 450.182,190.408 450.754,190.979 451.324,190.979 
		451.896,190.979 451.896,191.551 452.467,191.551 453.04,191.551 453.611,191.551 453.611,192.123 454.183,192.123 
		454.754,192.123 455.325,192.694 455.896,192.694 456.468,192.694 456.468,193.266 457.039,193.266 457.612,193.266 
		458.184,193.266 458.184,193.837 458.755,193.837 459.326,193.837 459.897,193.837 459.897,194.408 460.469,194.408 
		461.04,194.408 461.611,194.408 461.611,194.98 462.183,194.98 462.756,194.98 463.327,194.98 463.898,195.552 464.47,195.552 
		465.041,195.552 465.612,195.552 465.612,196.123 466.184,196.123 466.755,196.123 467.328,196.123 467.898,196.694 
		468.471,196.694 469.041,196.694 469.613,196.694 470.184,196.694 470.184,197.267 470.756,197.267 471.326,197.267 
		471.898,197.267 472.471,197.267 473.043,197.838 473.613,197.838 474.186,197.838 474.756,197.838 475.328,197.838 
		475.898,198.409 476.471,198.409 477.043,198.409 477.614,198.409 478.186,198.409 478.757,198.409 479.328,198.409 
		479.899,198.98 480.471,198.98 481.042,198.98 481.613,198.98 482.187,198.98 482.758,198.98 483.329,198.98 483.9,198.98 
		484.472,198.98 485.043,198.98 485.614,199.553 486.186,199.553 486.757,199.553 487.33,199.553 487.901,199.553 488.473,199.553 
		489.044,199.553 489.615,199.553 490.187,199.553 490.758,199.553 491.329,199.553 491.902,199.553 492.473,199.553 
		493.045,199.553 493.615,199.553 494.188,199.553 494.758,199.553 495.33,199.553 495.9,199.553 496.473,198.98 497.045,198.98 
		497.617,198.98 498.188,198.98 498.76,198.98 499.33,198.98 499.902,198.98 500.473,198.98 501.045,198.98 501.617,198.98 
		502.188,198.98 502.188,198.409 502.76,198.409 503.331,198.409 503.902,198.409 504.474,198.409 505.045,198.409 505.616,198.409 
		506.188,198.409 506.188,197.838 506.761,197.838 507.332,197.838 507.903,197.838 508.475,197.838 509.046,197.838 
		509.046,197.267 509.617,197.267 510.188,197.267 510.76,197.267 511.333,197.267 511.904,196.694 512.476,196.694 
		513.047,196.694 513.618,196.694 514.189,196.694 514.189,196.123 514.761,196.123 515.332,196.123 515.903,196.123 
		516.477,195.552 517.047,195.552 517.619,195.552 518.189,195.552 518.189,194.98 518.762,194.98 519.332,194.98 519.904,194.98 
		519.904,194.408 520.475,194.408 521.049,194.408 521.619,194.408 521.619,193.837 522.191,193.837 522.762,193.837 
		523.334,193.837 523.904,193.266 524.477,193.266 525.047,193.266 525.047,192.694 525.619,192.694 526.191,192.694 
		526.763,192.694 526.763,192.123 527.334,192.123 527.905,192.123 528.477,191.551 529.048,191.551 529.619,191.551 
		529.619,190.979 530.19,190.979 530.764,190.979 531.335,190.408 531.906,190.408 532.478,190.408 532.478,189.837 
		533.049,189.837 533.62,189.837 534.191,189.265 534.763,189.265 535.334,189.265 535.334,188.693 535.907,188.693 
		536.479,188.693 536.479,188.122 537.05,188.122 537.621,188.122 538.192,187.551 538.764,187.551 539.335,187.551 
		539.335,186.979 539.906,186.979 540.479,186.979 540.479,186.408 541.051,186.408 541.621,186.408 541.621,185.836 
		542.193,185.836 542.764,185.836 542.764,185.266 543.336,185.266 543.906,185.266 544.479,184.693 545.049,184.693 
		545.623,184.121 546.193,184.121 546.766,184.121 546.766,183.551 547.336,183.551 547.908,183.551 547.908,182.979 
		548.479,182.979 549.051,182.408 549.621,182.408 550.194,182.408 550.194,181.836 550.766,181.836 551.337,181.836 
		551.337,181.264 551.908,181.264 552.479,181.264 552.479,180.693 553.051,180.693 553.622,180.693 553.622,180.121 
		554.193,180.121 554.765,180.121 554.765,179.551 555.338,179.551 555.909,179.551 555.909,178.979 556.48,178.979 
		557.052,178.979 557.052,178.406 557.623,178.406 558.194,178.406 558.194,177.836 558.766,177.836 559.337,177.836 
		559.337,177.264 559.91,177.264 560.481,177.264 560.481,176.691 561.053,176.691 561.624,176.691 561.624,176.121 
		562.195,176.121 562.767,176.121 562.767,175.549 563.338,175.549 563.909,175.549 563.909,174.979 564.48,174.979 	"/>
	
		<line style="fill:none;stroke:#000000;stroke-width:1.905;stroke-linecap:square;stroke-miterlimit:10;" x1="15.846" y1="180.693" x2="10.131" y2="180.693"/>
	
		<line style="fill:none;stroke:#000000;stroke-width:1.905;stroke-linecap:square;stroke-miterlimit:10;" x1="13.56" y1="176.121" x2="10.131" y2="180.693"/>
	
		<line style="fill:none;stroke:#000000;stroke-width:1.905;stroke-linecap:square;stroke-miterlimit:10;" x1="558.766" y1="174.979" x2="564.48" y2="174.979"/>
	
		<line style="fill:none;stroke:#000000;stroke-width:1.905;stroke-linecap:square;stroke-miterlimit:10;" x1="561.053" y1="179.551" x2="564.48" y2="174.979"/>
	<path style="fill-rule:evenodd;clip-rule:evenodd;stroke:#000000;stroke-width:0.25;stroke-linecap:square;stroke-miterlimit:10;" d="
		M80.996,121.83c0-0.635,0.508-1.143,1.143-1.143c0.635,0,1.143,0.508,1.143,1.143c0,0.635-0.508,1.143-1.143,1.143
		C81.504,122.973,80.996,122.464,80.996,121.83L80.996,121.83z"/>
	<g>
		<defs>
			<polygon id="SVGID_1_" points="80.996,111.543 87.283,111.543 87.283,120.115 80.996,120.115 80.996,111.543 			"/>
		</defs>
		<clipPath id="SVGID_2_">
			<use xlink:href="#SVGID_1_"  style="overflow:visible;"/>
		</clipPath>
		<g style="clip-path:url(#SVGID_2_);">
			<text transform="matrix(1 0 0 1 80.998 118.4365)" style="font-family:'ArialMT'; font-size:6.8579;">P</text>
		</g>
	</g>
</g>
</svg>
