<?xml version="1.0" encoding="iso-8859-1"?>
<!-- Generator: Adobe Illustrator 15.1.0, SVG Export Plug-In . SVG Version: 6.00 Build 0)  -->
<!DOCTYPE svg PUBLIC "-//W3C//DTD SVG 1.1//EN" "http://www.w3.org/Graphics/SVG/1.1/DTD/svg11.dtd">
<svg version="1.1" id="Layer_1" xmlns="http://www.w3.org/2000/svg" xmlns:xlink="http://www.w3.org/1999/xlink" x="0px" y="0px"
	 width="216px" height="144px" viewBox="0 0 216 144" style="enable-background:new 0 0 216 144;" xml:space="preserve">
<g>
	
		<line style="fill:none;stroke:#0E0E0E;stroke-width:0.75;stroke-linecap:square;stroke-miterlimit:10;" x1="57.75" y1="37.375" x2="57.75" y2="88.373"/>
	
		<line style="fill:none;stroke:#0E0E0E;stroke-width:0.25;stroke-linecap:square;stroke-miterlimit:10;" x1="57.75" y1="37.375" x2="185.247" y2="88.373"/>
	
		<line style="fill:none;stroke:#0E0E0E;stroke-width:0.75;stroke-linecap:square;stroke-miterlimit:10;" x1="154.497" y1="75.623" x2="154.497" y2="88.373"/>
	
		<line style="fill:none;stroke:#0E0E0E;stroke-width:0.75;stroke-linecap:square;stroke-miterlimit:10;" x1="57.75" y1="88.373" x2="185.247" y2="88.373"/>
	
		<line style="fill:none;stroke:#0E0E0E;stroke-width:0.25;stroke-linecap:square;stroke-miterlimit:10;" x1="142.498" y1="102.622" x2="185.247" y2="102.622"/>
	
		<line style="fill:none;stroke:#0E0E0E;stroke-width:0.25;stroke-linecap:square;stroke-miterlimit:10;" x1="57.75" y1="102.622" x2="114.748" y2="102.622"/>
	<g>
		<defs>
			<polygon id="SVGID_1_" points="30,57.624 58.5,57.624 58.5,71.874 30,71.874 30,57.624 			"/>
		</defs>
		<clipPath id="SVGID_2_">
			<use xlink:href="#SVGID_1_"  style="overflow:visible;"/>
		</clipPath>
		<g style="clip-path:url(#SVGID_2_);">
			<path d="M32.723,68.186v-6.629h-2.476V60.67h5.958v0.887h-2.487v6.629H32.723z"/>
			<path d="M36.687,68.186v-5.445h0.831v0.826c0.212-0.386,0.408-0.641,0.587-0.764c0.179-0.123,0.376-0.184,0.592-0.184
				c0.311,0,0.627,0.099,0.949,0.297l-0.318,0.856c-0.226-0.133-0.451-0.2-0.677-0.2c-0.202,0-0.383,0.061-0.543,0.182
				c-0.161,0.122-0.275,0.29-0.344,0.505c-0.103,0.328-0.154,0.687-0.154,1.077v2.851H36.687z"/>
			<path d="M43.428,66.432l0.954,0.118c-0.15,0.557-0.429,0.989-0.836,1.297s-0.926,0.461-1.559,0.461
				c-0.796,0-1.428-0.245-1.894-0.736c-0.467-0.49-0.7-1.178-0.7-2.063c0-0.916,0.236-1.627,0.708-2.133
				c0.472-0.505,1.083-0.758,1.835-0.758c0.728,0,1.323,0.248,1.784,0.743s0.692,1.193,0.692,2.092c0,0.055-0.002,0.137-0.005,0.246
				h-4.061c0.034,0.598,0.204,1.056,0.508,1.374s0.684,0.477,1.138,0.477c0.338,0,0.627-0.089,0.866-0.267
				S43.288,66.822,43.428,66.432z M40.397,64.94h3.041c-0.041-0.458-0.157-0.802-0.349-1.031c-0.294-0.355-0.675-0.533-1.144-0.533
				c-0.424,0-0.78,0.142-1.069,0.426C40.588,64.086,40.428,64.465,40.397,64.94z"/>
			<path d="M47.934,66.432l0.954,0.118c-0.15,0.557-0.429,0.989-0.836,1.297s-0.926,0.461-1.559,0.461
				c-0.796,0-1.428-0.245-1.894-0.736c-0.467-0.49-0.7-1.178-0.7-2.063c0-0.916,0.236-1.627,0.708-2.133
				c0.472-0.505,1.083-0.758,1.835-0.758c0.728,0,1.323,0.248,1.784,0.743s0.692,1.193,0.692,2.092c0,0.055-0.002,0.137-0.005,0.246
				h-4.061c0.034,0.598,0.204,1.056,0.508,1.374s0.684,0.477,1.138,0.477c0.338,0,0.627-0.089,0.866-0.267
				S47.793,66.822,47.934,66.432z M44.903,64.94h3.041c-0.041-0.458-0.157-0.802-0.349-1.031c-0.294-0.355-0.675-0.533-1.144-0.533
				c-0.424,0-0.78,0.142-1.069,0.426C45.094,64.086,44.934,64.465,44.903,64.94z"/>
		</g>
	</g>
	<g>
		<defs>
			<polygon id="SVGID_3_" points="123.748,95.872 143.248,95.872 143.248,109.372 123.748,109.372 123.748,95.872 			"/>
		</defs>
		<clipPath id="SVGID_4_">
			<use xlink:href="#SVGID_3_"  style="overflow:visible;"/>
		</clipPath>
		<g style="clip-path:url(#SVGID_4_);">
			<path d="M127.096,104.92h-0.791v-5.04c-0.19,0.182-0.439,0.363-0.749,0.545c-0.309,0.182-0.587,0.317-0.833,0.408v-0.765
				c0.442-0.208,0.829-0.46,1.16-0.756s0.565-0.583,0.703-0.861h0.51V104.92z"/>
			<path d="M129.835,101.427c-0.328-0.12-0.571-0.292-0.729-0.515s-0.237-0.489-0.237-0.8c0-0.469,0.168-0.862,0.505-1.182
				s0.785-0.479,1.345-0.479c0.562,0,1.016,0.164,1.358,0.49c0.343,0.327,0.514,0.725,0.514,1.193c0,0.299-0.078,0.559-0.234,0.779
				c-0.157,0.222-0.396,0.393-0.715,0.513c0.396,0.129,0.697,0.337,0.903,0.624c0.207,0.287,0.31,0.63,0.31,1.028
				c0,0.551-0.194,1.014-0.584,1.389s-0.902,0.562-1.538,0.562s-1.148-0.188-1.538-0.564c-0.39-0.376-0.585-0.846-0.585-1.408
				c0-0.419,0.106-0.77,0.319-1.053C129.14,101.722,129.442,101.529,129.835,101.427z M129.422,103.062
				c0,0.226,0.054,0.443,0.16,0.654c0.107,0.211,0.266,0.374,0.477,0.49c0.211,0.115,0.438,0.174,0.682,0.174
				c0.378,0,0.689-0.122,0.936-0.365s0.369-0.552,0.369-0.927c0-0.381-0.126-0.696-0.38-0.945c-0.253-0.249-0.57-0.373-0.951-0.373
				c-0.372,0-0.681,0.123-0.925,0.369C129.544,102.385,129.422,102.692,129.422,103.062z M129.677,100.086
				c0,0.305,0.098,0.554,0.294,0.747s0.451,0.29,0.765,0.29c0.305,0,0.555-0.096,0.75-0.288c0.194-0.191,0.292-0.427,0.292-0.705
				c0-0.29-0.101-0.534-0.301-0.731c-0.201-0.197-0.451-0.297-0.75-0.297c-0.302,0-0.552,0.097-0.751,0.29
				S129.677,99.816,129.677,100.086z"/>
		</g>
	</g>
	<g>
		<defs>
			<polygon id="SVGID_5_" points="162.747,92.123 183.747,92.123 183.747,104.122 162.747,104.122 162.747,92.123 			"/>
		</defs>
		<clipPath id="SVGID_6_">
			<use xlink:href="#SVGID_5_"  style="overflow:visible;"/>
		</clipPath>
		<g style="clip-path:url(#SVGID_6_);">
			<path d="M165.175,99.662v-1.285h-2.329v-0.604l2.45-3.479h0.538v3.479h0.726v0.604h-0.726v1.285H165.175z M165.175,97.772v-2.421
				l-1.681,2.421H165.175z"/>
			<path d="M167.183,99.662v-0.751h0.751v0.751H167.183z"/>
			<path d="M169.065,98.245l0.659-0.088c0.076,0.373,0.205,0.643,0.387,0.808c0.182,0.164,0.403,0.247,0.665,0.247
				c0.31,0,0.571-0.107,0.785-0.322s0.32-0.481,0.32-0.799c0-0.303-0.099-0.552-0.297-0.749c-0.197-0.196-0.449-0.294-0.754-0.294
				c-0.125,0-0.279,0.024-0.465,0.073l0.073-0.579c0.044,0.005,0.079,0.008,0.105,0.008c0.281,0,0.534-0.073,0.759-0.22
				s0.337-0.373,0.337-0.678c0-0.242-0.082-0.442-0.246-0.601c-0.163-0.159-0.374-0.238-0.633-0.238
				c-0.257,0-0.471,0.081-0.642,0.242s-0.28,0.402-0.329,0.725l-0.659-0.117c0.08-0.441,0.264-0.784,0.549-1.027
				c0.286-0.242,0.642-0.364,1.066-0.364c0.293,0,0.562,0.063,0.809,0.188c0.247,0.126,0.436,0.298,0.566,0.515
				c0.13,0.218,0.195,0.448,0.195,0.692c0,0.231-0.062,0.443-0.187,0.634c-0.124,0.19-0.309,0.342-0.553,0.454
				c0.317,0.073,0.563,0.225,0.739,0.455c0.176,0.231,0.264,0.52,0.264,0.866c0,0.469-0.171,0.866-0.513,1.192
				s-0.773,0.488-1.296,0.488c-0.472,0-0.862-0.14-1.174-0.421C169.287,99.056,169.109,98.691,169.065,98.245z"/>
			<path d="M176.277,99.028v0.634h-3.549c-0.005-0.158,0.021-0.312,0.077-0.458c0.091-0.241,0.235-0.479,0.435-0.714
				c0.198-0.234,0.486-0.505,0.862-0.812c0.583-0.479,0.978-0.857,1.183-1.138c0.205-0.279,0.308-0.544,0.308-0.793
				c0-0.261-0.094-0.481-0.28-0.66c-0.187-0.18-0.431-0.27-0.73-0.27c-0.317,0-0.571,0.095-0.762,0.285s-0.287,0.454-0.289,0.791
				l-0.678-0.069c0.046-0.505,0.221-0.891,0.523-1.155s0.709-0.397,1.22-0.397c0.515,0,0.923,0.143,1.223,0.429
				c0.301,0.285,0.451,0.64,0.451,1.062c0,0.215-0.044,0.427-0.132,0.634c-0.088,0.208-0.234,0.426-0.438,0.655
				c-0.204,0.229-0.543,0.545-1.017,0.945c-0.396,0.332-0.649,0.557-0.762,0.676c-0.112,0.118-0.205,0.237-0.278,0.356H176.277z"/>
		</g>
	</g>
	<g>
		<defs>
			<polygon id="SVGID_7_" points="136.498,76.373 153.747,76.373 153.747,88.373 136.498,88.373 136.498,76.373 			"/>
		</defs>
		<clipPath id="SVGID_8_">
			<use xlink:href="#SVGID_7_"  style="overflow:visible;"/>
		</clipPath>
		<g style="clip-path:url(#SVGID_8_);">
			<path d="M139.295,83.912h-0.659v-4.2c-0.158,0.151-0.366,0.303-0.624,0.454s-0.489,0.265-0.694,0.34v-0.637
				c0.369-0.174,0.691-0.383,0.967-0.63c0.276-0.247,0.472-0.485,0.586-0.718h0.425V83.912z"/>
			<path d="M140.933,83.912v-0.75h0.751v0.75H140.933z"/>
			<path d="M143.826,81.001c-0.273-0.101-0.476-0.243-0.607-0.429s-0.198-0.408-0.198-0.666c0-0.391,0.141-0.719,0.422-0.985
				c0.28-0.267,0.654-0.399,1.12-0.399c0.469,0,0.846,0.137,1.132,0.408c0.285,0.272,0.429,0.604,0.429,0.994
				c0,0.25-0.065,0.467-0.196,0.65c-0.131,0.185-0.329,0.326-0.595,0.427c0.329,0.107,0.58,0.28,0.752,0.521
				c0.173,0.238,0.259,0.524,0.259,0.856c0,0.459-0.163,0.845-0.487,1.157c-0.325,0.312-0.752,0.469-1.282,0.469
				c-0.529,0-0.957-0.157-1.281-0.471c-0.325-0.314-0.487-0.705-0.487-1.174c0-0.35,0.089-0.641,0.266-0.877
				C143.247,81.247,143.499,81.086,143.826,81.001z M143.482,82.363c0,0.188,0.045,0.369,0.134,0.545s0.222,0.312,0.397,0.408
				c0.176,0.098,0.364,0.146,0.567,0.146c0.314,0,0.575-0.102,0.78-0.304c0.205-0.203,0.308-0.461,0.308-0.773
				c0-0.316-0.105-0.58-0.317-0.787c-0.211-0.207-0.476-0.311-0.793-0.311c-0.31,0-0.566,0.102-0.771,0.307
				S143.482,82.056,143.482,82.363z M143.694,79.884c0,0.254,0.082,0.462,0.246,0.622c0.163,0.162,0.376,0.242,0.637,0.242
				c0.254,0,0.462-0.08,0.625-0.24c0.162-0.159,0.243-0.355,0.243-0.588c0-0.241-0.084-0.444-0.251-0.609
				c-0.167-0.164-0.375-0.247-0.624-0.247c-0.252,0-0.461,0.081-0.627,0.241C143.777,79.467,143.694,79.659,143.694,79.884z"/>
		</g>
	</g>
</g>
</svg>
