<?xml version="1.0" encoding="iso-8859-1"?>
<!-- Generator: Adobe Illustrator 15.1.0, SVG Export Plug-In . SVG Version: 6.00 Build 0)  -->
<!DOCTYPE svg PUBLIC "-//W3C//DTD SVG 1.1//EN" "http://www.w3.org/Graphics/SVG/1.1/DTD/svg11.dtd">
<svg version="1.1" id="Layer_1" xmlns="http://www.w3.org/2000/svg" xmlns:xlink="http://www.w3.org/1999/xlink" x="0px" y="0px"
	 width="216px" height="144px" viewBox="0 0 216 144" style="enable-background:new 0 0 216 144;" xml:space="preserve">
<g>
	
		<line style="fill:none;stroke:#C0C0C0;stroke-width:0;stroke-linecap:square;stroke-miterlimit:10;" x1="5.933" y1="0.424" x2="5.933" y2="111.243"/>
	
		<line style="fill:none;stroke:#C0C0C0;stroke-width:0;stroke-linecap:square;stroke-miterlimit:10;" x1="13.984" y1="0.424" x2="13.984" y2="111.243"/>
	
		<line style="fill:none;stroke:#C0C0C0;stroke-width:0;stroke-linecap:square;stroke-miterlimit:10;" x1="22.037" y1="0.424" x2="22.037" y2="111.243"/>
	
		<line style="fill:none;stroke:#C0C0C0;stroke-width:0;stroke-linecap:square;stroke-miterlimit:10;" x1="30.088" y1="0.424" x2="30.088" y2="111.243"/>
	
		<line style="fill:none;stroke:#C0C0C0;stroke-width:0;stroke-linecap:square;stroke-miterlimit:10;" x1="38.14" y1="0.424" x2="38.14" y2="111.243"/>
	
		<line style="fill:none;stroke:#C0C0C0;stroke-width:0;stroke-linecap:square;stroke-miterlimit:10;" x1="45.98" y1="0.424" x2="45.98" y2="111.243"/>
	
		<line style="fill:none;stroke:#C0C0C0;stroke-width:0;stroke-linecap:square;stroke-miterlimit:10;" x1="54.032" y1="0.424" x2="54.032" y2="111.243"/>
	
		<line style="fill:none;stroke:#C0C0C0;stroke-width:0;stroke-linecap:square;stroke-miterlimit:10;" x1="62.084" y1="0.424" x2="62.084" y2="111.243"/>
	
		<line style="fill:none;stroke:#C0C0C0;stroke-width:0;stroke-linecap:square;stroke-miterlimit:10;" x1="70.136" y1="0.424" x2="70.136" y2="111.243"/>
	
		<line style="fill:none;stroke:#C0C0C0;stroke-width:0;stroke-linecap:square;stroke-miterlimit:10;" x1="78.188" y1="0.424" x2="78.188" y2="111.243"/>
	
		<line style="fill:none;stroke:#C0C0C0;stroke-width:0;stroke-linecap:square;stroke-miterlimit:10;" x1="86.027" y1="0.424" x2="86.027" y2="111.243"/>
	
		<line style="fill:none;stroke:#C0C0C0;stroke-width:0;stroke-linecap:square;stroke-miterlimit:10;" x1="94.08" y1="0.424" x2="94.08" y2="111.243"/>
	
		<line style="fill:none;stroke:#C0C0C0;stroke-width:0;stroke-linecap:square;stroke-miterlimit:10;" x1="102.131" y1="0.424" x2="102.131" y2="111.243"/>
	
		<line style="fill:none;stroke:#C0C0C0;stroke-width:0;stroke-linecap:square;stroke-miterlimit:10;" x1="110.183" y1="0.424" x2="110.183" y2="111.243"/>
	
		<line style="fill:none;stroke:#C0C0C0;stroke-width:0;stroke-linecap:square;stroke-miterlimit:10;" x1="118.235" y1="0.424" x2="118.235" y2="111.243"/>
	
		<line style="fill:none;stroke:#C0C0C0;stroke-width:0;stroke-linecap:square;stroke-miterlimit:10;" x1="126.075" y1="0.424" x2="126.075" y2="111.243"/>
	
		<line style="fill:none;stroke:#C0C0C0;stroke-width:0;stroke-linecap:square;stroke-miterlimit:10;" x1="134.127" y1="0.424" x2="134.127" y2="111.243"/>
	
		<line style="fill:none;stroke:#C0C0C0;stroke-width:0;stroke-linecap:square;stroke-miterlimit:10;" x1="142.18" y1="0.424" x2="142.18" y2="111.243"/>
	
		<line style="fill:none;stroke:#C0C0C0;stroke-width:0;stroke-linecap:square;stroke-miterlimit:10;" x1="150.23" y1="0.424" x2="150.23" y2="111.243"/>
	
		<line style="fill:none;stroke:#C0C0C0;stroke-width:0;stroke-linecap:square;stroke-miterlimit:10;" x1="158.282" y1="0.424" x2="158.282" y2="111.243"/>
	
		<line style="fill:none;stroke:#C0C0C0;stroke-width:0;stroke-linecap:square;stroke-miterlimit:10;" x1="166.122" y1="0.424" x2="166.122" y2="111.243"/>
	
		<line style="fill:none;stroke:#C0C0C0;stroke-width:0;stroke-linecap:square;stroke-miterlimit:10;" x1="174.174" y1="0.424" x2="174.174" y2="111.243"/>
	
		<line style="fill:none;stroke:#C0C0C0;stroke-width:0;stroke-linecap:square;stroke-miterlimit:10;" x1="182.226" y1="0.424" x2="182.226" y2="111.243"/>
	
		<line style="fill:none;stroke:#C0C0C0;stroke-width:0;stroke-linecap:square;stroke-miterlimit:10;" x1="190.278" y1="0.424" x2="190.278" y2="111.243"/>
	
		<line style="fill:none;stroke:#C0C0C0;stroke-width:0;stroke-linecap:square;stroke-miterlimit:10;" x1="198.118" y1="0.424" x2="198.118" y2="111.243"/>
	
		<line style="fill:none;stroke:#C0C0C0;stroke-width:0;stroke-linecap:square;stroke-miterlimit:10;" x1="206.17" y1="0.424" x2="206.17" y2="111.243"/>
	
		<line style="fill:none;stroke:#C0C0C0;stroke-width:0;stroke-linecap:square;stroke-miterlimit:10;" x1="0" y1="2.754" x2="212.95" y2="2.754"/>
	
		<line style="fill:none;stroke:#C0C0C0;stroke-width:0;stroke-linecap:square;stroke-miterlimit:10;" x1="0" y1="10.807" x2="212.95" y2="10.807"/>
	
		<line style="fill:none;stroke:#C0C0C0;stroke-width:0;stroke-linecap:square;stroke-miterlimit:10;" x1="0" y1="18.858" x2="212.95" y2="18.858"/>
	
		<line style="fill:none;stroke:#C0C0C0;stroke-width:0;stroke-linecap:square;stroke-miterlimit:10;" x1="0" y1="26.911" x2="212.95" y2="26.911"/>
	
		<line style="fill:none;stroke:#C0C0C0;stroke-width:0;stroke-linecap:square;stroke-miterlimit:10;" x1="0" y1="34.962" x2="212.95" y2="34.962"/>
	
		<line style="fill:none;stroke:#C0C0C0;stroke-width:0;stroke-linecap:square;stroke-miterlimit:10;" x1="0" y1="42.802" x2="212.95" y2="42.802"/>
	
		<line style="fill:none;stroke:#C0C0C0;stroke-width:0;stroke-linecap:square;stroke-miterlimit:10;" x1="0" y1="50.854" x2="212.95" y2="50.854"/>
	
		<line style="fill:none;stroke:#C0C0C0;stroke-width:0;stroke-linecap:square;stroke-miterlimit:10;" x1="0" y1="58.906" x2="212.95" y2="58.906"/>
	
		<line style="fill:none;stroke:#C0C0C0;stroke-width:0;stroke-linecap:square;stroke-miterlimit:10;" x1="0" y1="66.958" x2="212.95" y2="66.958"/>
	
		<line style="fill:none;stroke:#C0C0C0;stroke-width:0;stroke-linecap:square;stroke-miterlimit:10;" x1="0" y1="75.01" x2="212.95" y2="75.01"/>
	
		<line style="fill:none;stroke:#C0C0C0;stroke-width:0;stroke-linecap:square;stroke-miterlimit:10;" x1="0" y1="82.85" x2="212.95" y2="82.85"/>
	
		<line style="fill:none;stroke:#C0C0C0;stroke-width:0;stroke-linecap:square;stroke-miterlimit:10;" x1="0" y1="90.901" x2="212.95" y2="90.901"/>
	
		<line style="fill:none;stroke:#C0C0C0;stroke-width:0;stroke-linecap:square;stroke-miterlimit:10;" x1="0" y1="98.953" x2="212.95" y2="98.953"/>
	
		<line style="fill:none;stroke:#C0C0C0;stroke-width:0;stroke-linecap:square;stroke-miterlimit:10;" x1="0" y1="107.005" x2="212.95" y2="107.005"/>
	
		<line style="fill:none;stroke:#0E0E0E;stroke-width:0.2119;stroke-linecap:square;stroke-miterlimit:10;" x1="22.037" y1="111.243" x2="22.037" y2="0.424"/>
	
		<line style="fill:none;stroke:#0E0E0E;stroke-width:0.2119;stroke-linecap:square;stroke-miterlimit:10;" x1="21.189" y1="2.754" x2="23.096" y2="2.754"/>
	<g>
		<defs>
			<polygon id="SVGID_1_" points="18.858,1.483 20.765,1.483 20.765,5.297 18.858,5.297 18.858,1.483 			"/>
		</defs>
		<clipPath id="SVGID_2_">
			<use xlink:href="#SVGID_1_"  style="overflow:visible;"/>
		</clipPath>
		<g style="clip-path:url(#SVGID_2_);">
			<path style="fill:#0E0E0E;" d="M19.359,2.294h-0.004l-0.239,0.129L19.08,2.282l0.301-0.161h0.159v1.378h-0.18V2.294z"/>
			<path style="fill:#0E0E0E;" d="M20.016,3.499V3.384l0.146-0.142c0.352-0.335,0.513-0.513,0.513-0.721
				c0-0.14-0.065-0.27-0.271-0.27c-0.125,0-0.229,0.063-0.292,0.117l-0.06-0.132c0.093-0.078,0.231-0.14,0.388-0.14
				c0.297,0,0.422,0.204,0.422,0.401c0,0.254-0.185,0.46-0.475,0.74L20.279,3.34v0.004h0.617v0.155H20.016z"/>
		</g>
	</g>
	
		<line style="fill:none;stroke:#0E0E0E;stroke-width:0.2119;stroke-linecap:square;stroke-miterlimit:10;" x1="21.189" y1="10.807" x2="23.096" y2="10.807"/>
	
		<line style="fill:none;stroke:#0E0E0E;stroke-width:0.2119;stroke-linecap:square;stroke-miterlimit:10;" x1="21.189" y1="18.858" x2="23.096" y2="18.858"/>
	<g>
		<defs>
			<polygon id="SVGID_3_" points="18.858,17.587 20.765,17.587 20.765,21.401 18.858,21.401 18.858,17.587 			"/>
		</defs>
		<clipPath id="SVGID_4_">
			<use xlink:href="#SVGID_3_"  style="overflow:visible;"/>
		</clipPath>
		<g style="clip-path:url(#SVGID_4_);">
			<path style="fill:#0E0E0E;" d="M19.359,18.4h-0.004l-0.239,0.129l-0.036-0.142l0.301-0.161h0.159v1.378h-0.18V18.4z"/>
			<path style="fill:#0E0E0E;" d="M20.934,18.9c0,0.469-0.176,0.728-0.479,0.728c-0.27,0-0.454-0.252-0.458-0.708
				c0-0.464,0.202-0.717,0.481-0.717C20.767,18.203,20.934,18.461,20.934,18.9z M20.186,18.921c0,0.358,0.11,0.562,0.28,0.562
				c0.189,0,0.28-0.223,0.28-0.575c0-0.339-0.085-0.562-0.28-0.562C20.304,18.347,20.186,18.546,20.186,18.921z"/>
		</g>
	</g>
	
		<line style="fill:none;stroke:#0E0E0E;stroke-width:0.2119;stroke-linecap:square;stroke-miterlimit:10;" x1="21.189" y1="26.911" x2="23.096" y2="26.911"/>
	
		<line style="fill:none;stroke:#0E0E0E;stroke-width:0.2119;stroke-linecap:square;stroke-miterlimit:10;" x1="21.189" y1="34.962" x2="23.096" y2="34.962"/>
	<g>
		<defs>
			<polygon id="SVGID_5_" points="19.706,33.691 20.765,33.691 20.765,37.505 19.706,37.505 19.706,33.691 			"/>
		</defs>
		<clipPath id="SVGID_6_">
			<use xlink:href="#SVGID_5_"  style="overflow:visible;"/>
		</clipPath>
		<g style="clip-path:url(#SVGID_6_);">
			<path style="fill:#0E0E0E;" d="M20.057,34.982c-0.155-0.072-0.221-0.19-0.221-0.31c0-0.218,0.185-0.367,0.428-0.367
				c0.268,0,0.403,0.166,0.403,0.339c0,0.117-0.06,0.244-0.229,0.322v0.006c0.171,0.068,0.278,0.191,0.278,0.356
				c0,0.242-0.206,0.401-0.469,0.401c-0.289,0-0.462-0.17-0.462-0.371c0-0.174,0.104-0.299,0.273-0.372L20.057,34.982z
				 M20.527,35.35c0-0.166-0.117-0.248-0.303-0.301c-0.161,0.047-0.248,0.155-0.248,0.287c-0.006,0.138,0.1,0.261,0.275,0.261
				C20.419,35.596,20.527,35.492,20.527,35.35z M20.014,34.66c-0.002,0.138,0.104,0.212,0.263,0.254
				c0.119-0.04,0.21-0.125,0.21-0.25c0-0.11-0.066-0.225-0.233-0.225C20.099,34.439,20.014,34.542,20.014,34.66z"/>
		</g>
	</g>
	
		<line style="fill:none;stroke:#0E0E0E;stroke-width:0.2119;stroke-linecap:square;stroke-miterlimit:10;" x1="21.189" y1="42.802" x2="23.096" y2="42.802"/>
	
		<line style="fill:none;stroke:#0E0E0E;stroke-width:0.2119;stroke-linecap:square;stroke-miterlimit:10;" x1="21.189" y1="50.854" x2="23.096" y2="50.854"/>
	<g>
		<defs>
			<polygon id="SVGID_7_" points="19.706,49.583 20.765,49.583 20.765,53.397 19.706,53.397 19.706,49.583 			"/>
		</defs>
		<clipPath id="SVGID_8_">
			<use xlink:href="#SVGID_7_"  style="overflow:visible;"/>
		</clipPath>
		<g style="clip-path:url(#SVGID_8_);">
			<path style="fill:#0E0E0E;" d="M20.589,50.35c-0.038-0.002-0.087,0.002-0.14,0.011c-0.294,0.046-0.447,0.259-0.479,0.488h0.004
				c0.066-0.089,0.183-0.161,0.335-0.161c0.244,0,0.416,0.178,0.416,0.445c0,0.254-0.172,0.488-0.46,0.488
				c-0.292,0-0.485-0.229-0.485-0.587c0-0.271,0.095-0.486,0.233-0.622c0.115-0.112,0.268-0.183,0.441-0.204
				c0.055-0.009,0.102-0.011,0.136-0.011V50.35z M20.536,51.145c0-0.197-0.112-0.316-0.284-0.316c-0.112,0-0.218,0.068-0.269,0.169
				c-0.011,0.021-0.019,0.047-0.019,0.081c0.002,0.227,0.108,0.396,0.305,0.396C20.428,51.476,20.536,51.342,20.536,51.145z"/>
		</g>
	</g>
	
		<line style="fill:none;stroke:#0E0E0E;stroke-width:0.2119;stroke-linecap:square;stroke-miterlimit:10;" x1="21.189" y1="58.906" x2="23.096" y2="58.906"/>
	
		<line style="fill:none;stroke:#0E0E0E;stroke-width:0.2119;stroke-linecap:square;stroke-miterlimit:10;" x1="21.189" y1="66.958" x2="23.096" y2="66.958"/>
	<g>
		<defs>
			<polygon id="SVGID_9_" points="19.706,65.687 20.765,65.687 20.765,69.5 19.706,69.5 19.706,65.687 			"/>
		</defs>
		<clipPath id="SVGID_10_">
			<use xlink:href="#SVGID_9_"  style="overflow:visible;"/>
		</clipPath>
		<g style="clip-path:url(#SVGID_10_);">
			<path style="fill:#0E0E0E;" d="M20.379,67.705v-0.377h-0.641v-0.121l0.615-0.88h0.201v0.856h0.193v0.145h-0.193v0.377H20.379z
				 M20.379,67.183v-0.46c0-0.072,0.002-0.145,0.006-0.216h-0.006c-0.042,0.081-0.076,0.14-0.115,0.204l-0.337,0.469v0.004H20.379z"
				/>
		</g>
	</g>
	
		<line style="fill:none;stroke:#0E0E0E;stroke-width:0.2119;stroke-linecap:square;stroke-miterlimit:10;" x1="21.189" y1="75.01" x2="23.096" y2="75.01"/>
	
		<line style="fill:none;stroke:#0E0E0E;stroke-width:0.2119;stroke-linecap:square;stroke-miterlimit:10;" x1="21.189" y1="82.85" x2="23.096" y2="82.85"/>
	<g>
		<defs>
			<polygon id="SVGID_11_" points="19.706,81.578 20.765,81.578 20.765,85.392 19.706,85.392 19.706,81.578 			"/>
		</defs>
		<clipPath id="SVGID_12_">
			<use xlink:href="#SVGID_11_"  style="overflow:visible;"/>
		</clipPath>
		<g style="clip-path:url(#SVGID_12_);">
			<path style="fill:#0E0E0E;" d="M19.802,83.594v-0.114l0.146-0.143c0.352-0.335,0.513-0.513,0.513-0.721
				c0-0.141-0.065-0.27-0.271-0.27c-0.125,0-0.229,0.063-0.292,0.116l-0.06-0.131c0.093-0.079,0.231-0.141,0.388-0.141
				c0.297,0,0.422,0.204,0.422,0.401c0,0.255-0.185,0.46-0.475,0.74l-0.108,0.102v0.004h0.617v0.155H19.802z"/>
		</g>
	</g>
	
		<line style="fill:none;stroke:#0E0E0E;stroke-width:0.2119;stroke-linecap:square;stroke-miterlimit:10;" x1="21.189" y1="90.901" x2="23.096" y2="90.901"/>
	
		<line style="fill:none;stroke:#0E0E0E;stroke-width:0.2119;stroke-linecap:square;stroke-miterlimit:10;" x1="21.189" y1="98.953" x2="23.096" y2="98.953"/>
	
		<line style="fill:none;stroke:#0E0E0E;stroke-width:0.2119;stroke-linecap:square;stroke-miterlimit:10;" x1="21.189" y1="107.005" x2="23.096" y2="107.005"/>
	
		<line style="fill:none;stroke:#0E0E0E;stroke-width:0.2119;stroke-linecap:square;stroke-miterlimit:10;" x1="0" y1="98.953" x2="212.95" y2="98.953"/>
	
		<line style="fill:none;stroke:#0E0E0E;stroke-width:0.2119;stroke-linecap:square;stroke-miterlimit:10;" x1="5.933" y1="98.105" x2="5.933" y2="100.013"/>
	
		<line style="fill:none;stroke:#0E0E0E;stroke-width:0.2119;stroke-linecap:square;stroke-miterlimit:10;" x1="13.984" y1="98.105" x2="13.984" y2="100.013"/>
	
		<line style="fill:none;stroke:#0E0E0E;stroke-width:0.2119;stroke-linecap:square;stroke-miterlimit:10;" x1="22.037" y1="98.105" x2="22.037" y2="100.013"/>
	
		<line style="fill:none;stroke:#0E0E0E;stroke-width:0.2119;stroke-linecap:square;stroke-miterlimit:10;" x1="30.088" y1="98.105" x2="30.088" y2="100.013"/>
	
		<line style="fill:none;stroke:#0E0E0E;stroke-width:0.2119;stroke-linecap:square;stroke-miterlimit:10;" x1="38.14" y1="98.105" x2="38.14" y2="100.013"/>
	
		<line style="fill:none;stroke:#0E0E0E;stroke-width:0.2119;stroke-linecap:square;stroke-miterlimit:10;" x1="45.98" y1="98.105" x2="45.98" y2="100.013"/>
	
		<line style="fill:none;stroke:#0E0E0E;stroke-width:0.2119;stroke-linecap:square;stroke-miterlimit:10;" x1="54.032" y1="98.105" x2="54.032" y2="100.013"/>
	
		<line style="fill:none;stroke:#0E0E0E;stroke-width:0.2119;stroke-linecap:square;stroke-miterlimit:10;" x1="62.084" y1="98.105" x2="62.084" y2="100.013"/>
	<g>
		<defs>
			<polygon id="SVGID_13_" points="61.66,100.437 62.72,100.437 62.72,102.979 61.66,102.979 61.66,100.437 			"/>
		</defs>
		<clipPath id="SVGID_14_">
			<use xlink:href="#SVGID_13_"  style="overflow:visible;"/>
		</clipPath>
		<g style="clip-path:url(#SVGID_14_);">
			<path style="fill:#0E0E0E;" d="M62.578,101.234h-0.526l-0.053,0.354c0.032-0.005,0.062-0.007,0.112-0.007
				c0.108,0,0.212,0.021,0.297,0.074c0.108,0.06,0.197,0.181,0.197,0.353c0,0.27-0.214,0.471-0.513,0.471
				c-0.15,0-0.276-0.043-0.344-0.085l0.047-0.143c0.057,0.034,0.169,0.077,0.297,0.077c0.174,0,0.327-0.115,0.325-0.3
				c0-0.178-0.121-0.303-0.395-0.303c-0.081,0-0.142,0.006-0.193,0.013l0.089-0.662h0.66V101.234z"/>
		</g>
	</g>
	
		<line style="fill:none;stroke:#0E0E0E;stroke-width:0.2119;stroke-linecap:square;stroke-miterlimit:10;" x1="70.136" y1="98.105" x2="70.136" y2="100.013"/>
	
		<line style="fill:none;stroke:#0E0E0E;stroke-width:0.2119;stroke-linecap:square;stroke-miterlimit:10;" x1="78.188" y1="98.105" x2="78.188" y2="100.013"/>
	
		<line style="fill:none;stroke:#0E0E0E;stroke-width:0.2119;stroke-linecap:square;stroke-miterlimit:10;" x1="86.027" y1="98.105" x2="86.027" y2="100.013"/>
	
		<line style="fill:none;stroke:#0E0E0E;stroke-width:0.2119;stroke-linecap:square;stroke-miterlimit:10;" x1="94.08" y1="98.105" x2="94.08" y2="100.013"/>
	
		<line style="fill:none;stroke:#0E0E0E;stroke-width:0.2119;stroke-linecap:square;stroke-miterlimit:10;" x1="102.131" y1="98.105" x2="102.131" y2="100.013"/>
	<g>
		<defs>
			<polygon id="SVGID_15_" points="101.284,100.437 103.19,100.437 103.19,102.979 101.284,102.979 101.284,100.437 			"/>
		</defs>
		<clipPath id="SVGID_16_">
			<use xlink:href="#SVGID_15_"  style="overflow:visible;"/>
		</clipPath>
		<g style="clip-path:url(#SVGID_16_);">
			<path style="fill:#0E0E0E;" d="M101.783,101.251h-0.004l-0.239,0.13l-0.036-0.143l0.301-0.161h0.159v1.379h-0.18V101.251z"/>
			<path style="fill:#0E0E0E;" d="M103.358,101.752c0,0.469-0.176,0.728-0.479,0.728c-0.27,0-0.454-0.253-0.458-0.709
				c0-0.464,0.202-0.717,0.481-0.717C103.19,101.054,103.358,101.312,103.358,101.752z M102.609,101.773
				c0,0.358,0.11,0.562,0.28,0.562c0.189,0,0.28-0.223,0.28-0.574c0-0.34-0.085-0.562-0.28-0.562
				C102.728,101.198,102.609,101.397,102.609,101.773z"/>
		</g>
	</g>
	
		<line style="fill:none;stroke:#0E0E0E;stroke-width:0.2119;stroke-linecap:square;stroke-miterlimit:10;" x1="110.183" y1="98.105" x2="110.183" y2="100.013"/>
	
		<line style="fill:none;stroke:#0E0E0E;stroke-width:0.2119;stroke-linecap:square;stroke-miterlimit:10;" x1="118.235" y1="98.105" x2="118.235" y2="100.013"/>
	
		<line style="fill:none;stroke:#0E0E0E;stroke-width:0.2119;stroke-linecap:square;stroke-miterlimit:10;" x1="126.075" y1="98.105" x2="126.075" y2="100.013"/>
	
		<line style="fill:none;stroke:#0E0E0E;stroke-width:0.2119;stroke-linecap:square;stroke-miterlimit:10;" x1="134.127" y1="98.105" x2="134.127" y2="100.013"/>
	
		<line style="fill:none;stroke:#0E0E0E;stroke-width:0.2119;stroke-linecap:square;stroke-miterlimit:10;" x1="142.18" y1="98.105" x2="142.18" y2="100.013"/>
	<g>
		<defs>
			<polygon id="SVGID_17_" points="141.331,100.437 143.238,100.437 143.238,102.979 141.331,102.979 141.331,100.437 			"/>
		</defs>
		<clipPath id="SVGID_18_">
			<use xlink:href="#SVGID_17_"  style="overflow:visible;"/>
		</clipPath>
		<g style="clip-path:url(#SVGID_18_);">
			<path style="fill:#0E0E0E;" d="M141.831,101.251h-0.005l-0.239,0.13l-0.036-0.143l0.301-0.161h0.159v1.379h-0.18V101.251z"/>
			<path style="fill:#0E0E0E;" d="M143.31,101.234h-0.525l-0.054,0.354c0.032-0.005,0.062-0.007,0.113-0.007
				c0.107,0,0.212,0.021,0.297,0.074c0.107,0.06,0.197,0.181,0.197,0.353c0,0.27-0.215,0.471-0.514,0.471
				c-0.15,0-0.275-0.043-0.344-0.085l0.047-0.143c0.058,0.034,0.17,0.077,0.297,0.077c0.174,0,0.327-0.115,0.324-0.3
				c0-0.178-0.12-0.303-0.395-0.303c-0.08,0-0.142,0.006-0.192,0.013l0.089-0.662h0.659V101.234z"/>
		</g>
	</g>
	
		<line style="fill:none;stroke:#0E0E0E;stroke-width:0.2119;stroke-linecap:square;stroke-miterlimit:10;" x1="150.23" y1="98.105" x2="150.23" y2="100.013"/>
	
		<line style="fill:none;stroke:#0E0E0E;stroke-width:0.2119;stroke-linecap:square;stroke-miterlimit:10;" x1="158.282" y1="98.105" x2="158.282" y2="100.013"/>
	
		<line style="fill:none;stroke:#0E0E0E;stroke-width:0.2119;stroke-linecap:square;stroke-miterlimit:10;" x1="166.122" y1="98.105" x2="166.122" y2="100.013"/>
	
		<line style="fill:none;stroke:#0E0E0E;stroke-width:0.2119;stroke-linecap:square;stroke-miterlimit:10;" x1="174.174" y1="98.105" x2="174.174" y2="100.013"/>
	
		<line style="fill:none;stroke:#0E0E0E;stroke-width:0.2119;stroke-linecap:square;stroke-miterlimit:10;" x1="182.226" y1="98.105" x2="182.226" y2="100.013"/>
	<g>
		<defs>
			<polygon id="SVGID_19_" points="181.379,100.437 183.285,100.437 183.285,102.979 181.379,102.979 181.379,100.437 			"/>
		</defs>
		<clipPath id="SVGID_20_">
			<use xlink:href="#SVGID_19_"  style="overflow:visible;"/>
		</clipPath>
		<g style="clip-path:url(#SVGID_20_);">
			<path style="fill:#0E0E0E;" d="M181.473,102.456v-0.114l0.146-0.143c0.352-0.335,0.513-0.513,0.513-0.721
				c0-0.141-0.065-0.27-0.271-0.27c-0.125,0-0.229,0.063-0.293,0.116l-0.059-0.131c0.093-0.079,0.23-0.141,0.388-0.141
				c0.297,0,0.422,0.204,0.422,0.401c0,0.254-0.185,0.46-0.475,0.74l-0.108,0.102v0.004h0.617v0.155H181.473z"/>
			<path style="fill:#0E0E0E;" d="M183.452,101.752c0,0.469-0.176,0.728-0.479,0.728c-0.27,0-0.453-0.253-0.458-0.709
				c0-0.464,0.202-0.717,0.481-0.717C183.285,101.054,183.452,101.312,183.452,101.752z M182.703,101.773
				c0,0.358,0.11,0.562,0.28,0.562c0.188,0,0.28-0.223,0.28-0.574c0-0.34-0.085-0.562-0.28-0.562
				C182.822,101.198,182.703,101.397,182.703,101.773z"/>
		</g>
	</g>
	
		<line style="fill:none;stroke:#0E0E0E;stroke-width:0.2119;stroke-linecap:square;stroke-miterlimit:10;" x1="190.278" y1="98.105" x2="190.278" y2="100.013"/>
	
		<line style="fill:none;stroke:#0E0E0E;stroke-width:0.2119;stroke-linecap:square;stroke-miterlimit:10;" x1="198.118" y1="98.105" x2="198.118" y2="100.013"/>
	
		<line style="fill:none;stroke:#0E0E0E;stroke-width:0.2119;stroke-linecap:square;stroke-miterlimit:10;" x1="206.17" y1="98.105" x2="206.17" y2="100.013"/>
	
		<line style="fill:none;stroke:#0E0E0E;stroke-width:0;stroke-linecap:square;stroke-miterlimit:10;" x1="71.407" y1="0" x2="22.037" y2="98.953"/>
	
		<line style="fill:none;stroke:#0E0E0E;stroke-width:0;stroke-linecap:square;stroke-miterlimit:10;" x1="69.712" y1="1.695" x2="71.407" y2="0.424"/>
	
		<line style="fill:none;stroke:#0E0E0E;stroke-width:0;stroke-linecap:square;stroke-miterlimit:10;" x1="71.407" y1="2.542" x2="71.407" y2="0.424"/>
	
		<line style="fill:none;stroke:#0E0E0E;stroke-width:0;stroke-linecap:square;stroke-miterlimit:10;" x1="87.935" y1="0" x2="22.037" y2="98.953"/>
	
		<line style="fill:none;stroke:#0E0E0E;stroke-width:0;stroke-linecap:square;stroke-miterlimit:10;" x1="86.24" y1="1.271" x2="87.723" y2="0.424"/>
	
		<line style="fill:none;stroke:#0E0E0E;stroke-width:0;stroke-linecap:square;stroke-miterlimit:10;" x1="87.511" y1="2.119" x2="87.723" y2="0.424"/>
	
		<line style="fill:none;stroke:#0E0E0E;stroke-width:0;stroke-linecap:square;stroke-miterlimit:10;" x1="213.374" y1="51.066" x2="22.037" y2="98.953"/>
	
		<line style="fill:none;stroke:#0E0E0E;stroke-width:0;stroke-linecap:square;stroke-miterlimit:10;" x1="211.043" y1="50.854" x2="212.95" y2="51.278"/>
	
		<line style="fill:none;stroke:#0E0E0E;stroke-width:0;stroke-linecap:square;stroke-miterlimit:10;" x1="211.467" y1="52.549" x2="212.95" y2="51.278"/>
	
		<line style="fill:none;stroke:#0E0E0E;stroke-width:0.2119;stroke-linecap:square;stroke-miterlimit:10;" x1="38.14" y1="75.01" x2="30.088" y2="82.85"/>
	
		<line style="fill:none;stroke:#0E0E0E;stroke-width:0.2119;stroke-linecap:square;stroke-miterlimit:10;" x1="38.14" y1="75.01" x2="54.032" y2="90.901"/>
	
		<line style="fill:none;stroke:#0E0E0E;stroke-width:0.2119;stroke-linecap:square;stroke-miterlimit:10;" x1="30.088" y1="82.85" x2="54.032" y2="90.901"/>
	
		<line style="fill:none;stroke:#0E0E0E;stroke-width:0.2119;stroke-linecap:square;stroke-miterlimit:10;" x1="70.136" y1="26.911" x2="45.98" y2="50.854"/>
	
		<line style="fill:none;stroke:#0E0E0E;stroke-width:0.2119;stroke-linecap:square;stroke-miterlimit:10;" x1="70.136" y1="26.911" x2="118.235" y2="75.01"/>
	
		<line style="fill:none;stroke:#0E0E0E;stroke-width:0.2119;stroke-linecap:square;stroke-miterlimit:10;" x1="45.98" y1="50.854" x2="118.235" y2="75.01"/>
	
		<line style="fill:none;stroke:#0E0E0E;stroke-width:0.2119;stroke-linecap:square;stroke-miterlimit:10;" x1="22.037" y1="12.502" x2="22.037" y2="104.039"/>
	
		<line style="fill:none;stroke:#0E0E0E;stroke-width:0.2119;stroke-linecap:square;stroke-miterlimit:10;" x1="16.951" y1="98.953" x2="134.338" y2="98.953"/>
	<g>
		<defs>
			<polygon id="SVGID_21_" points="118.659,75.434 130.101,75.434 130.101,85.816 118.659,85.816 118.659,75.434 			"/>
		</defs>
		<clipPath id="SVGID_22_">
			<use xlink:href="#SVGID_21_"  style="overflow:visible;"/>
		</clipPath>
		<g style="clip-path:url(#SVGID_22_);">
			<path d="M119.286,83.104v-5.46h3.684v0.644h-2.961v1.691h2.562v0.645h-2.562v2.48H119.286z"/>
		</g>
	</g>
	<g>
		<defs>
			<polygon id="SVGID_23_" points="40.259,43.014 52.76,43.014 52.76,53.397 40.259,53.397 40.259,43.014 			"/>
		</defs>
		<clipPath id="SVGID_24_">
			<use xlink:href="#SVGID_23_"  style="overflow:visible;"/>
		</clipPath>
		<g style="clip-path:url(#SVGID_24_);">
			<path d="M40.845,50.688v-5.46h1.881c0.425,0,0.749,0.026,0.972,0.078c0.313,0.072,0.58,0.203,0.801,0.391
				c0.288,0.244,0.503,0.555,0.646,0.933c0.143,0.379,0.214,0.812,0.214,1.298c0,0.415-0.048,0.782-0.145,1.102
				c-0.097,0.321-0.221,0.585-0.373,0.795s-0.317,0.375-0.497,0.496c-0.18,0.12-0.397,0.211-0.652,0.273s-0.547,0.093-0.877,0.093
				H40.845z M41.567,50.043h1.166c0.36,0,0.642-0.033,0.847-0.101c0.205-0.067,0.368-0.161,0.49-0.283
				c0.171-0.171,0.305-0.402,0.4-0.691c0.096-0.29,0.144-0.64,0.144-1.052c0-0.571-0.094-1.01-0.281-1.317s-0.416-0.512-0.684-0.616
				c-0.194-0.075-0.505-0.112-0.935-0.112h-1.147V50.043z"/>
		</g>
	</g>
	<g>
		<defs>
			<polygon id="SVGID_25_" points="65.687,18.646 77.764,18.646 77.764,29.029 65.687,29.029 65.687,18.646 			"/>
		</defs>
		<clipPath id="SVGID_26_">
			<use xlink:href="#SVGID_25_"  style="overflow:visible;"/>
		</clipPath>
		<g style="clip-path:url(#SVGID_26_);">
			<path d="M66.291,26.32v-5.46h3.948v0.645h-3.225v1.672h3.021v0.641h-3.021v1.858h3.352v0.645H66.291z"/>
		</g>
	</g>
	<g>
		<defs>
			<polygon id="SVGID_27_" points="53.185,90.689 67.593,90.689 67.593,101.071 53.185,101.071 53.185,90.689 			"/>
		</defs>
		<clipPath id="SVGID_28_">
			<use xlink:href="#SVGID_27_"  style="overflow:visible;"/>
		</clipPath>
		<g style="clip-path:url(#SVGID_28_);">
			<path d="M57.671,96.448l0.723,0.182c-0.151,0.594-0.424,1.047-0.817,1.358s-0.875,0.467-1.443,0.467
				c-0.588,0-1.067-0.119-1.436-0.359c-0.369-0.239-0.649-0.586-0.842-1.041c-0.192-0.454-0.289-0.942-0.289-1.464
				c0-0.568,0.108-1.064,0.326-1.487c0.217-0.424,0.526-0.745,0.927-0.965s0.842-0.33,1.324-0.33c0.546,0,1.005,0.14,1.378,0.417
				c0.373,0.278,0.632,0.67,0.778,1.174l-0.711,0.167c-0.126-0.396-0.31-0.687-0.551-0.867c-0.241-0.182-0.543-0.272-0.909-0.272
				c-0.419,0-0.771,0.101-1.052,0.302s-0.48,0.472-0.594,0.811c-0.114,0.339-0.171,0.688-0.171,1.049
				c0,0.464,0.067,0.869,0.203,1.216c0.136,0.347,0.346,0.605,0.631,0.776s0.595,0.257,0.928,0.257c0.405,0,0.747-0.116,1.028-0.35
				S57.572,96.907,57.671,96.448z"/>
		</g>
	</g>
	<g>
		<defs>
			<polygon id="SVGID_29_" points="40.471,69.925 52.549,69.925 52.549,80.308 40.471,80.308 40.471,69.925 			"/>
		</defs>
		<clipPath id="SVGID_30_">
			<use xlink:href="#SVGID_29_"  style="overflow:visible;"/>
		</clipPath>
		<g style="clip-path:url(#SVGID_30_);">
			<path d="M41.032,77.599v-5.46h2.049c0.417,0,0.751,0.055,1.003,0.166c0.252,0.11,0.45,0.28,0.592,0.51
				c0.143,0.229,0.214,0.47,0.214,0.721c0,0.233-0.063,0.453-0.19,0.659c-0.127,0.206-0.318,0.372-0.574,0.499
				c0.33,0.097,0.584,0.262,0.762,0.495s0.266,0.51,0.266,0.827c0,0.256-0.054,0.493-0.162,0.713c-0.108,0.22-0.242,0.39-0.4,0.509
				c-0.159,0.119-0.358,0.209-0.598,0.271c-0.24,0.061-0.533,0.091-0.881,0.091H41.032z M41.754,74.433h1.181
				c0.32,0,0.55-0.021,0.689-0.063c0.184-0.055,0.322-0.146,0.416-0.271c0.093-0.127,0.14-0.286,0.14-0.477
				c0-0.182-0.043-0.342-0.13-0.479c-0.087-0.139-0.211-0.232-0.373-0.284c-0.162-0.051-0.438-0.076-0.831-0.076h-1.091V74.433z
				 M41.754,76.954h1.359c0.233,0,0.397-0.009,0.492-0.026c0.167-0.029,0.306-0.079,0.417-0.148
				c0.111-0.069,0.203-0.171,0.275-0.304c0.072-0.133,0.108-0.286,0.108-0.46c0-0.203-0.052-0.381-0.156-0.53
				c-0.104-0.15-0.249-0.256-0.434-0.317c-0.185-0.061-0.451-0.091-0.799-0.091h-1.263V76.954z"/>
		</g>
	</g>
	<g>
		<defs>
			<polygon id="SVGID_31_" points="24.155,74.797 35.81,74.797 35.81,85.181 24.155,85.181 24.155,74.797 			"/>
		</defs>
		<clipPath id="SVGID_32_">
			<use xlink:href="#SVGID_31_"  style="overflow:visible;"/>
		</clipPath>
		<g style="clip-path:url(#SVGID_32_);">
			<path d="M24.143,82.474l2.097-5.46h0.778l2.235,5.46H28.43l-0.637-1.653H25.51l-0.6,1.653H24.143z M25.718,80.231h1.851
				L27,78.719c-0.174-0.459-0.303-0.836-0.388-1.132c-0.069,0.35-0.167,0.698-0.294,1.043L25.718,80.231z"/>
		</g>
	</g>
	
		<path style="fill-rule:evenodd;clip-rule:evenodd;fill:#4D4D4D;stroke:#000000;stroke-width:0;stroke-linecap:square;stroke-miterlimit:10;" d="
		M117.812,75.01c0-0.235,0.188-0.424,0.424-0.424s0.424,0.188,0.424,0.424s-0.188,0.424-0.424,0.424S117.812,75.245,117.812,75.01
		L117.812,75.01z"/>
	
		<path style="fill-rule:evenodd;clip-rule:evenodd;fill:#4D4D4D;stroke:#000000;stroke-width:0;stroke-linecap:square;stroke-miterlimit:10;" d="
		M69.712,26.911c0-0.236,0.188-0.424,0.424-0.424c0.236,0,0.424,0.188,0.424,0.424c0,0.235-0.188,0.423-0.424,0.423
		C69.9,27.334,69.712,27.146,69.712,26.911L69.712,26.911z"/>
	
		<path style="fill-rule:evenodd;clip-rule:evenodd;fill:#4D4D4D;stroke:#000000;stroke-width:0;stroke-linecap:square;stroke-miterlimit:10;" d="
		M45.557,50.854c0-0.235,0.188-0.424,0.424-0.424c0.235,0,0.423,0.188,0.423,0.424c0,0.236-0.188,0.424-0.423,0.424
		C45.745,51.278,45.557,51.09,45.557,50.854L45.557,50.854z"/>
	
		<path style="fill-rule:evenodd;clip-rule:evenodd;fill:#4D4D4D;stroke:#000000;stroke-width:0;stroke-linecap:square;stroke-miterlimit:10;" d="
		M53.608,90.901c0-0.235,0.188-0.423,0.424-0.423c0.235,0,0.424,0.188,0.424,0.423s-0.188,0.424-0.424,0.424
		C53.796,91.325,53.608,91.137,53.608,90.901L53.608,90.901z"/>
	
		<path style="fill-rule:evenodd;clip-rule:evenodd;fill:#4D4D4D;stroke:#000000;stroke-width:0;stroke-linecap:square;stroke-miterlimit:10;" d="
		M37.717,75.01c0-0.235,0.188-0.424,0.423-0.424c0.235,0,0.424,0.188,0.424,0.424s-0.188,0.424-0.424,0.424
		C37.905,75.434,37.717,75.245,37.717,75.01L37.717,75.01z"/>
	
		<path style="fill-rule:evenodd;clip-rule:evenodd;fill:#4D4D4D;stroke:#000000;stroke-width:0;stroke-linecap:square;stroke-miterlimit:10;" d="
		M29.665,82.85c0-0.235,0.188-0.424,0.424-0.424s0.424,0.188,0.424,0.424s-0.189,0.424-0.424,0.424S29.665,83.085,29.665,82.85
		L29.665,82.85z"/>
	
		<path style="fill-rule:evenodd;clip-rule:evenodd;fill:#4D4D4D;stroke:#000000;stroke-width:0;stroke-linecap:square;stroke-miterlimit:10;" d="
		M21.613,98.953c0-0.234,0.188-0.423,0.424-0.423s0.424,0.188,0.424,0.423c0,0.236-0.188,0.424-0.424,0.424
		S21.613,99.189,21.613,98.953L21.613,98.953z"/>
</g>
</svg>
