<?xml version="1.0" encoding="iso-8859-1"?>
<!-- Generator: Adobe Illustrator 15.1.0, SVG Export Plug-In . SVG Version: 6.00 Build 0)  -->
<!DOCTYPE svg PUBLIC "-//W3C//DTD SVG 1.1//EN" "http://www.w3.org/Graphics/SVG/1.1/DTD/svg11.dtd">
<svg version="1.1" id="Layer_1" xmlns="http://www.w3.org/2000/svg" xmlns:xlink="http://www.w3.org/1999/xlink" x="0px" y="0px"
	 width="216px" height="144px" viewBox="0 0 216 144" style="enable-background:new 0 0 216 144;" xml:space="preserve">
<g>
	
		<line style="fill:none;stroke:#0E0E0E;stroke-width:0.75;stroke-linecap:square;stroke-miterlimit:10;" x1="153.748" y1="70.25" x2="153.748" y2="113"/>
	
		<line style="fill:none;stroke:#0E0E0E;stroke-width:0.75;stroke-linecap:square;stroke-miterlimit:10;" x1="139.498" y1="113" x2="167.997" y2="113"/>
	
		<line style="fill:none;stroke:#0E0E0E;stroke-width:0.75;stroke-linecap:square;stroke-miterlimit:10;" x1="40.5" y1="28.25" x2="97.499" y2="28.25"/>
	
		<line style="fill:none;stroke:#0E0E0E;stroke-width:0.75;stroke-linecap:square;stroke-miterlimit:10;" x1="69" y1="28.25" x2="69" y2="113"/>
	<g>
		<defs>
			<polygon id="SVGID_1_" points="151.498,116.75 164.997,116.75 164.997,130.25 151.498,130.25 151.498,116.75 			"/>
		</defs>
		<clipPath id="SVGID_2_">
			<use xlink:href="#SVGID_1_"  style="overflow:visible;"/>
		</clipPath>
		<g style="clip-path:url(#SVGID_2_);">
			<path d="M154.857,125.805h-0.791v-5.04c-0.19,0.182-0.439,0.363-0.749,0.545c-0.309,0.182-0.587,0.317-0.833,0.408v-0.765
				c0.442-0.208,0.829-0.46,1.16-0.756s0.565-0.583,0.703-0.861h0.51V125.805z"/>
		</g>
	</g>
	<g>
		<defs>
			<polygon id="SVGID_3_" points="157.498,84.5 176.997,84.5 176.997,98 157.498,98 157.498,84.5 			"/>
		</defs>
		<clipPath id="SVGID_4_">
			<use xlink:href="#SVGID_3_"  style="overflow:visible;"/>
		</clipPath>
		<g style="clip-path:url(#SVGID_4_);">
			<path d="M160.857,93.555h-0.791v-5.041c-0.19,0.182-0.439,0.363-0.749,0.545c-0.309,0.182-0.587,0.318-0.833,0.409v-0.765
				c0.442-0.208,0.829-0.46,1.16-0.756s0.565-0.583,0.703-0.861h0.51V93.555z"/>
			<path d="M162.823,93.555v-0.9h0.9v0.9H162.823z"/>
			<path d="M163.88,91.867l0.831-0.07c0.062,0.404,0.204,0.709,0.429,0.912c0.224,0.203,0.494,0.305,0.811,0.305
				c0.381,0,0.703-0.143,0.967-0.43s0.396-0.668,0.396-1.143c0-0.451-0.127-0.808-0.38-1.068c-0.254-0.261-0.586-0.391-0.996-0.391
				c-0.255,0-0.484,0.058-0.689,0.174c-0.205,0.115-0.366,0.266-0.483,0.449l-0.743-0.096l0.624-3.31h3.204v0.756h-2.571
				l-0.347,1.731c0.387-0.27,0.792-0.404,1.217-0.404c0.562,0,1.037,0.195,1.424,0.584c0.387,0.391,0.58,0.891,0.58,1.504
				c0,0.582-0.17,1.086-0.51,1.512c-0.413,0.521-0.977,0.781-1.691,0.781c-0.586,0-1.064-0.164-1.435-0.492
				C164.145,92.844,163.933,92.409,163.88,91.867z"/>
		</g>
	</g>
	<g>
		<defs>
			<polygon id="SVGID_5_" points="72.75,65.75 86.249,65.75 86.249,79.25 72.75,79.25 72.75,65.75 			"/>
		</defs>
		<clipPath id="SVGID_6_">
			<use xlink:href="#SVGID_5_"  style="overflow:visible;"/>
		</clipPath>
		<g style="clip-path:url(#SVGID_6_);">
			<path d="M73.133,73.104l0.791-0.105c0.091,0.449,0.245,0.771,0.463,0.969s0.484,0.296,0.798,0.296
				c0.372,0,0.686-0.129,0.942-0.387s0.385-0.576,0.385-0.958c0-0.363-0.119-0.663-0.356-0.898s-0.539-0.354-0.905-0.354
				c-0.149,0-0.335,0.029-0.558,0.088l0.088-0.694c0.053,0.006,0.095,0.009,0.127,0.009c0.337,0,0.64-0.088,0.91-0.264
				s0.404-0.447,0.404-0.813c0-0.29-0.098-0.53-0.294-0.721s-0.45-0.286-0.76-0.286c-0.308,0-0.564,0.097-0.769,0.29
				s-0.337,0.483-0.396,0.87l-0.791-0.141c0.097-0.53,0.316-0.941,0.659-1.232s0.769-0.438,1.279-0.438
				c0.352,0,0.675,0.076,0.971,0.227s0.522,0.356,0.679,0.617s0.235,0.538,0.235,0.831c0,0.278-0.075,0.532-0.224,0.76
				s-0.371,0.41-0.664,0.545c0.381,0.088,0.677,0.271,0.888,0.547s0.316,0.623,0.316,1.039c0,0.563-0.205,1.04-0.615,1.43
				c-0.41,0.392-0.929,0.587-1.556,0.587c-0.565,0-1.035-0.169-1.409-0.505C73.398,74.076,73.186,73.641,73.133,73.104z"/>
		</g>
	</g>
	<g>
		<defs>
			<polygon id="SVGID_7_" points="66,14 79.499,14 79.499,27.5 66,27.5 66,14 			"/>
		</defs>
		<clipPath id="SVGID_8_">
			<use xlink:href="#SVGID_7_"  style="overflow:visible;"/>
		</clipPath>
		<g style="clip-path:url(#SVGID_8_);">
			<path d="M70.536,22.302v0.76h-4.258c-0.006-0.19,0.025-0.374,0.092-0.549c0.108-0.29,0.282-0.576,0.521-0.857
				s0.584-0.606,1.035-0.976c0.7-0.574,1.173-1.029,1.419-1.364s0.369-0.653,0.369-0.952c0-0.313-0.112-0.578-0.336-0.793
				s-0.516-0.323-0.876-0.323c-0.381,0-0.686,0.114-0.914,0.343s-0.344,0.545-0.347,0.949l-0.813-0.083
				c0.056-0.606,0.265-1.068,0.628-1.386s0.851-0.477,1.463-0.477c0.618,0,1.107,0.171,1.468,0.514s0.541,0.768,0.541,1.274
				c0,0.258-0.053,0.511-0.158,0.76s-0.281,0.511-0.525,0.787s-0.651,0.653-1.219,1.134c-0.475,0.398-0.779,0.669-0.914,0.811
				s-0.246,0.285-0.334,0.428H70.536z"/>
		</g>
	</g>
	
		<path style="fill-rule:evenodd;clip-rule:evenodd;fill:#4D4D4D;stroke:#000000;stroke-width:0;stroke-linecap:square;stroke-miterlimit:10;" d="
		M152.248,70.25c0-0.833,0.666-1.5,1.5-1.5c0.833,0,1.5,0.667,1.5,1.5s-0.667,1.5-1.5,1.5
		C152.914,71.75,152.248,71.083,152.248,70.25L152.248,70.25z"/>
	
		<path style="fill-rule:evenodd;clip-rule:evenodd;fill:#4D4D4D;stroke:#000000;stroke-width:0;stroke-linecap:square;stroke-miterlimit:10;" d="
		M166.497,113c0-0.834,0.667-1.5,1.5-1.5c0.834,0,1.5,0.666,1.5,1.5c0,0.832-0.666,1.5-1.5,1.5
		C167.164,114.5,166.497,113.832,166.497,113L166.497,113z"/>
	
		<path style="fill-rule:evenodd;clip-rule:evenodd;fill:#4D4D4D;stroke:#000000;stroke-width:0;stroke-linecap:square;stroke-miterlimit:10;" d="
		M137.998,113c0-0.834,0.667-1.5,1.5-1.5s1.5,0.666,1.5,1.5c0,0.832-0.667,1.5-1.5,1.5S137.998,113.832,137.998,113L137.998,113z"/>
	
		<path style="fill-rule:evenodd;clip-rule:evenodd;fill:#4D4D4D;stroke:#000000;stroke-width:0;stroke-linecap:square;stroke-miterlimit:10;" d="
		M95.999,28.25c0-0.833,0.667-1.5,1.5-1.5c0.833,0,1.5,0.667,1.5,1.5c0,0.833-0.667,1.5-1.5,1.5
		C96.666,29.75,95.999,29.083,95.999,28.25L95.999,28.25z"/>
	
		<path style="fill-rule:evenodd;clip-rule:evenodd;fill:#4D4D4D;stroke:#000000;stroke-width:0;stroke-linecap:square;stroke-miterlimit:10;" d="
		M39,28.25c0-0.833,0.667-1.5,1.5-1.5c0.833,0,1.5,0.667,1.5,1.5c0,0.833-0.667,1.5-1.5,1.5C39.667,29.75,39,29.083,39,28.25
		L39,28.25z"/>
	
		<path style="fill-rule:evenodd;clip-rule:evenodd;fill:#4D4D4D;stroke:#000000;stroke-width:0;stroke-linecap:square;stroke-miterlimit:10;" d="
		M67.5,113c0-0.834,0.667-1.5,1.5-1.5s1.5,0.666,1.5,1.5c0,0.832-0.667,1.5-1.5,1.5S67.5,113.832,67.5,113L67.5,113z"/>
</g>
</svg>
