<?xml version="1.0" encoding="iso-8859-1"?>
<!-- Generator: Adobe Illustrator 15.1.0, SVG Export Plug-In . SVG Version: 6.00 Build 0)  -->
<!DOCTYPE svg PUBLIC "-//W3C//DTD SVG 1.1//EN" "http://www.w3.org/Graphics/SVG/1.1/DTD/svg11.dtd">
<svg version="1.1" id="Layer_1" xmlns="http://www.w3.org/2000/svg" xmlns:xlink="http://www.w3.org/1999/xlink" x="0px" y="0px"
	 width="216px" height="144px" viewBox="0 0 216 144" style="enable-background:new 0 0 216 144;" xml:space="preserve">
<g>
	
		<line style="fill:none;stroke:#C0C0C0;stroke-width:0;stroke-linecap:square;stroke-miterlimit:10;" x1="15.11" y1="27.233" x2="15.11" y2="119.936"/>
	
		<line style="fill:none;stroke:#C0C0C0;stroke-width:0;stroke-linecap:square;stroke-miterlimit:10;" x1="29.825" y1="27.233" x2="29.825" y2="119.936"/>
	
		<line style="fill:none;stroke:#C0C0C0;stroke-width:0;stroke-linecap:square;stroke-miterlimit:10;" x1="44.54" y1="27.233" x2="44.54" y2="119.936"/>
	
		<line style="fill:none;stroke:#C0C0C0;stroke-width:0;stroke-linecap:square;stroke-miterlimit:10;" x1="59.254" y1="27.233" x2="59.254" y2="119.936"/>
	
		<line style="fill:none;stroke:#C0C0C0;stroke-width:0;stroke-linecap:square;stroke-miterlimit:10;" x1="73.601" y1="27.233" x2="73.601" y2="119.936"/>
	
		<line style="fill:none;stroke:#C0C0C0;stroke-width:0;stroke-linecap:square;stroke-miterlimit:10;" x1="88.316" y1="27.233" x2="88.316" y2="119.936"/>
	
		<line style="fill:none;stroke:#C0C0C0;stroke-width:0;stroke-linecap:square;stroke-miterlimit:10;" x1="103.031" y1="27.233" x2="103.031" y2="119.936"/>
	
		<line style="fill:none;stroke:#C0C0C0;stroke-width:0;stroke-linecap:square;stroke-miterlimit:10;" x1="117.746" y1="27.233" x2="117.746" y2="119.936"/>
	
		<line style="fill:none;stroke:#C0C0C0;stroke-width:0;stroke-linecap:square;stroke-miterlimit:10;" x1="132.46" y1="27.233" x2="132.46" y2="119.936"/>
	
		<line style="fill:none;stroke:#C0C0C0;stroke-width:0;stroke-linecap:square;stroke-miterlimit:10;" x1="146.809" y1="27.233" x2="146.809" y2="119.936"/>
	
		<line style="fill:none;stroke:#C0C0C0;stroke-width:0;stroke-linecap:square;stroke-miterlimit:10;" x1="161.521" y1="27.233" x2="161.521" y2="119.936"/>
	
		<line style="fill:none;stroke:#C0C0C0;stroke-width:0;stroke-linecap:square;stroke-miterlimit:10;" x1="176.237" y1="27.233" x2="176.237" y2="119.936"/>
	
		<line style="fill:none;stroke:#C0C0C0;stroke-width:0;stroke-linecap:square;stroke-miterlimit:10;" x1="190.952" y1="27.233" x2="190.952" y2="119.936"/>
	
		<line style="fill:none;stroke:#C0C0C0;stroke-width:0;stroke-linecap:square;stroke-miterlimit:10;" x1="205.667" y1="27.233" x2="205.667" y2="119.936"/>
	
		<line style="fill:none;stroke:#C0C0C0;stroke-width:0;stroke-linecap:square;stroke-miterlimit:10;" x1="2.602" y1="29.073" x2="216.703" y2="29.073"/>
	
		<line style="fill:none;stroke:#C0C0C0;stroke-width:0;stroke-linecap:square;stroke-miterlimit:10;" x1="2.602" y1="43.788" x2="216.703" y2="43.788"/>
	
		<line style="fill:none;stroke:#C0C0C0;stroke-width:0;stroke-linecap:square;stroke-miterlimit:10;" x1="2.602" y1="58.135" x2="216.703" y2="58.135"/>
	
		<line style="fill:none;stroke:#C0C0C0;stroke-width:0;stroke-linecap:square;stroke-miterlimit:10;" x1="2.602" y1="72.85" x2="216.703" y2="72.85"/>
	
		<line style="fill:none;stroke:#C0C0C0;stroke-width:0;stroke-linecap:square;stroke-miterlimit:10;" x1="2.602" y1="87.563" x2="216.703" y2="87.563"/>
	
		<line style="fill:none;stroke:#C0C0C0;stroke-width:0;stroke-linecap:square;stroke-miterlimit:10;" x1="2.602" y1="102.279" x2="216.703" y2="102.279"/>
	
		<line style="fill:none;stroke:#C0C0C0;stroke-width:0;stroke-linecap:square;stroke-miterlimit:10;" x1="2.602" y1="116.993" x2="216.703" y2="116.993"/>
	
		<line style="fill:none;stroke:#0E0E0E;stroke-width:0.3679;stroke-linecap:square;stroke-miterlimit:10;" x1="103.031" y1="119.936" x2="103.031" y2="27.233"/>
	
		<line style="fill:none;stroke:#0E0E0E;stroke-width:0.3679;stroke-linecap:square;stroke-miterlimit:10;" x1="101.56" y1="29.073" x2="104.87" y2="29.073"/>
	<g>
		<defs>
			<polygon id="SVGID_1_" points="98.984,26.866 100.824,26.866 100.824,33.488 98.984,33.488 98.984,26.866 			"/>
		</defs>
		<clipPath id="SVGID_2_">
			<use xlink:href="#SVGID_1_"  style="overflow:visible;"/>
		</clipPath>
		<g style="clip-path:url(#SVGID_2_);">
			<path style="fill:#0E0E0E;" d="M100.148,30.365V29.71h-1.11V29.5l1.066-1.526h0.35v1.485h0.334v0.25h-0.334v0.655H100.148z
				 M100.148,29.46v-0.798c0-0.125,0.004-0.25,0.011-0.375h-0.011c-0.073,0.14-0.132,0.243-0.198,0.353l-0.585,0.812v0.007H100.148z
				"/>
		</g>
	</g>
	
		<line style="fill:none;stroke:#0E0E0E;stroke-width:0.3679;stroke-linecap:square;stroke-miterlimit:10;" x1="101.56" y1="43.788" x2="104.87" y2="43.788"/>
	
		<line style="fill:none;stroke:#0E0E0E;stroke-width:0.3679;stroke-linecap:square;stroke-miterlimit:10;" x1="101.56" y1="58.135" x2="104.87" y2="58.135"/>
	<g>
		<defs>
			<polygon id="SVGID_3_" points="98.984,55.928 100.824,55.928 100.824,62.549 98.984,62.549 98.984,55.928 			"/>
		</defs>
		<clipPath id="SVGID_4_">
			<use xlink:href="#SVGID_3_"  style="overflow:visible;"/>
		</clipPath>
		<g style="clip-path:url(#SVGID_4_);">
			<path style="fill:#0E0E0E;" d="M99.148,59.426v-0.199l0.254-0.246c0.61-0.581,0.89-0.89,0.89-1.25
				c0-0.243-0.114-0.467-0.471-0.467c-0.217,0-0.397,0.11-0.507,0.202l-0.103-0.228c0.162-0.136,0.401-0.243,0.673-0.243
				c0.515,0,0.732,0.353,0.732,0.695c0,0.441-0.32,0.798-0.824,1.284l-0.188,0.176v0.007h1.07v0.269H99.148z"/>
		</g>
	</g>
	
		<line style="fill:none;stroke:#0E0E0E;stroke-width:0.3679;stroke-linecap:square;stroke-miterlimit:10;" x1="101.56" y1="72.85" x2="104.87" y2="72.85"/>
	
		<line style="fill:none;stroke:#0E0E0E;stroke-width:0.3679;stroke-linecap:square;stroke-miterlimit:10;" x1="101.56" y1="87.563" x2="104.87" y2="87.563"/>
	
		<line style="fill:none;stroke:#0E0E0E;stroke-width:0.3679;stroke-linecap:square;stroke-miterlimit:10;" x1="101.56" y1="102.279" x2="104.87" y2="102.279"/>
	
		<line style="fill:none;stroke:#0E0E0E;stroke-width:0.3679;stroke-linecap:square;stroke-miterlimit:10;" x1="101.56" y1="116.993" x2="104.87" y2="116.993"/>
	<g>
		<defs>
			<polygon id="SVGID_5_" points="97.881,114.787 100.824,114.787 100.824,121.408 97.881,121.408 97.881,114.787 			"/>
		</defs>
		<clipPath id="SVGID_6_">
			<use xlink:href="#SVGID_5_"  style="overflow:visible;"/>
		</clipPath>
		<g style="clip-path:url(#SVGID_6_);">
			<path style="fill:#0E0E0E;" d="M98.897,117.177v0.235h-0.908v-0.235H98.897z"/>
			<path style="fill:#0E0E0E;" d="M99.516,118.287v-0.198l0.254-0.247c0.61-0.581,0.89-0.89,0.89-1.25
				c0-0.242-0.114-0.467-0.471-0.467c-0.217,0-0.397,0.11-0.507,0.202l-0.103-0.229c0.162-0.136,0.401-0.242,0.673-0.242
				c0.515,0,0.732,0.353,0.732,0.695c0,0.44-0.32,0.798-0.824,1.283l-0.188,0.177v0.007h1.07v0.269H99.516z"/>
		</g>
	</g>
	
		<line style="fill:none;stroke:#0E0E0E;stroke-width:0.3679;stroke-linecap:square;stroke-miterlimit:10;" x1="2.602" y1="87.563" x2="216.703" y2="87.563"/>
	
		<line style="fill:none;stroke:#0E0E0E;stroke-width:0.3679;stroke-linecap:square;stroke-miterlimit:10;" x1="15.11" y1="86.094" x2="15.11" y2="89.403"/>
	
		<line style="fill:none;stroke:#0E0E0E;stroke-width:0.3679;stroke-linecap:square;stroke-miterlimit:10;" x1="29.825" y1="86.094" x2="29.825" y2="89.403"/>
	<g>
		<defs>
			<polygon id="SVGID_7_" points="28.354,90.14 31.296,90.14 31.296,94.553 28.354,94.553 28.354,90.14 			"/>
		</defs>
		<clipPath id="SVGID_8_">
			<use xlink:href="#SVGID_7_"  style="overflow:visible;"/>
		</clipPath>
		<g style="clip-path:url(#SVGID_8_);">
			<path style="fill:#0E0E0E;" d="M29.37,92.532v0.235h-0.908v-0.235H29.37z"/>
			<path style="fill:#0E0E0E;" d="M31.415,91.524h-0.912l-0.092,0.614c0.055-0.008,0.106-0.011,0.195-0.011
				c0.188,0,0.368,0.036,0.515,0.128c0.188,0.104,0.342,0.312,0.342,0.61c0,0.468-0.372,0.816-0.89,0.816
				c-0.261,0-0.478-0.073-0.596-0.146l0.081-0.247c0.099,0.06,0.294,0.133,0.515,0.133c0.302,0,0.566-0.198,0.563-0.519
				c0-0.309-0.21-0.525-0.684-0.525c-0.14,0-0.247,0.011-0.334,0.021l0.154-1.147h1.144V91.524z"/>
		</g>
	</g>
	
		<line style="fill:none;stroke:#0E0E0E;stroke-width:0.3679;stroke-linecap:square;stroke-miterlimit:10;" x1="44.54" y1="86.094" x2="44.54" y2="89.403"/>
	
		<line style="fill:none;stroke:#0E0E0E;stroke-width:0.3679;stroke-linecap:square;stroke-miterlimit:10;" x1="59.254" y1="86.094" x2="59.254" y2="89.403"/>
	
		<line style="fill:none;stroke:#0E0E0E;stroke-width:0.3679;stroke-linecap:square;stroke-miterlimit:10;" x1="73.601" y1="86.094" x2="73.601" y2="89.403"/>
	
		<line style="fill:none;stroke:#0E0E0E;stroke-width:0.3679;stroke-linecap:square;stroke-miterlimit:10;" x1="88.316" y1="86.094" x2="88.316" y2="89.403"/>
	
		<line style="fill:none;stroke:#0E0E0E;stroke-width:0.3679;stroke-linecap:square;stroke-miterlimit:10;" x1="103.031" y1="86.094" x2="103.031" y2="89.403"/>
	
		<line style="fill:none;stroke:#0E0E0E;stroke-width:0.3679;stroke-linecap:square;stroke-miterlimit:10;" x1="117.746" y1="86.094" x2="117.746" y2="89.403"/>
	
		<line style="fill:none;stroke:#0E0E0E;stroke-width:0.3679;stroke-linecap:square;stroke-miterlimit:10;" x1="132.46" y1="86.094" x2="132.46" y2="89.403"/>
	
		<line style="fill:none;stroke:#0E0E0E;stroke-width:0.3679;stroke-linecap:square;stroke-miterlimit:10;" x1="146.809" y1="86.094" x2="146.809" y2="89.403"/>
	
		<line style="fill:none;stroke:#0E0E0E;stroke-width:0.3679;stroke-linecap:square;stroke-miterlimit:10;" x1="161.521" y1="86.094" x2="161.521" y2="89.403"/>
	
		<line style="fill:none;stroke:#0E0E0E;stroke-width:0.3679;stroke-linecap:square;stroke-miterlimit:10;" x1="176.237" y1="86.094" x2="176.237" y2="89.403"/>
	<g>
		<defs>
			<polygon id="SVGID_9_" points="175.501,90.14 177.34,90.14 177.34,94.553 175.501,94.553 175.501,90.14 			"/>
		</defs>
		<clipPath id="SVGID_10_">
			<use xlink:href="#SVGID_9_"  style="overflow:visible;"/>
		</clipPath>
		<g style="clip-path:url(#SVGID_10_);">
			<path style="fill:#0E0E0E;" d="M177.094,91.524h-0.912l-0.092,0.614c0.055-0.008,0.106-0.011,0.194-0.011
				c0.188,0,0.368,0.036,0.515,0.128c0.188,0.104,0.342,0.312,0.342,0.61c0,0.468-0.371,0.816-0.89,0.816
				c-0.261,0-0.478-0.073-0.596-0.146l0.081-0.247c0.1,0.06,0.294,0.133,0.515,0.133c0.302,0,0.566-0.198,0.562-0.519
				c0-0.309-0.209-0.525-0.684-0.525c-0.14,0-0.246,0.011-0.335,0.021l0.154-1.147h1.145V91.524z"/>
		</g>
	</g>
	
		<line style="fill:none;stroke:#0E0E0E;stroke-width:0.3679;stroke-linecap:square;stroke-miterlimit:10;" x1="190.952" y1="86.094" x2="190.952" y2="89.403"/>
	
		<line style="fill:none;stroke:#0E0E0E;stroke-width:0.3679;stroke-linecap:square;stroke-miterlimit:10;" x1="205.667" y1="86.094" x2="205.667" y2="89.403"/>
	
		<line style="fill:none;stroke:#0E0E0E;stroke-width:0.3679;stroke-linecap:square;stroke-miterlimit:10;" x1="73.601" y1="58.135" x2="103.031" y2="87.563"/>
	
		<line style="fill:none;stroke:#0E0E0E;stroke-width:0.3679;stroke-linecap:square;stroke-miterlimit:10;" x1="73.601" y1="58.135" x2="132.46" y2="72.85"/>
	
		<line style="fill:none;stroke:#0E0E0E;stroke-width:0.3679;stroke-linecap:square;stroke-miterlimit:10;" x1="132.46" y1="72.85" x2="103.031" y2="87.563"/>
	
		<line style="fill:none;stroke:#0E0E0E;stroke-width:0.3679;stroke-linecap:square;stroke-miterlimit:10;" x1="161.521" y1="72.85" x2="103.031" y2="102.279"/>
	
		<line style="fill:none;stroke:#0E0E0E;stroke-width:0.3679;stroke-linecap:square;stroke-miterlimit:10;" x1="44.54" y1="43.788" x2="161.521" y2="72.85"/>
	
		<line style="fill:none;stroke:#0E0E0E;stroke-width:0.3679;stroke-linecap:square;stroke-miterlimit:10;" x1="44.54" y1="43.788" x2="103.031" y2="102.279"/>
	<g>
		<defs>
			<polygon id="SVGID_11_" points="163.361,62.549 176.604,62.549 176.604,74.321 163.361,74.321 163.361,62.549 			"/>
		</defs>
		<clipPath id="SVGID_12_">
			<use xlink:href="#SVGID_11_"  style="overflow:visible;"/>
		</clipPath>
		<g style="clip-path:url(#SVGID_12_);">
			<path d="M164.091,71.429v-6.32h4.264v0.746h-3.428v1.958h2.966v0.746h-2.966v2.871H164.091z"/>
		</g>
	</g>
	<g>
		<defs>
			<polygon id="SVGID_13_" points="95.673,103.015 109.284,103.015 109.284,114.787 95.673,114.787 95.673,103.015 			"/>
		</defs>
		<clipPath id="SVGID_14_">
			<use xlink:href="#SVGID_13_"  style="overflow:visible;"/>
		</clipPath>
		<g style="clip-path:url(#SVGID_14_);">
			<path d="M96.378,111.896v-6.32h4.57v0.746h-3.733v1.936h3.496V109h-3.496v2.15h3.88v0.746H96.378z"/>
		</g>
	</g>
	<g>
		<defs>
			<polygon id="SVGID_15_" points="134.3,73.585 148.647,73.585 148.647,85.355 134.3,85.355 134.3,73.585 			"/>
		</defs>
		<clipPath id="SVGID_16_">
			<use xlink:href="#SVGID_15_"  style="overflow:visible;"/>
		</clipPath>
		<g style="clip-path:url(#SVGID_16_);">
			<path d="M139.495,80.247l0.836,0.211c-0.175,0.688-0.49,1.211-0.946,1.571c-0.455,0.361-1.012,0.541-1.67,0.541
				c-0.682,0-1.235-0.139-1.662-0.416s-0.752-0.679-0.975-1.204c-0.223-0.526-0.334-1.091-0.334-1.694
				c0-0.658,0.126-1.232,0.378-1.723c0.251-0.49,0.608-0.862,1.073-1.116c0.464-0.255,0.975-0.382,1.532-0.382
				c0.632,0,1.164,0.161,1.595,0.483c0.432,0.321,0.731,0.774,0.901,1.357L139.4,78.07c-0.146-0.46-0.359-0.795-0.638-1.005
				c-0.279-0.21-0.63-0.314-1.053-0.314c-0.485,0-0.892,0.116-1.218,0.349c-0.326,0.233-0.555,0.546-0.688,0.938
				c-0.132,0.392-0.198,0.797-0.198,1.213c0,0.538,0.078,1.007,0.235,1.408c0.156,0.4,0.4,0.7,0.73,0.898s0.688,0.298,1.073,0.298
				c0.469,0,0.865-0.136,1.19-0.405C139.16,81.18,139.38,80.778,139.495,80.247z"/>
		</g>
	</g>
	<g>
		<defs>
			<polygon id="SVGID_17_" points="104.87,87.932 118.482,87.932 118.482,99.704 104.87,99.704 104.87,87.932 			"/>
		</defs>
		<clipPath id="SVGID_18_">
			<use xlink:href="#SVGID_17_"  style="overflow:visible;"/>
		</clipPath>
		<g style="clip-path:url(#SVGID_18_);">
			<path d="M105.519,96.815v-6.32h2.371c0.483,0,0.87,0.064,1.163,0.192c0.291,0.128,0.52,0.325,0.685,0.591
				s0.249,0.544,0.249,0.834c0,0.271-0.074,0.524-0.221,0.763c-0.146,0.239-0.368,0.432-0.664,0.578
				c0.383,0.112,0.676,0.303,0.881,0.573c0.207,0.271,0.309,0.589,0.309,0.957c0,0.296-0.062,0.571-0.188,0.825
				c-0.125,0.255-0.279,0.451-0.463,0.589s-0.414,0.242-0.692,0.312c-0.277,0.07-0.617,0.105-1.02,0.105H105.519z M106.355,93.151
				h1.367c0.371,0,0.637-0.024,0.797-0.073c0.213-0.063,0.373-0.168,0.48-0.315c0.107-0.146,0.162-0.33,0.162-0.552
				c0-0.209-0.051-0.395-0.15-0.554c-0.101-0.159-0.245-0.269-0.432-0.327c-0.187-0.06-0.507-0.089-0.961-0.089h-1.263V93.151z
				 M106.355,96.069h1.574c0.27,0,0.459-0.01,0.569-0.03c0.192-0.034,0.354-0.092,0.483-0.172c0.129-0.081,0.236-0.197,0.319-0.352
				c0.083-0.153,0.125-0.331,0.125-0.532c0-0.235-0.06-0.44-0.181-0.614s-0.289-0.296-0.502-0.366
				c-0.214-0.07-0.522-0.106-0.925-0.106h-1.461V96.069z"/>
		</g>
	</g>
	<g>
		<defs>
			<polygon id="SVGID_19_" points="37.918,34.591 52.265,34.591 52.265,46.363 37.918,46.363 37.918,34.591 			"/>
		</defs>
		<clipPath id="SVGID_20_">
			<use xlink:href="#SVGID_19_"  style="overflow:visible;"/>
		</clipPath>
		<g style="clip-path:url(#SVGID_20_);">
			<path d="M38.604,43.472v-6.32h2.177c0.491,0,0.866,0.03,1.125,0.09c0.362,0.083,0.671,0.234,0.927,0.453
				c0.333,0.282,0.583,0.642,0.748,1.08c0.165,0.438,0.248,0.939,0.248,1.502c0,0.48-0.056,0.905-0.168,1.276
				c-0.112,0.371-0.256,0.678-0.431,0.92c-0.175,0.243-0.367,0.434-0.575,0.573c-0.208,0.14-0.46,0.245-0.754,0.317
				c-0.295,0.072-0.633,0.108-1.016,0.108H38.604z M39.44,42.727h1.349c0.417,0,0.744-0.039,0.981-0.117
				c0.237-0.078,0.426-0.187,0.567-0.328c0.198-0.198,0.353-0.465,0.463-0.8c0.11-0.334,0.166-0.741,0.166-1.218
				c0-0.661-0.108-1.169-0.326-1.524c-0.217-0.355-0.48-0.593-0.791-0.713c-0.224-0.086-0.585-0.129-1.082-0.129H39.44V42.727z"/>
		</g>
	</g>
	<g>
		<defs>
			<polygon id="SVGID_21_" points="65.876,49.306 79.487,49.306 79.487,61.078 65.876,61.078 65.876,49.306 			"/>
		</defs>
		<clipPath id="SVGID_22_">
			<use xlink:href="#SVGID_21_"  style="overflow:visible;"/>
		</clipPath>
		<g style="clip-path:url(#SVGID_22_);">
			<path d="M65.867,58.181l2.427-6.32h0.901l2.587,6.32h-0.953l-0.737-1.914h-2.643l-0.694,1.914H65.867z M67.69,55.586h2.143
				l-0.66-1.75c-0.201-0.532-0.351-0.969-0.448-1.311c-0.081,0.405-0.194,0.808-0.34,1.207L67.69,55.586z"/>
		</g>
	</g>
	
		<path style="fill-rule:evenodd;clip-rule:evenodd;fill:#4D4D4D;stroke:#000000;stroke-width:0;stroke-linecap:square;stroke-miterlimit:10;" d="
		M43.804,43.788c0-0.408,0.327-0.735,0.735-0.735s0.736,0.327,0.736,0.735c0,0.409-0.327,0.736-0.736,0.736
		S43.804,44.196,43.804,43.788L43.804,43.788z"/>
	
		<path style="fill-rule:evenodd;clip-rule:evenodd;fill:#4D4D4D;stroke:#000000;stroke-width:0;stroke-linecap:square;stroke-miterlimit:10;" d="
		M72.866,58.135c0-0.409,0.327-0.735,0.735-0.735c0.409,0,0.736,0.327,0.736,0.735s-0.327,0.735-0.736,0.735
		C73.193,58.87,72.866,58.543,72.866,58.135L72.866,58.135z"/>
	
		<path style="fill-rule:evenodd;clip-rule:evenodd;fill:#4D4D4D;stroke:#000000;stroke-width:0;stroke-linecap:square;stroke-miterlimit:10;" d="
		M160.786,72.85c0-0.409,0.327-0.736,0.735-0.736c0.41,0,0.737,0.327,0.737,0.736c0,0.408-0.327,0.735-0.737,0.735
		C161.113,73.585,160.786,73.258,160.786,72.85L160.786,72.85z"/>
	
		<path style="fill-rule:evenodd;clip-rule:evenodd;fill:#4D4D4D;stroke:#000000;stroke-width:0;stroke-linecap:square;stroke-miterlimit:10;" d="
		M131.726,72.85c0-0.409,0.327-0.736,0.734-0.736c0.409,0,0.736,0.327,0.736,0.736c0,0.408-0.327,0.735-0.736,0.735
		C132.053,73.585,131.726,73.258,131.726,72.85L131.726,72.85z"/>
	
		<path style="fill-rule:evenodd;clip-rule:evenodd;fill:#4D4D4D;stroke:#000000;stroke-width:0;stroke-linecap:square;stroke-miterlimit:10;" d="
		M102.295,102.279c0-0.409,0.327-0.736,0.736-0.736s0.736,0.327,0.736,0.736c0,0.408-0.327,0.735-0.736,0.735
		S102.295,102.688,102.295,102.279L102.295,102.279z"/>
	
		<path style="fill-rule:evenodd;clip-rule:evenodd;fill:#4D4D4D;stroke:#000000;stroke-width:0;stroke-linecap:square;stroke-miterlimit:10;" d="
		M102.295,87.563c0-0.408,0.327-0.735,0.736-0.735s0.736,0.327,0.736,0.735c0,0.409-0.327,0.736-0.736,0.736
		S102.295,87.973,102.295,87.563L102.295,87.563z"/>
	
		<path style="fill-rule:evenodd;clip-rule:evenodd;fill:#4D4D4D;stroke:#000000;stroke-width:0;stroke-linecap:square;stroke-miterlimit:10;" d="
		M117.01,87.563c0-0.408,0.327-0.735,0.736-0.735s0.736,0.327,0.736,0.735c0,0.409-0.327,0.736-0.736,0.736
		S117.01,87.973,117.01,87.563L117.01,87.563z"/>
</g>
</svg>
