<?xml version="1.0" encoding="iso-8859-1"?>
<!-- Generator: Adobe Illustrator 15.1.0, SVG Export Plug-In . SVG Version: 6.00 Build 0)  -->
<!DOCTYPE svg PUBLIC "-//W3C//DTD SVG 1.1//EN" "http://www.w3.org/Graphics/SVG/1.1/DTD/svg11.dtd">
<svg version="1.1" id="Layer_1" xmlns="http://www.w3.org/2000/svg" xmlns:xlink="http://www.w3.org/1999/xlink" x="0px" y="0px"
	 width="216px" height="144px" viewBox="0 0 216 144" style="enable-background:new 0 0 216 144;" xml:space="preserve">
<g>
	
		<line style="fill:none;stroke:#0E0E0E;stroke-width:0.9438;stroke-linecap:square;stroke-miterlimit:10;" x1="111.887" y1="71.487" x2="111.887" y2="102.635"/>
	
		<line style="fill:none;stroke:#0E0E0E;stroke-width:2.8315;stroke-linecap:square;stroke-miterlimit:10;" x1="111.887" y1="102.635" x2="183.622" y2="102.635"/>
	
		<line style="fill:none;stroke:#0E0E0E;stroke-width:0.9438;stroke-linecap:square;stroke-miterlimit:10;" x1="79.795" y1="102.635" x2="210.995" y2="102.635"/>
	
		<line style="fill:none;stroke:#0E0E0E;stroke-width:0;stroke-linecap:square;stroke-miterlimit:10;" x1="12.779" y1="28.072" x2="183.622" y2="102.635"/>
	<g>
		<defs>
			<polygon id="SVGID_1_" points="78.851,81.869 110.942,81.869 110.942,98.858 78.851,98.858 78.851,81.869 			"/>
		</defs>
		<clipPath id="SVGID_2_">
			<use xlink:href="#SVGID_1_"  style="overflow:visible;"/>
		</clipPath>
		<g style="clip-path:url(#SVGID_2_);">
			<path d="M79.181,91.512l0.984-0.155c0.055,0.395,0.209,0.697,0.461,0.907c0.253,0.21,0.606,0.315,1.06,0.315
				c0.457,0,0.796-0.094,1.018-0.279c0.221-0.187,0.332-0.404,0.332-0.655c0-0.225-0.098-0.402-0.293-0.531
				c-0.137-0.088-0.476-0.201-1.018-0.337c-0.73-0.185-1.236-0.344-1.518-0.479c-0.282-0.135-0.496-0.321-0.642-0.559
				c-0.146-0.238-0.219-0.501-0.219-0.788c0-0.262,0.06-0.504,0.18-0.728c0.12-0.223,0.283-0.408,0.49-0.556
				c0.155-0.114,0.366-0.211,0.633-0.29c0.267-0.079,0.554-0.119,0.86-0.119c0.461,0,0.866,0.066,1.214,0.199
				c0.349,0.133,0.605,0.312,0.771,0.539s0.28,0.53,0.343,0.91l-0.974,0.133c-0.044-0.303-0.172-0.539-0.384-0.708
				c-0.212-0.17-0.512-0.255-0.899-0.255c-0.457,0-0.783,0.076-0.979,0.227c-0.196,0.151-0.293,0.328-0.293,0.531
				c0,0.129,0.041,0.245,0.122,0.349c0.081,0.106,0.208,0.195,0.382,0.266c0.1,0.036,0.393,0.121,0.879,0.254
				c0.704,0.188,1.195,0.342,1.474,0.462s0.497,0.294,0.656,0.522c0.158,0.229,0.238,0.513,0.238,0.852
				c0,0.332-0.097,0.645-0.291,0.938s-0.473,0.52-0.838,0.681c-0.365,0.16-0.778,0.24-1.239,0.24c-0.763,0-1.345-0.158-1.745-0.476
				C79.546,92.604,79.291,92.135,79.181,91.512z"/>
			<path d="M86.475,92.374l0.144,0.88c-0.28,0.059-0.531,0.088-0.752,0.088c-0.362,0-0.642-0.057-0.841-0.171
				s-0.339-0.265-0.42-0.451c-0.081-0.186-0.122-0.578-0.122-1.175v-3.379h-0.73v-0.774h0.73v-1.454l0.99-0.598v2.052h1.001v0.774
				h-1.001V91.6c0,0.284,0.018,0.467,0.053,0.548s0.092,0.146,0.171,0.193s0.193,0.072,0.34,0.072
				C86.149,92.413,86.294,92.4,86.475,92.374z"/>
			<path d="M87.148,86.302v-1.145h0.996v1.145H87.148z M87.148,93.265v-5.873h0.996v5.873H87.148z"/>
			<path d="M94.749,91.113l0.979,0.127c-0.107,0.675-0.381,1.203-0.821,1.585s-0.981,0.572-1.623,0.572
				c-0.804,0-1.45-0.263-1.938-0.788c-0.489-0.525-0.733-1.278-0.733-2.259c0-0.635,0.105-1.189,0.315-1.665
				c0.21-0.476,0.53-0.832,0.959-1.07c0.429-0.237,0.897-0.356,1.402-0.356c0.638,0,1.16,0.161,1.565,0.484
				c0.405,0.322,0.666,0.78,0.78,1.374l-0.968,0.149c-0.092-0.395-0.255-0.691-0.489-0.891s-0.517-0.299-0.849-0.299
				c-0.501,0-0.909,0.18-1.222,0.539s-0.47,0.929-0.47,1.706c0,0.789,0.151,1.362,0.453,1.72c0.302,0.358,0.697,0.537,1.184,0.537
				c0.391,0,0.717-0.12,0.979-0.359C94.513,91.979,94.679,91.611,94.749,91.113z"/>
			<path d="M96.585,93.265v-8.107h0.996v4.623l2.356-2.389h1.289L98.98,89.57l2.472,3.694h-1.228l-1.941-3.003l-0.703,0.675v2.328
				H96.585z"/>
		</g>
	</g>
	<g>
		<defs>
			<polygon id="SVGID_3_" points="109.999,109.24 191.173,109.24 191.173,126.229 109.999,126.229 109.999,109.24 			"/>
		</defs>
		<clipPath id="SVGID_4_">
			<use xlink:href="#SVGID_3_"  style="overflow:visible;"/>
		</clipPath>
		<g style="clip-path:url(#SVGID_4_);">
			<path d="M110.338,118.883l0.984-0.155c0.055,0.395,0.209,0.697,0.462,0.907c0.252,0.21,0.605,0.315,1.059,0.315
				c0.457,0,0.797-0.094,1.018-0.279c0.222-0.187,0.332-0.404,0.332-0.655c0-0.225-0.098-0.402-0.293-0.531
				c-0.137-0.088-0.476-0.201-1.018-0.337c-0.73-0.185-1.236-0.344-1.519-0.479s-0.496-0.321-0.642-0.559
				c-0.146-0.238-0.218-0.501-0.218-0.788c0-0.262,0.06-0.504,0.18-0.728c0.119-0.223,0.282-0.408,0.489-0.556
				c0.155-0.114,0.366-0.211,0.633-0.29c0.268-0.079,0.555-0.119,0.86-0.119c0.461,0,0.865,0.066,1.214,0.199
				s0.605,0.312,0.771,0.539s0.28,0.53,0.343,0.91l-0.973,0.133c-0.045-0.303-0.173-0.539-0.385-0.708
				c-0.212-0.17-0.512-0.255-0.898-0.255c-0.458,0-0.784,0.076-0.979,0.227c-0.195,0.151-0.293,0.328-0.293,0.531
				c0,0.129,0.041,0.245,0.122,0.349c0.081,0.106,0.208,0.195,0.381,0.266c0.1,0.036,0.394,0.121,0.88,0.254
				c0.704,0.188,1.195,0.342,1.474,0.462s0.497,0.294,0.655,0.522c0.159,0.229,0.238,0.513,0.238,0.852
				c0,0.332-0.097,0.645-0.291,0.938c-0.193,0.293-0.473,0.52-0.838,0.681c-0.364,0.16-0.777,0.24-1.238,0.24
				c-0.764,0-1.345-0.158-1.745-0.476S110.448,119.506,110.338,118.883z"/>
			<path d="M117.632,119.745l0.144,0.88c-0.28,0.059-0.53,0.088-0.752,0.088c-0.361,0-0.642-0.057-0.841-0.171
				c-0.198-0.114-0.339-0.265-0.42-0.451c-0.081-0.186-0.122-0.578-0.122-1.175v-3.379h-0.729v-0.774h0.729v-1.454l0.99-0.598v2.052
				h1.001v0.774h-1.001v3.434c0,0.284,0.018,0.467,0.053,0.548s0.092,0.146,0.172,0.193c0.079,0.048,0.192,0.072,0.34,0.072
				C117.306,119.784,117.451,119.771,117.632,119.745z"/>
			<path d="M118.305,113.673v-1.145h0.996v1.145H118.305z M118.305,120.636v-5.873h0.996v5.873H118.305z"/>
			<path d="M125.906,118.484l0.979,0.127c-0.107,0.675-0.381,1.203-0.821,1.585c-0.441,0.382-0.982,0.572-1.624,0.572
				c-0.804,0-1.449-0.263-1.938-0.788c-0.488-0.525-0.732-1.278-0.732-2.259c0-0.635,0.105-1.189,0.315-1.665s0.53-0.832,0.959-1.07
				c0.43-0.237,0.897-0.356,1.402-0.356c0.638,0,1.159,0.161,1.565,0.484c0.405,0.322,0.665,0.78,0.779,1.374l-0.968,0.149
				c-0.092-0.395-0.255-0.691-0.489-0.891s-0.517-0.299-0.849-0.299c-0.502,0-0.909,0.18-1.223,0.539s-0.47,0.929-0.47,1.706
				c0,0.789,0.151,1.362,0.453,1.72c0.303,0.358,0.697,0.537,1.184,0.537c0.391,0,0.717-0.12,0.979-0.359
				C125.671,119.351,125.836,118.982,125.906,118.484z"/>
			<path d="M127.742,120.636v-8.107h0.996v4.623l2.355-2.389h1.289l-2.246,2.179l2.473,3.694h-1.228l-1.941-3.003l-0.702,0.675
				v2.328H127.742z"/>
			<path d="M131.524,115.398l-0.254-1.515v-1.355h1.134v1.355l-0.266,1.515H131.524z"/>
			<path d="M133.952,118.883l0.984-0.155c0.055,0.395,0.209,0.697,0.462,0.907c0.252,0.21,0.605,0.315,1.059,0.315
				c0.457,0,0.797-0.094,1.018-0.279c0.222-0.187,0.332-0.404,0.332-0.655c0-0.225-0.098-0.402-0.293-0.531
				c-0.137-0.088-0.476-0.201-1.018-0.337c-0.73-0.185-1.236-0.344-1.519-0.479s-0.496-0.321-0.642-0.559
				c-0.146-0.238-0.218-0.501-0.218-0.788c0-0.262,0.06-0.504,0.18-0.728c0.119-0.223,0.282-0.408,0.489-0.556
				c0.155-0.114,0.366-0.211,0.633-0.29c0.268-0.079,0.555-0.119,0.86-0.119c0.461,0,0.865,0.066,1.214,0.199
				s0.605,0.312,0.771,0.539s0.28,0.53,0.343,0.91l-0.973,0.133c-0.045-0.303-0.173-0.539-0.385-0.708
				c-0.212-0.17-0.512-0.255-0.898-0.255c-0.458,0-0.784,0.076-0.979,0.227c-0.195,0.151-0.293,0.328-0.293,0.531
				c0,0.129,0.041,0.245,0.122,0.349c0.081,0.106,0.208,0.195,0.381,0.266c0.1,0.036,0.394,0.121,0.88,0.254
				c0.704,0.188,1.195,0.342,1.474,0.462s0.497,0.294,0.655,0.522c0.159,0.229,0.238,0.513,0.238,0.852
				c0,0.332-0.097,0.645-0.291,0.938c-0.193,0.293-0.473,0.52-0.838,0.681c-0.364,0.16-0.777,0.24-1.238,0.24
				c-0.764,0-1.345-0.158-1.745-0.476S134.062,119.506,133.952,118.883z"/>
			<path d="M141.516,118.883l0.984-0.155c0.055,0.395,0.209,0.697,0.462,0.907c0.252,0.21,0.605,0.315,1.059,0.315
				c0.457,0,0.797-0.094,1.018-0.279c0.222-0.187,0.332-0.404,0.332-0.655c0-0.225-0.098-0.402-0.293-0.531
				c-0.137-0.088-0.476-0.201-1.018-0.337c-0.73-0.185-1.236-0.344-1.519-0.479s-0.496-0.321-0.642-0.559
				c-0.146-0.238-0.218-0.501-0.218-0.788c0-0.262,0.06-0.504,0.18-0.728c0.119-0.223,0.282-0.408,0.489-0.556
				c0.155-0.114,0.366-0.211,0.633-0.29c0.268-0.079,0.555-0.119,0.86-0.119c0.461,0,0.865,0.066,1.214,0.199
				s0.605,0.312,0.771,0.539s0.28,0.53,0.343,0.91l-0.973,0.133c-0.045-0.303-0.173-0.539-0.385-0.708
				c-0.212-0.17-0.512-0.255-0.898-0.255c-0.458,0-0.784,0.076-0.979,0.227c-0.195,0.151-0.293,0.328-0.293,0.531
				c0,0.129,0.041,0.245,0.122,0.349c0.081,0.106,0.208,0.195,0.381,0.266c0.1,0.036,0.394,0.121,0.88,0.254
				c0.704,0.188,1.195,0.342,1.474,0.462s0.497,0.294,0.655,0.522c0.159,0.229,0.238,0.513,0.238,0.852
				c0,0.332-0.097,0.645-0.291,0.938c-0.193,0.293-0.473,0.52-0.838,0.681c-0.364,0.16-0.777,0.24-1.238,0.24
				c-0.764,0-1.345-0.158-1.745-0.476S141.626,119.506,141.516,118.883z"/>
			<path d="M146.637,120.636v-8.107h0.995v2.909c0.465-0.538,1.051-0.808,1.759-0.808c0.435,0,0.812,0.086,1.134,0.257
				c0.32,0.172,0.55,0.409,0.688,0.711c0.138,0.303,0.207,0.741,0.207,1.316v3.722h-0.995v-3.722c0-0.498-0.108-0.86-0.323-1.087
				c-0.216-0.227-0.521-0.34-0.916-0.34c-0.295,0-0.572,0.076-0.832,0.229s-0.445,0.36-0.556,0.622s-0.166,0.623-0.166,1.084v3.213
				H146.637z"/>
			<path d="M157.073,119.911c-0.368,0.313-0.724,0.535-1.064,0.664s-0.707,0.193-1.098,0.193c-0.646,0-1.142-0.157-1.488-0.473
				c-0.346-0.315-0.52-0.718-0.52-1.209c0-0.287,0.065-0.55,0.196-0.788c0.131-0.237,0.303-0.428,0.515-0.572
				c0.212-0.144,0.45-0.252,0.716-0.326c0.195-0.052,0.49-0.102,0.885-0.149c0.804-0.096,1.396-0.21,1.775-0.343
				c0.004-0.136,0.006-0.223,0.006-0.26c0-0.405-0.094-0.691-0.282-0.857c-0.254-0.225-0.632-0.337-1.134-0.337
				c-0.468,0-0.813,0.082-1.037,0.246c-0.223,0.164-0.388,0.454-0.495,0.871l-0.973-0.133c0.088-0.417,0.233-0.753,0.437-1.01
				c0.203-0.256,0.496-0.453,0.88-0.592c0.383-0.138,0.827-0.207,1.332-0.207c0.502,0,0.909,0.059,1.223,0.177
				s0.544,0.267,0.691,0.445s0.251,0.404,0.31,0.678c0.033,0.17,0.05,0.476,0.05,0.918v1.327c0,0.926,0.021,1.511,0.063,1.756
				s0.126,0.48,0.252,0.705h-1.04C157.169,120.43,157.103,120.188,157.073,119.911z M156.99,117.688
				c-0.361,0.147-0.903,0.272-1.626,0.376c-0.409,0.059-0.698,0.125-0.868,0.199c-0.17,0.073-0.301,0.182-0.393,0.323
				s-0.139,0.3-0.139,0.473c0,0.266,0.101,0.486,0.302,0.664c0.201,0.177,0.495,0.265,0.882,0.265c0.384,0,0.725-0.083,1.023-0.251
				s0.518-0.397,0.658-0.688c0.106-0.225,0.16-0.557,0.16-0.996V117.688z"/>
			<path d="M163.656,120.636v-0.741c-0.373,0.583-0.921,0.874-1.643,0.874c-0.469,0-0.899-0.129-1.292-0.387
				c-0.393-0.259-0.696-0.619-0.912-1.082c-0.216-0.462-0.324-0.994-0.324-1.595c0-0.587,0.098-1.118,0.294-1.596
				c0.195-0.478,0.488-0.844,0.879-1.098c0.391-0.255,0.828-0.382,1.311-0.382c0.354,0,0.67,0.074,0.946,0.224
				s0.501,0.344,0.675,0.584v-2.909h0.989v8.107H163.656z M160.509,117.705c0,0.752,0.158,1.314,0.476,1.687
				s0.691,0.559,1.123,0.559c0.435,0,0.805-0.178,1.108-0.534c0.305-0.355,0.457-0.898,0.457-1.628c0-0.804-0.155-1.394-0.465-1.771
				c-0.31-0.376-0.691-0.563-1.145-0.563c-0.443,0-0.812,0.181-1.109,0.542S160.509,116.927,160.509,117.705z"/>
			<path d="M166.08,117.699c0-1.088,0.303-1.894,0.907-2.417c0.505-0.435,1.121-0.652,1.847-0.652c0.808,0,1.468,0.265,1.98,0.794
				c0.513,0.528,0.769,1.26,0.769,2.192c0,0.756-0.113,1.351-0.34,1.783c-0.227,0.434-0.557,0.77-0.99,1.01
				c-0.434,0.239-0.906,0.359-1.419,0.359c-0.822,0-1.486-0.264-1.993-0.791S166.08,118.691,166.08,117.699z M167.104,117.699
				c0,0.752,0.164,1.315,0.492,1.689s0.741,0.562,1.238,0.562c0.494,0,0.905-0.188,1.233-0.564s0.492-0.949,0.492-1.72
				c0-0.727-0.165-1.276-0.495-1.65c-0.329-0.375-0.739-0.562-1.23-0.562c-0.497,0-0.91,0.187-1.238,0.559
				S167.104,116.947,167.104,117.699z"/>
			<path d="M174.14,120.636l-1.798-5.873h1.028l0.935,3.39l0.349,1.261c0.015-0.062,0.116-0.466,0.305-1.211l0.935-3.439h1.023
				l0.879,3.406l0.293,1.123l0.338-1.134l1.006-3.396h0.968l-1.836,5.873h-1.034l-0.935-3.518l-0.227-1.001l-1.189,4.519H174.14z"/>
		</g>
	</g>
	<g>
		<defs>
			<polygon id="SVGID_5_" points="41.096,23.353 95.841,23.353 95.841,40.341 41.096,40.341 41.096,23.353 			"/>
		</defs>
		<clipPath id="SVGID_6_">
			<use xlink:href="#SVGID_5_"  style="overflow:visible;"/>
		</clipPath>
		<g style="clip-path:url(#SVGID_6_);">
			<path d="M41.428,32.984l0.984-0.155c0.055,0.395,0.209,0.697,0.461,0.907c0.253,0.21,0.606,0.315,1.06,0.315
				c0.457,0,0.796-0.093,1.018-0.279c0.221-0.187,0.332-0.405,0.332-0.655c0-0.225-0.098-0.402-0.293-0.531
				c-0.137-0.088-0.476-0.201-1.018-0.337c-0.73-0.184-1.236-0.344-1.518-0.478c-0.282-0.135-0.496-0.321-0.642-0.559
				c-0.146-0.238-0.219-0.5-0.219-0.788c0-0.262,0.06-0.504,0.18-0.728c0.12-0.223,0.283-0.408,0.49-0.556
				c0.155-0.114,0.366-0.211,0.633-0.29c0.267-0.08,0.554-0.119,0.86-0.119c0.461,0,0.866,0.066,1.214,0.199
				c0.349,0.133,0.605,0.312,0.771,0.539s0.28,0.53,0.343,0.91l-0.974,0.133c-0.044-0.302-0.172-0.538-0.384-0.708
				c-0.212-0.169-0.512-0.254-0.899-0.254c-0.457,0-0.783,0.076-0.979,0.227c-0.196,0.151-0.293,0.328-0.293,0.531
				c0,0.129,0.041,0.245,0.122,0.348c0.081,0.107,0.208,0.196,0.382,0.266c0.1,0.037,0.393,0.122,0.879,0.254
				c0.704,0.188,1.195,0.342,1.474,0.462s0.497,0.294,0.656,0.522c0.158,0.229,0.238,0.513,0.238,0.852
				c0,0.332-0.097,0.645-0.291,0.938s-0.473,0.52-0.838,0.68c-0.365,0.161-0.778,0.241-1.239,0.241
				c-0.763,0-1.345-0.159-1.745-0.476C41.793,34.078,41.538,33.607,41.428,32.984z"/>
			<path d="M50.398,34.737v-0.863c-0.457,0.664-1.078,0.996-1.864,0.996c-0.347,0-0.67-0.066-0.97-0.199
				c-0.301-0.133-0.524-0.299-0.669-0.5c-0.146-0.201-0.248-0.447-0.307-0.738c-0.041-0.195-0.061-0.505-0.061-0.929v-3.639h0.996
				v3.257c0,0.52,0.02,0.87,0.061,1.051c0.062,0.262,0.195,0.467,0.398,0.617c0.203,0.149,0.453,0.224,0.752,0.224
				s0.579-0.076,0.841-0.229c0.262-0.153,0.447-0.361,0.556-0.625c0.109-0.263,0.163-0.646,0.163-1.147v-3.146h0.996v5.873H50.398z"
				/>
			<path d="M53.154,34.737v-5.873h0.896v0.835c0.431-0.645,1.054-0.968,1.869-0.968c0.354,0,0.68,0.063,0.977,0.191
				c0.296,0.127,0.519,0.294,0.666,0.5s0.251,0.452,0.31,0.735c0.037,0.185,0.055,0.507,0.055,0.968v3.611h-0.996v-3.573
				c0-0.405-0.039-0.708-0.116-0.91c-0.077-0.201-0.215-0.361-0.412-0.481s-0.428-0.18-0.694-0.18c-0.424,0-0.79,0.135-1.098,0.404
				c-0.308,0.269-0.462,0.78-0.462,1.532v3.208H53.154z"/>
			<path d="M59.764,29.5l-0.254-1.515V26.63h1.134v1.355L60.378,29.5H59.764z"/>
			<path d="M61.252,32.984l0.984-0.155c0.055,0.395,0.209,0.697,0.461,0.907c0.253,0.21,0.606,0.315,1.06,0.315
				c0.457,0,0.796-0.093,1.018-0.279c0.221-0.187,0.332-0.405,0.332-0.655c0-0.225-0.098-0.402-0.293-0.531
				c-0.137-0.088-0.476-0.201-1.018-0.337c-0.73-0.184-1.236-0.344-1.518-0.478c-0.282-0.135-0.496-0.321-0.642-0.559
				c-0.146-0.238-0.219-0.5-0.219-0.788c0-0.262,0.06-0.504,0.18-0.728c0.12-0.223,0.283-0.408,0.49-0.556
				c0.155-0.114,0.366-0.211,0.633-0.29c0.267-0.08,0.554-0.119,0.86-0.119c0.461,0,0.866,0.066,1.214,0.199
				c0.349,0.133,0.605,0.312,0.771,0.539s0.28,0.53,0.343,0.91l-0.974,0.133c-0.044-0.302-0.172-0.538-0.384-0.708
				c-0.212-0.169-0.512-0.254-0.899-0.254c-0.457,0-0.783,0.076-0.979,0.227c-0.196,0.151-0.293,0.328-0.293,0.531
				c0,0.129,0.041,0.245,0.122,0.348c0.081,0.107,0.208,0.196,0.382,0.266c0.1,0.037,0.393,0.122,0.879,0.254
				c0.704,0.188,1.195,0.342,1.474,0.462s0.497,0.294,0.656,0.522c0.158,0.229,0.238,0.513,0.238,0.852
				c0,0.332-0.097,0.645-0.291,0.938s-0.473,0.52-0.838,0.68c-0.365,0.161-0.778,0.241-1.239,0.241
				c-0.763,0-1.345-0.159-1.745-0.476C61.618,34.078,61.362,33.607,61.252,32.984z"/>
			<path d="M70.131,34.737v-5.873h0.896v0.89c0.229-0.417,0.44-0.691,0.633-0.824c0.194-0.133,0.407-0.199,0.639-0.199
				c0.335,0,0.677,0.107,1.023,0.321l-0.343,0.923c-0.244-0.144-0.487-0.215-0.73-0.215c-0.218,0-0.413,0.065-0.586,0.196
				s-0.297,0.312-0.371,0.544c-0.111,0.354-0.166,0.741-0.166,1.162v3.075H70.131z"/>
			<path d="M76.807,34.013c-0.369,0.313-0.724,0.535-1.064,0.664c-0.341,0.129-0.707,0.194-1.098,0.194
				c-0.646,0-1.141-0.158-1.488-0.473c-0.347-0.315-0.52-0.718-0.52-1.208c0-0.288,0.065-0.55,0.196-0.788s0.302-0.429,0.515-0.572
				c0.212-0.144,0.451-0.253,0.716-0.327c0.196-0.051,0.491-0.101,0.885-0.149c0.804-0.096,1.396-0.21,1.775-0.343
				c0.004-0.136,0.006-0.223,0.006-0.26c0-0.405-0.094-0.691-0.282-0.857c-0.254-0.225-0.632-0.337-1.134-0.337
				c-0.468,0-0.814,0.082-1.037,0.246c-0.223,0.164-0.388,0.454-0.495,0.871l-0.974-0.132c0.089-0.417,0.234-0.753,0.437-1.009
				s0.496-0.454,0.879-0.592s0.828-0.208,1.333-0.208c0.501,0,0.909,0.059,1.222,0.177c0.313,0.118,0.544,0.266,0.691,0.445
				c0.147,0.179,0.25,0.405,0.31,0.678c0.033,0.169,0.05,0.476,0.05,0.918v1.327c0,0.925,0.021,1.511,0.063,1.756
				s0.126,0.48,0.252,0.705h-1.04C76.903,34.531,76.837,34.29,76.807,34.013z M76.724,31.79c-0.361,0.147-0.903,0.273-1.626,0.376
				c-0.409,0.059-0.699,0.125-0.868,0.199s-0.3,0.182-0.393,0.324s-0.138,0.299-0.138,0.473c0,0.266,0.101,0.487,0.301,0.664
				c0.201,0.177,0.495,0.266,0.882,0.266c0.383,0,0.725-0.084,1.023-0.251c0.299-0.168,0.518-0.397,0.658-0.689
				c0.107-0.225,0.16-0.557,0.16-0.995V31.79z"/>
			<path d="M79.535,36.999l-0.11-0.935c0.217,0.059,0.407,0.088,0.57,0.088c0.221,0,0.398-0.037,0.531-0.11s0.241-0.177,0.326-0.31
				c0.063-0.1,0.164-0.347,0.304-0.741c0.019-0.055,0.048-0.136,0.088-0.243l-2.229-5.884h1.073l1.222,3.401
				c0.159,0.432,0.301,0.885,0.426,1.36c0.114-0.457,0.251-0.903,0.41-1.338l1.255-3.423h0.996l-2.234,5.973
				c-0.24,0.645-0.426,1.089-0.559,1.333c-0.177,0.328-0.38,0.569-0.608,0.722c-0.229,0.153-0.501,0.229-0.819,0.229
				C79.985,37.121,79.771,37.08,79.535,36.999z"/>
		</g>
	</g>
</g>
</svg>
