<?xml version="1.0" encoding="iso-8859-1"?>
<!-- Generator: Adobe Illustrator 15.1.0, SVG Export Plug-In . SVG Version: 6.00 Build 0)  -->
<!DOCTYPE svg PUBLIC "-//W3C//DTD SVG 1.1//EN" "http://www.w3.org/Graphics/SVG/1.1/DTD/svg11.dtd">
<svg version="1.1" id="Layer_1" xmlns="http://www.w3.org/2000/svg" xmlns:xlink="http://www.w3.org/1999/xlink" x="0px" y="0px"
	 width="216px" height="144px" viewBox="0 0 216 144" style="enable-background:new 0 0 216 144;" xml:space="preserve">
<g>
	
		<line style="fill:none;stroke:#0E0E0E;stroke-width:0.6887;stroke-linecap:square;stroke-miterlimit:10;" x1="94.453" y1="16.576" x2="94.453" y2="63.406"/>
	
		<line style="fill:none;stroke:#0E0E0E;stroke-width:0.25;stroke-linecap:square;stroke-miterlimit:10;" x1="94.453" y1="16.576" x2="211.527" y2="63.406"/>
	
		<line style="fill:none;stroke:#0E0E0E;stroke-width:0.6887;stroke-linecap:square;stroke-miterlimit:10;" x1="94.453" y1="63.406" x2="211.527" y2="63.406"/>
	
		<line style="fill:none;stroke:#0E0E0E;stroke-width:0.6887;stroke-linecap:square;stroke-miterlimit:10;" x1="27.652" y1="104.037" x2="27.652" y2="115.744"/>
	
		<line style="fill:none;stroke:#0E0E0E;stroke-width:0.6887;stroke-linecap:square;stroke-miterlimit:10;" x1="27.652" y1="115.744" x2="55.199" y2="115.744"/>
	
		<line style="fill:none;stroke:#0E0E0E;stroke-width:0.25;stroke-linecap:square;stroke-miterlimit:10;" x1="27.652" y1="104.037" x2="55.199" y2="115.744"/>
	<g>
		<defs>
			<polygon id="SVGID_1_" points="2.172,106.104 26.964,106.104 26.964,117.122 2.172,117.122 2.172,106.104 			"/>
		</defs>
		<clipPath id="SVGID_2_">
			<use xlink:href="#SVGID_1_"  style="overflow:visible;"/>
		</clipPath>
		<g style="clip-path:url(#SVGID_2_);">
			<path d="M2.71,113.029v-4.93h2.186c0.439,0,0.773,0.044,1.002,0.133c0.229,0.089,0.412,0.245,0.548,0.469
				c0.137,0.225,0.205,0.473,0.205,0.743c0,0.351-0.113,0.645-0.34,0.885c-0.226,0.24-0.576,0.393-1.049,0.457
				c0.172,0.083,0.304,0.165,0.393,0.246c0.191,0.175,0.371,0.394,0.542,0.655l0.857,1.342h-0.82l-0.652-1.025
				c-0.19-0.296-0.348-0.522-0.471-0.68c-0.124-0.156-0.234-0.267-0.331-0.329c-0.098-0.062-0.197-0.106-0.298-0.132
				c-0.074-0.016-0.195-0.023-0.363-0.023H3.363v2.189H2.71z M3.363,110.275h1.402c0.298,0,0.531-0.031,0.699-0.093
				s0.296-0.16,0.383-0.296s0.131-0.283,0.131-0.442c0-0.232-0.085-0.425-0.254-0.574c-0.169-0.15-0.437-0.226-0.802-0.226h-1.56
				V110.275z"/>
			<path d="M6.53,111.244c0-0.662,0.184-1.151,0.552-1.47c0.307-0.265,0.681-0.396,1.123-0.396c0.491,0,0.892,0.16,1.204,0.482
				c0.312,0.321,0.468,0.766,0.468,1.333c0,0.46-0.069,0.821-0.207,1.084c-0.138,0.264-0.338,0.469-0.602,0.614
				c-0.263,0.146-0.551,0.219-0.862,0.219c-0.5,0-0.904-0.16-1.212-0.481C6.685,112.309,6.53,111.847,6.53,111.244z M7.152,111.244
				c0,0.457,0.1,0.8,0.299,1.027c0.2,0.228,0.451,0.341,0.753,0.341c0.3,0,0.55-0.114,0.75-0.343
				c0.199-0.229,0.299-0.577,0.299-1.046c0-0.441-0.101-0.776-0.301-1.004s-0.45-0.341-0.748-0.341
				c-0.303,0-0.554,0.113-0.753,0.339C7.252,110.444,7.152,110.786,7.152,111.244z"/>
			<path d="M10.758,113.029h-0.562v-4.93h0.605v1.759c0.256-0.32,0.582-0.48,0.979-0.48c0.22,0,0.428,0.044,0.624,0.133
				c0.196,0.088,0.357,0.213,0.484,0.373c0.126,0.16,0.226,0.354,0.297,0.58s0.107,0.469,0.107,0.726
				c0,0.612-0.151,1.086-0.454,1.42s-0.666,0.501-1.09,0.501c-0.421,0-0.752-0.177-0.992-0.528V113.029z M10.751,111.217
				c0,0.429,0.058,0.737,0.175,0.928c0.19,0.312,0.448,0.468,0.773,0.468c0.265,0,0.493-0.115,0.686-0.345s0.289-0.572,0.289-1.027
				c0-0.466-0.092-0.811-0.277-1.032s-0.409-0.333-0.671-0.333c-0.265,0-0.493,0.115-0.686,0.345S10.751,110.782,10.751,111.217z"/>
			<path d="M16.089,111.879l0.625,0.078c-0.099,0.365-0.281,0.648-0.548,0.851c-0.267,0.201-0.608,0.303-1.022,0.303
				c-0.522,0-0.937-0.161-1.242-0.482c-0.306-0.322-0.459-0.773-0.459-1.354c0-0.602,0.154-1.067,0.464-1.399
				c0.309-0.332,0.71-0.497,1.204-0.497c0.478,0,0.868,0.162,1.17,0.487s0.454,0.782,0.454,1.372c0,0.035-0.001,0.09-0.003,0.161
				h-2.664c0.022,0.393,0.134,0.692,0.333,0.901c0.2,0.208,0.448,0.312,0.747,0.312c0.222,0,0.411-0.059,0.568-0.175
				C15.873,112.321,15.998,112.135,16.089,111.879z M14.102,110.9h1.994c-0.027-0.3-0.103-0.525-0.229-0.676
				c-0.193-0.232-0.443-0.35-0.75-0.35c-0.278,0-0.512,0.093-0.701,0.279S14.123,110.589,14.102,110.9z"/>
			<path d="M17.083,113.029v-3.571h0.545V110c0.139-0.254,0.267-0.421,0.385-0.502c0.118-0.08,0.247-0.12,0.389-0.12
				c0.204,0,0.411,0.064,0.622,0.194l-0.208,0.562c-0.148-0.087-0.296-0.131-0.444-0.131c-0.132,0-0.251,0.04-0.356,0.119
				c-0.105,0.08-0.181,0.19-0.226,0.331c-0.067,0.216-0.101,0.451-0.101,0.707v1.869H17.083z"/>
			<path d="M20.477,112.488l0.087,0.534c-0.17,0.036-0.323,0.054-0.457,0.054c-0.22,0-0.39-0.034-0.511-0.104
				c-0.121-0.069-0.207-0.16-0.256-0.273s-0.074-0.352-0.074-0.715v-2.055h-0.444v-0.471h0.444v-0.884l0.602-0.363v1.247h0.608
				v0.471h-0.608v2.089c0,0.172,0.01,0.283,0.032,0.332c0.021,0.05,0.056,0.089,0.104,0.118c0.048,0.029,0.117,0.044,0.207,0.044
				C20.278,112.512,20.367,112.504,20.477,112.488z"/>
		</g>
	</g>
	<g>
		<defs>
			<polygon id="SVGID_3_" points="16.634,120.565 66.906,120.565 66.906,131.584 16.634,131.584 16.634,120.565 			"/>
		</defs>
		<clipPath id="SVGID_4_">
			<use xlink:href="#SVGID_3_"  style="overflow:visible;"/>
		</clipPath>
		<g style="clip-path:url(#SVGID_4_);">
			<path d="M17.18,127.49v-4.93h2.186c0.439,0,0.773,0.044,1.002,0.133c0.229,0.089,0.412,0.245,0.548,0.469
				c0.137,0.225,0.205,0.473,0.205,0.743c0,0.351-0.113,0.645-0.34,0.885c-0.226,0.24-0.576,0.393-1.049,0.457
				c0.172,0.083,0.304,0.165,0.393,0.246c0.191,0.175,0.371,0.394,0.542,0.655l0.857,1.342h-0.82l-0.652-1.025
				c-0.19-0.296-0.348-0.522-0.471-0.68c-0.124-0.156-0.234-0.267-0.331-0.329c-0.098-0.062-0.197-0.106-0.298-0.132
				c-0.074-0.016-0.195-0.023-0.363-0.023h-0.756v2.189H17.18z M17.832,124.736h1.402c0.298,0,0.531-0.031,0.699-0.093
				s0.296-0.16,0.383-0.296s0.131-0.283,0.131-0.442c0-0.232-0.085-0.425-0.254-0.574c-0.169-0.15-0.437-0.226-0.802-0.226h-1.56
				V124.736z"/>
			<path d="M21,125.705c0-0.662,0.184-1.151,0.552-1.47c0.307-0.265,0.681-0.396,1.123-0.396c0.491,0,0.892,0.16,1.204,0.482
				c0.312,0.321,0.468,0.766,0.468,1.333c0,0.46-0.069,0.821-0.207,1.084c-0.138,0.264-0.338,0.469-0.602,0.614
				c-0.263,0.146-0.551,0.219-0.862,0.219c-0.5,0-0.904-0.16-1.212-0.481C21.154,126.77,21,126.308,21,125.705z M21.622,125.705
				c0,0.457,0.1,0.8,0.299,1.027c0.2,0.228,0.451,0.341,0.753,0.341c0.3,0,0.55-0.114,0.75-0.343
				c0.199-0.229,0.299-0.577,0.299-1.046c0-0.441-0.101-0.776-0.301-1.004s-0.45-0.341-0.748-0.341
				c-0.303,0-0.554,0.113-0.753,0.339C21.722,124.905,21.622,125.247,21.622,125.705z"/>
			<path d="M25.228,127.49h-0.562v-4.93h0.605v1.759c0.256-0.32,0.582-0.48,0.979-0.48c0.22,0,0.428,0.044,0.624,0.133
				c0.196,0.088,0.357,0.213,0.484,0.373c0.126,0.16,0.226,0.354,0.297,0.58s0.107,0.469,0.107,0.726
				c0,0.612-0.151,1.086-0.454,1.42s-0.666,0.501-1.09,0.501c-0.421,0-0.752-0.177-0.992-0.528V127.49z M25.221,125.678
				c0,0.429,0.058,0.737,0.175,0.928c0.19,0.312,0.448,0.468,0.773,0.468c0.265,0,0.493-0.115,0.686-0.345s0.289-0.572,0.289-1.027
				c0-0.466-0.092-0.811-0.277-1.032s-0.409-0.333-0.671-0.333c-0.265,0-0.493,0.115-0.686,0.345S25.221,125.243,25.221,125.678z"/>
			<path d="M30.559,126.34l0.625,0.078c-0.099,0.365-0.281,0.648-0.548,0.851c-0.267,0.201-0.608,0.303-1.022,0.303
				c-0.522,0-0.937-0.161-1.242-0.482c-0.306-0.322-0.459-0.773-0.459-1.354c0-0.602,0.154-1.067,0.464-1.399
				c0.309-0.332,0.71-0.497,1.204-0.497c0.478,0,0.868,0.162,1.17,0.487s0.454,0.782,0.454,1.372c0,0.035-0.001,0.09-0.003,0.161
				h-2.664c0.022,0.393,0.134,0.692,0.333,0.901c0.2,0.208,0.448,0.312,0.747,0.312c0.222,0,0.411-0.059,0.568-0.175
				C30.342,126.782,30.467,126.596,30.559,126.34z M28.571,125.361h1.994c-0.027-0.3-0.103-0.525-0.229-0.676
				c-0.193-0.232-0.443-0.35-0.75-0.35c-0.278,0-0.512,0.093-0.701,0.279S28.592,125.05,28.571,125.361z"/>
			<path d="M31.552,127.49v-3.571h0.545v0.542c0.139-0.254,0.267-0.421,0.385-0.502c0.118-0.08,0.247-0.12,0.389-0.12
				c0.204,0,0.411,0.064,0.622,0.194l-0.208,0.562c-0.148-0.087-0.296-0.131-0.444-0.131c-0.132,0-0.251,0.04-0.356,0.119
				c-0.105,0.08-0.181,0.19-0.226,0.331c-0.067,0.216-0.101,0.451-0.101,0.707v1.869H31.552z"/>
			<path d="M34.946,126.949l0.087,0.534c-0.17,0.036-0.323,0.054-0.457,0.054c-0.22,0-0.39-0.034-0.511-0.104
				c-0.121-0.069-0.207-0.16-0.256-0.273s-0.074-0.352-0.074-0.715v-2.055h-0.444v-0.471h0.444v-0.884l0.602-0.363v1.247h0.608
				v0.471h-0.608v2.089c0,0.172,0.01,0.283,0.032,0.332c0.021,0.05,0.056,0.089,0.104,0.118c0.048,0.029,0.117,0.044,0.207,0.044
				C34.748,126.973,34.836,126.965,34.946,126.949z"/>
			<path d="M35.011,124.306l-0.155-0.921v-0.824h0.689v0.824l-0.162,0.921H35.011z"/>
			<path d="M36.143,126.424l0.599-0.094c0.034,0.24,0.127,0.424,0.281,0.552c0.153,0.128,0.368,0.191,0.644,0.191
				c0.278,0,0.484-0.057,0.619-0.17c0.134-0.113,0.202-0.246,0.202-0.398c0-0.137-0.06-0.244-0.178-0.322
				c-0.083-0.055-0.289-0.123-0.619-0.206c-0.444-0.111-0.751-0.209-0.923-0.29c-0.171-0.082-0.301-0.195-0.39-0.34
				c-0.088-0.145-0.133-0.305-0.133-0.479c0-0.159,0.037-0.307,0.109-0.442c0.073-0.135,0.172-0.248,0.298-0.338
				c0.094-0.069,0.222-0.128,0.385-0.176c0.163-0.049,0.337-0.072,0.523-0.072c0.28,0,0.526,0.04,0.738,0.12
				c0.212,0.081,0.368,0.19,0.469,0.328c0.101,0.138,0.17,0.322,0.208,0.554l-0.592,0.08c-0.027-0.184-0.104-0.327-0.233-0.43
				c-0.129-0.104-0.311-0.155-0.546-0.155c-0.278,0-0.477,0.046-0.595,0.138c-0.119,0.092-0.178,0.2-0.178,0.323
				c0,0.078,0.024,0.149,0.074,0.212c0.049,0.064,0.127,0.119,0.232,0.161c0.061,0.022,0.239,0.074,0.535,0.154
				c0.428,0.115,0.727,0.208,0.896,0.281c0.169,0.073,0.302,0.179,0.398,0.317c0.096,0.14,0.145,0.312,0.145,0.519
				c0,0.201-0.059,0.392-0.177,0.569c-0.118,0.179-0.287,0.316-0.509,0.414c-0.222,0.098-0.473,0.146-0.753,0.146
				c-0.464,0-0.817-0.097-1.061-0.289C36.365,127.089,36.21,126.803,36.143,126.424z"/>
			<path d="M40.274,126.424l0.599-0.094c0.034,0.24,0.127,0.424,0.281,0.552c0.153,0.128,0.368,0.191,0.644,0.191
				c0.278,0,0.484-0.057,0.619-0.17c0.134-0.113,0.202-0.246,0.202-0.398c0-0.137-0.06-0.244-0.178-0.322
				c-0.083-0.055-0.289-0.123-0.619-0.206c-0.444-0.111-0.751-0.209-0.923-0.29c-0.171-0.082-0.301-0.195-0.39-0.34
				c-0.088-0.145-0.133-0.305-0.133-0.479c0-0.159,0.037-0.307,0.109-0.442c0.073-0.135,0.172-0.248,0.298-0.338
				c0.094-0.069,0.222-0.128,0.385-0.176c0.163-0.049,0.337-0.072,0.523-0.072c0.28,0,0.526,0.04,0.738,0.12
				c0.212,0.081,0.368,0.19,0.469,0.328c0.101,0.138,0.17,0.322,0.208,0.554l-0.592,0.08c-0.027-0.184-0.104-0.327-0.233-0.43
				c-0.129-0.104-0.311-0.155-0.546-0.155c-0.278,0-0.477,0.046-0.595,0.138c-0.119,0.092-0.178,0.2-0.178,0.323
				c0,0.078,0.024,0.149,0.074,0.212c0.049,0.064,0.127,0.119,0.232,0.161c0.061,0.022,0.239,0.074,0.535,0.154
				c0.428,0.115,0.727,0.208,0.896,0.281c0.169,0.073,0.302,0.179,0.398,0.317c0.096,0.14,0.145,0.312,0.145,0.519
				c0,0.201-0.059,0.392-0.177,0.569c-0.118,0.179-0.287,0.316-0.509,0.414c-0.222,0.098-0.473,0.146-0.753,0.146
				c-0.464,0-0.817-0.097-1.061-0.289C40.496,127.089,40.341,126.803,40.274,126.424z"/>
			<path d="M42.582,127.49v-4.93h0.605v1.769c0.283-0.327,0.639-0.49,1.069-0.49c0.265,0,0.495,0.052,0.689,0.156
				c0.195,0.104,0.334,0.248,0.418,0.432c0.084,0.184,0.126,0.451,0.126,0.801v2.263h-0.605v-2.263c0-0.303-0.065-0.523-0.197-0.661
				c-0.131-0.138-0.316-0.207-0.557-0.207c-0.179,0-0.348,0.047-0.506,0.14s-0.271,0.22-0.338,0.379s-0.101,0.378-0.101,0.658v1.954
				H42.582z"/>
			<path d="M48.356,127.05c-0.224,0.19-0.44,0.325-0.647,0.403c-0.207,0.078-0.43,0.118-0.667,0.118
				c-0.392,0-0.694-0.096-0.904-0.288c-0.211-0.191-0.316-0.437-0.316-0.734c0-0.175,0.04-0.335,0.119-0.479
				s0.184-0.261,0.313-0.348c0.129-0.088,0.274-0.153,0.435-0.198c0.119-0.031,0.298-0.062,0.538-0.091
				c0.489-0.059,0.849-0.128,1.08-0.209c0.002-0.083,0.003-0.136,0.003-0.158c0-0.246-0.057-0.42-0.171-0.521
				c-0.155-0.137-0.385-0.205-0.689-0.205c-0.285,0-0.495,0.05-0.63,0.149c-0.136,0.1-0.236,0.276-0.301,0.529l-0.592-0.08
				c0.054-0.254,0.143-0.458,0.266-0.614c0.124-0.155,0.302-0.275,0.535-0.359c0.233-0.084,0.503-0.126,0.811-0.126
				c0.305,0,0.552,0.035,0.743,0.107c0.19,0.071,0.331,0.162,0.42,0.271c0.089,0.108,0.152,0.246,0.188,0.412
				c0.021,0.103,0.03,0.289,0.03,0.558v0.808c0,0.562,0.013,0.918,0.039,1.067c0.026,0.149,0.077,0.292,0.153,0.429h-0.632
				C48.415,127.364,48.375,127.218,48.356,127.05z M48.306,125.698c-0.22,0.09-0.549,0.166-0.989,0.229
				c-0.249,0.036-0.425,0.076-0.528,0.121s-0.183,0.11-0.239,0.196c-0.056,0.087-0.084,0.183-0.084,0.288
				c0,0.161,0.061,0.296,0.183,0.403s0.301,0.161,0.537,0.161c0.233,0,0.44-0.051,0.622-0.153c0.182-0.102,0.315-0.241,0.4-0.418
				c0.065-0.137,0.098-0.339,0.098-0.605V125.698z"/>
			<path d="M51.788,127.49v-0.45c-0.227,0.354-0.56,0.531-0.999,0.531c-0.285,0-0.546-0.079-0.785-0.235
				c-0.239-0.157-0.423-0.376-0.555-0.658c-0.131-0.281-0.197-0.604-0.197-0.97c0-0.356,0.06-0.68,0.178-0.97
				c0.119-0.291,0.297-0.513,0.535-0.668c0.238-0.154,0.503-0.231,0.797-0.231c0.215,0,0.407,0.045,0.575,0.136
				c0.168,0.091,0.305,0.209,0.41,0.354v-1.769h0.602v4.93H51.788z M49.874,125.708c0,0.457,0.096,0.799,0.289,1.025
				s0.42,0.34,0.683,0.34c0.265,0,0.489-0.108,0.674-0.324c0.185-0.217,0.277-0.547,0.277-0.99c0-0.489-0.094-0.848-0.282-1.076
				c-0.188-0.229-0.42-0.343-0.696-0.343c-0.269,0-0.494,0.109-0.674,0.329C49.964,124.889,49.874,125.235,49.874,125.708z"/>
			<path d="M52.69,125.705c0-0.662,0.184-1.151,0.552-1.47c0.307-0.265,0.681-0.396,1.123-0.396c0.491,0,0.892,0.16,1.204,0.482
				c0.312,0.321,0.468,0.766,0.468,1.333c0,0.46-0.069,0.821-0.207,1.084c-0.138,0.264-0.338,0.469-0.602,0.614
				c-0.263,0.146-0.551,0.219-0.862,0.219c-0.5,0-0.904-0.16-1.212-0.481C52.844,126.77,52.69,126.308,52.69,125.705z
				 M53.312,125.705c0,0.457,0.1,0.8,0.299,1.027c0.2,0.228,0.451,0.341,0.753,0.341c0.3,0,0.55-0.114,0.75-0.343
				c0.199-0.229,0.299-0.577,0.299-1.046c0-0.441-0.101-0.776-0.301-1.004s-0.45-0.341-0.748-0.341
				c-0.303,0-0.554,0.113-0.753,0.339C53.412,124.905,53.312,125.247,53.312,125.705z"/>
			<path d="M57.019,127.49l-1.093-3.571h0.625l0.568,2.062l0.212,0.767c0.009-0.038,0.071-0.283,0.185-0.736l0.568-2.092h0.622
				l0.535,2.071l0.178,0.683l0.205-0.689l0.612-2.064h0.588l-1.116,3.571H59.08l-0.568-2.139l-0.138-0.608l-0.723,2.747H57.019z"/>
		</g>
	</g>
	<g>
		<defs>
			<polygon id="SVGID_5_" points="122,68.915 183.98,68.915 183.98,82 122,82 122,68.915 			"/>
		</defs>
		<clipPath id="SVGID_6_">
			<use xlink:href="#SVGID_5_"  style="overflow:visible;"/>
		</clipPath>
		<g style="clip-path:url(#SVGID_6_);">
			<path d="M124.499,78.616v-6.087h-2.274v-0.814h5.471v0.814h-2.283v6.087H124.499z"/>
			<path d="M128.139,78.616v-4.999h0.763v0.758c0.194-0.355,0.374-0.589,0.539-0.701c0.165-0.113,0.346-0.17,0.544-0.17
				c0.285,0,0.576,0.091,0.871,0.273l-0.292,0.785c-0.207-0.122-0.414-0.184-0.622-0.184c-0.185,0-0.352,0.057-0.499,0.168
				s-0.252,0.266-0.315,0.463c-0.094,0.302-0.141,0.631-0.141,0.988v2.618H128.139z"/>
			<path d="M134.328,77.006l0.876,0.108c-0.138,0.512-0.394,0.909-0.768,1.191c-0.373,0.282-0.851,0.424-1.431,0.424
				c-0.731,0-1.312-0.226-1.739-0.676c-0.429-0.45-0.643-1.082-0.643-1.896c0-0.84,0.216-1.493,0.649-1.958
				c0.433-0.464,0.995-0.696,1.686-0.696c0.668,0,1.214,0.228,1.638,0.682c0.424,0.456,0.636,1.096,0.636,1.922
				c0,0.05-0.002,0.125-0.005,0.226h-3.729c0.031,0.55,0.187,0.97,0.466,1.262s0.628,0.438,1.046,0.438
				c0.311,0,0.575-0.081,0.795-0.244C134.025,77.624,134.2,77.363,134.328,77.006z M131.546,75.637h2.792
				c-0.038-0.421-0.145-0.736-0.32-0.947c-0.27-0.326-0.619-0.489-1.05-0.489c-0.389,0-0.716,0.13-0.981,0.392
				C131.722,74.852,131.574,75.2,131.546,75.637z"/>
			<path d="M138.466,77.006l0.876,0.108c-0.138,0.512-0.394,0.909-0.768,1.191c-0.373,0.282-0.851,0.424-1.431,0.424
				c-0.731,0-1.312-0.226-1.739-0.676c-0.429-0.45-0.643-1.082-0.643-1.896c0-0.84,0.216-1.493,0.649-1.958
				c0.433-0.464,0.995-0.696,1.686-0.696c0.668,0,1.214,0.228,1.638,0.682c0.424,0.456,0.636,1.096,0.636,1.922
				c0,0.05-0.002,0.125-0.005,0.226h-3.729c0.031,0.55,0.187,0.97,0.466,1.262s0.628,0.438,1.046,0.438
				c0.311,0,0.575-0.081,0.795-0.244C138.163,77.624,138.338,77.363,138.466,77.006z M135.684,75.637h2.792
				c-0.038-0.421-0.145-0.736-0.32-0.947c-0.27-0.326-0.619-0.489-1.05-0.489c-0.389,0-0.716,0.13-0.981,0.392
				C135.859,74.852,135.712,75.2,135.684,75.637z"/>
			<path d="M139.871,74.158l-0.217-1.29v-1.153h0.965v1.153l-0.226,1.29H139.871z"/>
			<path d="M141.59,77.124l0.838-0.132c0.047,0.336,0.178,0.594,0.393,0.771c0.215,0.18,0.516,0.269,0.901,0.269
				c0.39,0,0.679-0.079,0.866-0.237c0.188-0.158,0.283-0.345,0.283-0.559c0-0.191-0.083-0.342-0.25-0.451
				c-0.116-0.076-0.404-0.172-0.866-0.287c-0.621-0.157-1.052-0.293-1.292-0.408c-0.24-0.113-0.422-0.272-0.546-0.475
				c-0.124-0.203-0.187-0.426-0.187-0.671c0-0.224,0.052-0.429,0.153-0.619s0.241-0.348,0.417-0.474
				c0.132-0.097,0.312-0.18,0.539-0.246c0.228-0.068,0.471-0.102,0.731-0.102c0.393,0,0.737,0.057,1.033,0.17
				c0.297,0.112,0.516,0.266,0.657,0.459c0.141,0.192,0.238,0.451,0.292,0.773l-0.829,0.113c-0.037-0.258-0.146-0.458-0.327-0.603
				s-0.436-0.217-0.765-0.217c-0.39,0-0.667,0.064-0.833,0.193c-0.167,0.128-0.25,0.279-0.25,0.452c0,0.109,0.034,0.209,0.104,0.297
				c0.069,0.09,0.178,0.166,0.325,0.225c0.085,0.032,0.334,0.104,0.748,0.217c0.6,0.16,1.018,0.291,1.255,0.394
				s0.423,0.251,0.558,0.444c0.135,0.195,0.203,0.438,0.203,0.726c0,0.282-0.083,0.549-0.248,0.798
				c-0.164,0.25-0.402,0.442-0.713,0.579s-0.662,0.205-1.055,0.205c-0.649,0-1.145-0.135-1.485-0.405
				C141.901,78.055,141.684,77.654,141.59,77.124z"/>
			<path d="M147.797,77.124l0.838-0.132c0.047,0.336,0.178,0.594,0.393,0.771c0.215,0.18,0.516,0.269,0.901,0.269
				c0.39,0,0.679-0.079,0.866-0.237c0.188-0.158,0.283-0.345,0.283-0.559c0-0.191-0.083-0.342-0.25-0.451
				c-0.116-0.076-0.404-0.172-0.866-0.287c-0.621-0.157-1.052-0.293-1.292-0.408c-0.24-0.113-0.422-0.272-0.546-0.475
				c-0.124-0.203-0.187-0.426-0.187-0.671c0-0.224,0.052-0.429,0.153-0.619s0.241-0.348,0.417-0.474
				c0.132-0.097,0.312-0.18,0.539-0.246c0.228-0.068,0.471-0.102,0.731-0.102c0.393,0,0.737,0.057,1.033,0.17
				c0.297,0.112,0.516,0.266,0.657,0.459c0.141,0.192,0.238,0.451,0.292,0.773l-0.829,0.113c-0.037-0.258-0.146-0.458-0.327-0.603
				s-0.436-0.217-0.765-0.217c-0.39,0-0.667,0.064-0.833,0.193c-0.167,0.128-0.25,0.279-0.25,0.452c0,0.109,0.034,0.209,0.104,0.297
				c0.069,0.09,0.178,0.166,0.325,0.225c0.085,0.032,0.334,0.104,0.748,0.217c0.6,0.16,1.018,0.291,1.255,0.394
				s0.423,0.251,0.558,0.444c0.135,0.195,0.203,0.438,0.203,0.726c0,0.282-0.083,0.549-0.248,0.798
				c-0.164,0.25-0.402,0.442-0.713,0.579s-0.662,0.205-1.055,0.205c-0.649,0-1.145-0.135-1.485-0.405
				C148.108,78.055,147.891,77.654,147.797,77.124z"/>
			<path d="M152.271,78.616v-6.901h0.848v2.477c0.395-0.459,0.894-0.688,1.496-0.688c0.371,0,0.692,0.072,0.966,0.219
				c0.272,0.146,0.468,0.348,0.586,0.605c0.117,0.257,0.177,0.631,0.177,1.119v3.169h-0.848v-3.169c0-0.423-0.092-0.731-0.275-0.924
				c-0.184-0.193-0.443-0.29-0.779-0.29c-0.251,0-0.487,0.065-0.708,0.195c-0.222,0.13-0.379,0.307-0.474,0.53
				c-0.094,0.223-0.141,0.529-0.141,0.922v2.735H152.271z"/>
			<path d="M160.356,77.999c-0.314,0.268-0.616,0.456-0.906,0.565c-0.291,0.109-0.603,0.165-0.935,0.165
				c-0.55,0-0.972-0.135-1.267-0.402c-0.295-0.269-0.442-0.611-0.442-1.029c0-0.245,0.056-0.468,0.167-0.671
				c0.111-0.202,0.257-0.365,0.438-0.486c0.181-0.123,0.384-0.216,0.609-0.278c0.167-0.044,0.418-0.087,0.754-0.128
				c0.684-0.081,1.188-0.178,1.511-0.291c0.003-0.116,0.005-0.189,0.005-0.221c0-0.346-0.08-0.59-0.24-0.73
				c-0.217-0.191-0.538-0.287-0.965-0.287c-0.398,0-0.693,0.07-0.883,0.209c-0.189,0.141-0.33,0.387-0.421,0.742l-0.829-0.113
				c0.075-0.354,0.199-0.641,0.372-0.859c0.173-0.218,0.422-0.386,0.748-0.504c0.327-0.117,0.705-0.176,1.135-0.176
				c0.427,0,0.773,0.05,1.041,0.15c0.267,0.101,0.463,0.227,0.588,0.379c0.126,0.152,0.214,0.345,0.264,0.576
				c0.028,0.145,0.043,0.405,0.043,0.782v1.13c0,0.787,0.018,1.286,0.054,1.494c0.036,0.209,0.107,0.409,0.214,0.601h-0.885
				C160.438,78.44,160.381,78.235,160.356,77.999z M160.285,76.107c-0.308,0.125-0.769,0.232-1.384,0.32
				c-0.349,0.05-0.595,0.105-0.739,0.169s-0.256,0.155-0.334,0.275c-0.079,0.12-0.118,0.255-0.118,0.402
				c0,0.226,0.086,0.414,0.257,0.565c0.171,0.15,0.421,0.226,0.751,0.226c0.326,0,0.616-0.071,0.871-0.214
				c0.254-0.144,0.44-0.338,0.56-0.586c0.092-0.191,0.137-0.475,0.137-0.848V76.107z"/>
			<path d="M164.476,78.616v-0.631c-0.316,0.496-0.783,0.744-1.398,0.744c-0.398,0-0.765-0.11-1.099-0.33s-0.594-0.526-0.777-0.92
				s-0.275-0.847-0.275-1.358c0-0.499,0.084-0.951,0.25-1.357c0.166-0.407,0.416-0.719,0.748-0.936
				c0.333-0.217,0.705-0.324,1.116-0.324c0.301,0,0.569,0.063,0.805,0.19s0.427,0.292,0.574,0.497v-2.477h0.843v6.901H164.476z
				 M161.797,76.121c0,0.641,0.135,1.119,0.405,1.436c0.27,0.317,0.588,0.476,0.955,0.476c0.371,0,0.686-0.151,0.944-0.454
				s0.389-0.766,0.389-1.387c0-0.684-0.132-1.186-0.396-1.506s-0.589-0.48-0.975-0.48c-0.377,0-0.691,0.154-0.944,0.461
				C161.924,74.975,161.797,75.459,161.797,76.121z"/>
			<path d="M165.739,76.116c0-0.926,0.257-1.611,0.771-2.058c0.431-0.369,0.954-0.555,1.573-0.555c0.687,0,1.249,0.225,1.685,0.676
				c0.437,0.449,0.654,1.072,0.654,1.866c0,0.644-0.096,1.149-0.289,1.519c-0.193,0.368-0.474,0.654-0.843,0.858
				s-0.771,0.307-1.207,0.307c-0.7,0-1.267-0.225-1.697-0.674C165.955,77.607,165.739,76.961,165.739,76.116z M166.61,76.116
				c0,0.641,0.14,1.12,0.419,1.438s0.631,0.478,1.055,0.478c0.42,0,0.77-0.16,1.05-0.479c0.279-0.32,0.419-0.809,0.419-1.465
				c0-0.618-0.141-1.086-0.422-1.404c-0.281-0.319-0.63-0.479-1.047-0.479c-0.424,0-0.775,0.158-1.055,0.476
				S166.61,75.477,166.61,76.116z"/>
			<path d="M171.8,78.616l-1.53-4.999h0.876l0.795,2.885l0.297,1.074c0.013-0.054,0.099-0.397,0.259-1.031l0.796-2.928h0.871
				l0.748,2.899l0.25,0.956l0.287-0.965l0.856-2.891h0.824l-1.563,4.999h-0.88l-0.796-2.994l-0.193-0.853l-1.012,3.847H171.8z"/>
		</g>
	</g>
	<g>
		<defs>
			<polygon id="SVGID_7_" points="68.973,36.548 95.142,36.548 95.142,49.633 68.973,49.633 68.973,36.548 			"/>
		</defs>
		<clipPath id="SVGID_8_">
			<use xlink:href="#SVGID_7_"  style="overflow:visible;"/>
		</clipPath>
		<g style="clip-path:url(#SVGID_8_);">
			<path d="M71.471,46.241v-6.087h-2.274V39.34h5.47v0.814h-2.283v6.087H71.471z"/>
			<path d="M75.11,46.241v-5h0.763V42c0.195-0.354,0.375-0.588,0.539-0.701c0.165-0.113,0.346-0.17,0.544-0.17
				c0.286,0,0.576,0.091,0.871,0.273l-0.292,0.786c-0.208-0.123-0.415-0.184-0.622-0.184c-0.185,0-0.352,0.056-0.499,0.167
				s-0.253,0.266-0.315,0.464c-0.094,0.301-0.141,0.631-0.141,0.988v2.618H75.11z"/>
			<path d="M81.3,44.631l0.875,0.108c-0.138,0.512-0.394,0.909-0.767,1.191c-0.374,0.282-0.851,0.423-1.431,0.423
				c-0.731,0-1.311-0.225-1.74-0.675c-0.428-0.45-0.643-1.082-0.643-1.895c0-0.841,0.217-1.494,0.65-1.958
				c0.433-0.464,0.995-0.697,1.685-0.697c0.668,0,1.215,0.228,1.638,0.683c0.424,0.456,0.636,1.096,0.636,1.921
				c0,0.05-0.001,0.125-0.005,0.226H78.47c0.032,0.549,0.187,0.97,0.466,1.262s0.627,0.438,1.045,0.438
				c0.311,0,0.576-0.082,0.796-0.245C80.997,45.25,81.171,44.989,81.3,44.631z M78.518,43.261h2.792
				c-0.038-0.42-0.145-0.736-0.32-0.946c-0.27-0.326-0.62-0.49-1.05-0.49c-0.389,0-0.716,0.13-0.981,0.391
				C78.692,42.477,78.546,42.825,78.518,43.261z"/>
			<path d="M85.437,44.631l0.875,0.108c-0.138,0.512-0.394,0.909-0.767,1.191c-0.374,0.282-0.851,0.423-1.431,0.423
				c-0.731,0-1.311-0.225-1.74-0.675c-0.428-0.45-0.643-1.082-0.643-1.895c0-0.841,0.217-1.494,0.65-1.958
				c0.433-0.464,0.995-0.697,1.685-0.697c0.668,0,1.215,0.228,1.638,0.683c0.424,0.456,0.636,1.096,0.636,1.921
				c0,0.05-0.001,0.125-0.005,0.226h-3.729c0.032,0.549,0.187,0.97,0.466,1.262s0.627,0.438,1.045,0.438
				c0.311,0,0.576-0.082,0.796-0.245C85.134,45.25,85.308,44.989,85.437,44.631z M82.655,43.261h2.792
				c-0.038-0.42-0.145-0.736-0.32-0.946c-0.27-0.326-0.62-0.49-1.05-0.49c-0.389,0-0.716,0.13-0.981,0.391
				C82.83,42.477,82.683,42.825,82.655,43.261z"/>
		</g>
	</g>
</g>
</svg>
