<?xml version="1.0" encoding="iso-8859-1"?>
<!-- Generator: Adobe Illustrator 15.1.0, SVG Export Plug-In . SVG Version: 6.00 Build 0)  -->
<!DOCTYPE svg PUBLIC "-//W3C//DTD SVG 1.1//EN" "http://www.w3.org/Graphics/SVG/1.1/DTD/svg11.dtd">
<svg version="1.1" id="Layer_1" xmlns="http://www.w3.org/2000/svg" xmlns:xlink="http://www.w3.org/1999/xlink" x="0px" y="0px"
	 width="216px" height="144px" viewBox="0 0 216 144" style="enable-background:new 0 0 216 144;" xml:space="preserve">
<g>
	
		<line style="fill:none;stroke:#0E0E0E;stroke-width:0;stroke-linecap:square;stroke-miterlimit:10;" x1="86.908" y1="81.545" x2="119.257" y2="81.545"/>
	
		<line style="fill:none;stroke:#0E0E0E;stroke-width:0;stroke-linecap:square;stroke-miterlimit:10;" x1="86.908" y1="81.545" x2="69.939" y2="114.424"/>
	
		<line style="fill:none;stroke:#0E0E0E;stroke-width:0.5303;stroke-linecap:square;stroke-miterlimit:10;" x1="94.862" y1="47.076" x2="69.939" y2="114.424"/>
	
		<line style="fill:none;stroke:#0E0E0E;stroke-width:0.5303;stroke-linecap:square;stroke-miterlimit:10;" x1="94.862" y1="47.076" x2="119.257" y2="81.545"/>
	
		<line style="fill:none;stroke:#0E0E0E;stroke-width:0;stroke-linecap:square;stroke-miterlimit:10;" x1="1" y1="7.833" x2="216.301" y2="97.454"/>
	
		<line style="fill:none;stroke:#0E0E0E;stroke-width:0.5303;stroke-linecap:square;stroke-miterlimit:10;" x1="94.862" y1="47.076" x2="103.347" y2="114.424"/>
	
		<line style="fill:none;stroke:#0E0E0E;stroke-width:0.5303;stroke-linecap:square;stroke-miterlimit:10;" x1="119.257" y1="81.545" x2="103.347" y2="114.424"/>
	
		<line style="fill:none;stroke:#0E0E0E;stroke-width:1.5909;stroke-linecap:square;stroke-miterlimit:10;" x1="111.302" y1="97.454" x2="216.301" y2="97.454"/>
	
		<line style="fill:none;stroke:#0E0E0E;stroke-width:0;stroke-linecap:square;stroke-miterlimit:10;" x1="94.862" y1="47.076" x2="94.862" y2="97.984"/>
	
		<line style="fill:none;stroke:#0E0E0E;stroke-width:0;stroke-linecap:square;stroke-miterlimit:10;" x1="111.302" y1="97.454" x2="94.862" y2="97.984"/>
	
		<line style="fill:none;stroke:#0E0E0E;stroke-width:0.5303;stroke-linecap:square;stroke-miterlimit:10;" x1="69.939" y1="114.424" x2="103.347" y2="114.424"/>
	
		<line style="fill:none;stroke:#0E0E0E;stroke-width:0;stroke-linecap:square;stroke-miterlimit:10;" x1="94.862" y1="47.076" x2="86.908" y2="81.545"/>
	<g>
		<defs>
			<polygon id="SVGID_1_" points="132.514,88.438 190.846,88.438 190.846,97.984 132.514,97.984 132.514,88.438 			"/>
		</defs>
		<clipPath id="SVGID_2_">
			<use xlink:href="#SVGID_1_"  style="overflow:visible;"/>
		</clipPath>
		<g style="clip-path:url(#SVGID_2_);">
			<path d="M133.004,94.833v-4.556h1.718c0.303,0,0.533,0.015,0.693,0.044c0.224,0.037,0.411,0.108,0.562,0.213
				c0.15,0.104,0.272,0.251,0.365,0.439c0.092,0.188,0.138,0.396,0.138,0.622c0,0.387-0.123,0.715-0.37,0.983
				c-0.246,0.268-0.691,0.402-1.336,0.402h-1.168v1.852H133.004z M133.606,92.443h1.178c0.39,0,0.666-0.072,0.829-0.218
				c0.164-0.145,0.246-0.349,0.246-0.611c0-0.19-0.049-0.354-0.145-0.489c-0.097-0.136-0.224-0.226-0.381-0.27
				c-0.102-0.026-0.289-0.04-0.562-0.04h-1.165V92.443z"/>
			<path d="M137.151,96.104l-0.062-0.524c0.123,0.033,0.229,0.05,0.32,0.05c0.124,0,0.224-0.021,0.299-0.062
				c0.074-0.042,0.136-0.1,0.183-0.174c0.035-0.057,0.093-0.195,0.171-0.417c0.011-0.03,0.027-0.076,0.05-0.137l-1.252-3.306h0.603
				l0.687,1.911c0.09,0.242,0.169,0.497,0.239,0.764c0.064-0.257,0.142-0.507,0.23-0.752l0.705-1.923h0.56l-1.256,3.355
				c-0.134,0.362-0.239,0.612-0.313,0.749c-0.1,0.185-0.213,0.319-0.342,0.405c-0.128,0.086-0.281,0.129-0.46,0.129
				C137.404,96.172,137.284,96.149,137.151,96.104z"/>
			<path d="M140.352,94.833v-3.3h0.504v0.5c0.128-0.233,0.247-0.389,0.355-0.463s0.229-0.111,0.358-0.111
				c0.188,0,0.381,0.06,0.575,0.18l-0.192,0.519c-0.137-0.08-0.273-0.121-0.41-0.121c-0.122,0-0.232,0.037-0.329,0.11
				c-0.098,0.074-0.167,0.176-0.209,0.307c-0.062,0.198-0.093,0.416-0.093,0.652v1.728H140.352z"/>
			<path d="M144.63,94.426c-0.207,0.177-0.406,0.301-0.598,0.373s-0.397,0.108-0.617,0.108c-0.362,0-0.641-0.088-0.835-0.266
				c-0.195-0.177-0.293-0.403-0.293-0.679c0-0.161,0.037-0.309,0.11-0.442c0.074-0.134,0.17-0.241,0.289-0.322
				c0.119-0.08,0.254-0.142,0.402-0.183c0.11-0.029,0.275-0.058,0.497-0.084c0.452-0.054,0.784-0.118,0.998-0.193
				c0.002-0.076,0.003-0.125,0.003-0.146c0-0.228-0.053-0.389-0.158-0.481c-0.144-0.127-0.355-0.189-0.638-0.189
				c-0.263,0-0.457,0.046-0.582,0.138c-0.126,0.093-0.218,0.256-0.278,0.489l-0.547-0.074c0.05-0.234,0.132-0.423,0.245-0.567
				c0.114-0.144,0.279-0.255,0.494-0.332c0.216-0.078,0.466-0.116,0.749-0.116c0.282,0,0.511,0.033,0.687,0.099
				c0.177,0.066,0.306,0.15,0.389,0.251c0.083,0.1,0.141,0.227,0.174,0.38c0.019,0.096,0.028,0.268,0.028,0.516v0.746
				c0,0.521,0.012,0.849,0.035,0.986c0.024,0.138,0.071,0.271,0.142,0.396h-0.584C144.685,94.717,144.646,94.581,144.63,94.426z
				 M144.584,93.177c-0.203,0.083-0.508,0.153-0.914,0.211c-0.229,0.033-0.393,0.071-0.487,0.112
				c-0.096,0.041-0.169,0.103-0.221,0.182c-0.052,0.08-0.078,0.169-0.078,0.266c0,0.149,0.057,0.273,0.17,0.373
				c0.112,0.1,0.278,0.149,0.495,0.149c0.216,0,0.407-0.047,0.575-0.142s0.291-0.224,0.37-0.387c0.06-0.127,0.09-0.312,0.09-0.56
				V93.177z"/>
			<path d="M146.188,94.833v-3.3h0.5v0.463c0.104-0.161,0.241-0.292,0.413-0.39c0.172-0.099,0.367-0.147,0.587-0.147
				c0.245,0,0.445,0.051,0.602,0.151c0.156,0.102,0.267,0.244,0.331,0.426c0.261-0.385,0.601-0.577,1.019-0.577
				c0.328,0,0.579,0.09,0.756,0.271c0.176,0.182,0.264,0.46,0.264,0.837v2.266h-0.556v-2.079c0-0.224-0.019-0.385-0.055-0.482
				c-0.036-0.099-0.103-0.178-0.197-0.238c-0.096-0.06-0.207-0.09-0.336-0.09c-0.231,0-0.425,0.077-0.578,0.231
				s-0.229,0.401-0.229,0.741v1.917h-0.56v-2.144c0-0.249-0.045-0.436-0.137-0.56c-0.091-0.124-0.24-0.187-0.447-0.187
				c-0.157,0-0.303,0.041-0.437,0.124s-0.23,0.204-0.29,0.363c-0.061,0.16-0.091,0.39-0.091,0.69v1.712H146.188z"/>
			<path d="M151.492,90.921v-0.644h0.559v0.644H151.492z M151.492,94.833v-3.3h0.559v3.3H151.492z"/>
			<path d="M155.75,94.833v-0.416c-0.209,0.327-0.517,0.49-0.923,0.49c-0.264,0-0.505-0.072-0.726-0.217
				c-0.221-0.146-0.392-0.348-0.513-0.607c-0.121-0.261-0.182-0.56-0.182-0.896c0-0.33,0.055-0.629,0.164-0.896
				c0.11-0.269,0.274-0.475,0.494-0.617s0.465-0.214,0.736-0.214c0.199,0,0.376,0.042,0.531,0.125
				c0.156,0.084,0.282,0.193,0.38,0.328v-1.635h0.556v4.556H155.75z M153.981,93.187c0,0.422,0.09,0.738,0.268,0.947
				s0.389,0.313,0.631,0.313c0.244,0,0.452-0.1,0.623-0.3c0.171-0.199,0.256-0.505,0.256-0.915c0-0.451-0.087-0.782-0.261-0.994
				c-0.174-0.211-0.389-0.316-0.644-0.316c-0.248,0-0.456,0.102-0.623,0.304C154.065,92.429,153.981,92.749,153.981,93.187z"/>
			<path d="M157.323,91.891l-0.144-0.852v-0.762h0.638v0.762l-0.149,0.852H157.323z"/>
			<path d="M158.158,93.848l0.554-0.087c0.031,0.222,0.117,0.392,0.259,0.51c0.143,0.118,0.341,0.177,0.596,0.177
				c0.257,0,0.447-0.052,0.571-0.156c0.125-0.104,0.187-0.228,0.187-0.368c0-0.127-0.055-0.226-0.164-0.299
				c-0.077-0.05-0.268-0.112-0.572-0.189c-0.41-0.104-0.694-0.193-0.853-0.269c-0.159-0.075-0.279-0.181-0.36-0.313
				c-0.082-0.134-0.123-0.281-0.123-0.443c0-0.146,0.033-0.283,0.101-0.408c0.067-0.126,0.159-0.229,0.275-0.312
				c0.087-0.064,0.205-0.118,0.355-0.163s0.312-0.066,0.483-0.066c0.259,0,0.486,0.037,0.682,0.111
				c0.196,0.074,0.341,0.176,0.434,0.303c0.094,0.128,0.157,0.298,0.192,0.512l-0.546,0.074c-0.025-0.17-0.098-0.303-0.217-0.397
				c-0.119-0.096-0.287-0.144-0.505-0.144c-0.257,0-0.439,0.043-0.55,0.128c-0.109,0.085-0.164,0.185-0.164,0.298
				c0,0.073,0.022,0.138,0.068,0.196c0.045,0.06,0.116,0.109,0.214,0.149c0.056,0.021,0.221,0.068,0.494,0.143
				c0.396,0.105,0.672,0.192,0.828,0.26s0.279,0.165,0.368,0.293c0.089,0.129,0.134,0.288,0.134,0.479
				c0,0.187-0.055,0.362-0.163,0.527c-0.109,0.164-0.266,0.292-0.471,0.382s-0.438,0.135-0.696,0.135
				c-0.429,0-0.756-0.089-0.98-0.267C158.364,94.462,158.221,94.198,158.158,93.848z"/>
			<path d="M162.93,93.848l0.554-0.087c0.031,0.222,0.117,0.392,0.259,0.51c0.143,0.118,0.341,0.177,0.596,0.177
				c0.257,0,0.447-0.052,0.571-0.156c0.125-0.104,0.187-0.228,0.187-0.368c0-0.127-0.055-0.226-0.164-0.299
				c-0.077-0.05-0.268-0.112-0.572-0.189c-0.41-0.104-0.694-0.193-0.853-0.269c-0.159-0.075-0.279-0.181-0.36-0.313
				c-0.082-0.134-0.123-0.281-0.123-0.443c0-0.146,0.033-0.283,0.101-0.408c0.067-0.126,0.159-0.229,0.275-0.312
				c0.087-0.064,0.205-0.118,0.355-0.163s0.312-0.066,0.483-0.066c0.259,0,0.486,0.037,0.682,0.111
				c0.196,0.074,0.341,0.176,0.434,0.303c0.094,0.128,0.157,0.298,0.192,0.512L165,92.459c-0.025-0.17-0.098-0.303-0.217-0.397
				c-0.119-0.096-0.287-0.144-0.505-0.144c-0.257,0-0.439,0.043-0.55,0.128c-0.109,0.085-0.164,0.185-0.164,0.298
				c0,0.073,0.022,0.138,0.068,0.196c0.045,0.06,0.116,0.109,0.214,0.149c0.056,0.021,0.221,0.068,0.494,0.143
				c0.396,0.105,0.672,0.192,0.828,0.26s0.279,0.165,0.368,0.293c0.089,0.129,0.134,0.288,0.134,0.479
				c0,0.187-0.055,0.362-0.163,0.527c-0.109,0.164-0.266,0.292-0.471,0.382s-0.438,0.135-0.696,0.135
				c-0.429,0-0.756-0.089-0.98-0.267C163.136,94.462,162.992,94.198,162.93,93.848z"/>
			<path d="M165.28,94.833v-4.556h0.559v1.635c0.262-0.303,0.591-0.453,0.988-0.453c0.244,0,0.457,0.048,0.637,0.145
				c0.181,0.096,0.31,0.229,0.387,0.398c0.078,0.17,0.117,0.417,0.117,0.74v2.091h-0.56v-2.091c0-0.28-0.061-0.483-0.182-0.611
				c-0.121-0.127-0.293-0.19-0.515-0.19c-0.165,0-0.321,0.043-0.468,0.129c-0.146,0.086-0.25,0.202-0.312,0.35
				c-0.062,0.146-0.094,0.35-0.094,0.608v1.806H165.28z"/>
			<path d="M171.671,94.426c-0.207,0.177-0.406,0.301-0.598,0.373s-0.397,0.108-0.617,0.108c-0.362,0-0.641-0.088-0.835-0.266
				c-0.195-0.177-0.293-0.403-0.293-0.679c0-0.161,0.037-0.309,0.11-0.442c0.074-0.134,0.17-0.241,0.289-0.322
				c0.119-0.08,0.254-0.142,0.402-0.183c0.11-0.029,0.275-0.058,0.497-0.084c0.452-0.054,0.784-0.118,0.998-0.193
				c0.002-0.076,0.003-0.125,0.003-0.146c0-0.228-0.053-0.389-0.158-0.481c-0.144-0.127-0.355-0.189-0.638-0.189
				c-0.263,0-0.457,0.046-0.582,0.138c-0.126,0.093-0.218,0.256-0.278,0.489l-0.547-0.074c0.05-0.234,0.132-0.423,0.245-0.567
				c0.114-0.144,0.279-0.255,0.494-0.332c0.216-0.078,0.466-0.116,0.749-0.116c0.282,0,0.511,0.033,0.687,0.099
				c0.177,0.066,0.306,0.15,0.389,0.251c0.083,0.1,0.141,0.227,0.174,0.38c0.019,0.096,0.028,0.268,0.028,0.516v0.746
				c0,0.521,0.012,0.849,0.035,0.986c0.024,0.138,0.071,0.271,0.142,0.396h-0.584C171.726,94.717,171.688,94.581,171.671,94.426z
				 M171.625,93.177c-0.203,0.083-0.508,0.153-0.914,0.211c-0.229,0.033-0.393,0.071-0.487,0.112
				c-0.096,0.041-0.169,0.103-0.221,0.182c-0.052,0.08-0.078,0.169-0.078,0.266c0,0.149,0.057,0.273,0.17,0.373
				c0.112,0.1,0.278,0.149,0.495,0.149c0.216,0,0.407-0.047,0.575-0.142s0.291-0.224,0.37-0.387c0.06-0.127,0.09-0.312,0.09-0.56
				V93.177z"/>
			<path d="M175.37,94.833v-0.416c-0.209,0.327-0.517,0.49-0.923,0.49c-0.264,0-0.505-0.072-0.726-0.217
				c-0.221-0.146-0.392-0.348-0.513-0.607c-0.121-0.261-0.182-0.56-0.182-0.896c0-0.33,0.055-0.629,0.164-0.896
				c0.11-0.269,0.274-0.475,0.494-0.617s0.465-0.214,0.736-0.214c0.199,0,0.376,0.042,0.531,0.125
				c0.156,0.084,0.282,0.193,0.38,0.328v-1.635h0.556v4.556H175.37z M173.602,93.187c0,0.422,0.09,0.738,0.268,0.947
				s0.389,0.313,0.631,0.313c0.244,0,0.452-0.1,0.623-0.3c0.171-0.199,0.256-0.505,0.256-0.915c0-0.451-0.087-0.782-0.261-0.994
				c-0.174-0.211-0.389-0.316-0.644-0.316c-0.248,0-0.456,0.102-0.623,0.304C173.686,92.429,173.602,92.749,173.602,93.187z"/>
			<path d="M176.731,93.183c0-0.61,0.17-1.063,0.51-1.357c0.284-0.244,0.63-0.366,1.038-0.366c0.453,0,0.824,0.148,1.112,0.445
				c0.288,0.298,0.432,0.708,0.432,1.232c0,0.425-0.063,0.759-0.19,1.002c-0.128,0.243-0.313,0.433-0.557,0.567
				c-0.243,0.134-0.509,0.201-0.797,0.201c-0.462,0-0.836-0.147-1.12-0.444C176.874,94.167,176.731,93.74,176.731,93.183z
				 M177.307,93.183c0,0.423,0.092,0.739,0.276,0.95c0.185,0.21,0.417,0.314,0.696,0.314c0.277,0,0.509-0.105,0.692-0.316
				c0.185-0.211,0.277-0.533,0.277-0.967c0-0.407-0.093-0.717-0.278-0.927c-0.186-0.211-0.416-0.315-0.691-0.315
				c-0.279,0-0.512,0.104-0.696,0.313S177.307,92.761,177.307,93.183z"/>
			<path d="M181.26,94.833l-1.01-3.3h0.578l0.525,1.904l0.195,0.709c0.009-0.035,0.065-0.262,0.171-0.681l0.525-1.933h0.574
				l0.494,1.914l0.165,0.631l0.189-0.637l0.565-1.908h0.544l-1.031,3.3h-0.581l-0.525-1.977l-0.128-0.562l-0.668,2.539H181.26z"/>
		</g>
	</g>
	<g>
		<defs>
			<polygon id="SVGID_3_" points="15.848,2 46.606,2 46.606,11.545 15.848,11.545 15.848,2 			"/>
		</defs>
		<clipPath id="SVGID_4_">
			<use xlink:href="#SVGID_3_"  style="overflow:visible;"/>
		</clipPath>
		<g style="clip-path:url(#SVGID_4_);">
			<path d="M16.044,7.413l0.553-0.087c0.031,0.222,0.117,0.391,0.259,0.509c0.142,0.118,0.34,0.177,0.595,0.177
				c0.257,0,0.447-0.052,0.571-0.157c0.125-0.105,0.187-0.228,0.187-0.369c0-0.126-0.055-0.226-0.165-0.298
				c-0.077-0.05-0.267-0.113-0.572-0.19c-0.41-0.104-0.694-0.193-0.853-0.269c-0.158-0.076-0.278-0.18-0.36-0.314
				c-0.082-0.133-0.123-0.281-0.123-0.443c0-0.147,0.034-0.283,0.101-0.408c0.067-0.125,0.159-0.229,0.275-0.312
				c0.087-0.064,0.206-0.119,0.355-0.163c0.15-0.044,0.312-0.067,0.483-0.067c0.259,0,0.486,0.038,0.682,0.112
				c0.196,0.075,0.34,0.176,0.433,0.303c0.093,0.127,0.158,0.298,0.193,0.511l-0.547,0.075c-0.025-0.17-0.097-0.302-0.216-0.397
				s-0.288-0.143-0.505-0.143c-0.257,0-0.44,0.042-0.55,0.127s-0.165,0.184-0.165,0.298c0,0.072,0.023,0.138,0.068,0.196
				c0.045,0.06,0.117,0.11,0.214,0.149c0.056,0.021,0.221,0.068,0.494,0.143c0.396,0.105,0.671,0.192,0.828,0.259
				c0.156,0.067,0.279,0.166,0.368,0.294c0.089,0.128,0.134,0.288,0.134,0.479c0,0.186-0.055,0.362-0.164,0.526
				c-0.108,0.165-0.266,0.292-0.471,0.382c-0.205,0.09-0.437,0.135-0.696,0.135c-0.429,0-0.755-0.089-0.98-0.268
				C16.25,8.027,16.106,7.763,16.044,7.413z"/>
			<path d="M21.084,8.397V7.913c-0.257,0.373-0.606,0.56-1.047,0.56c-0.195,0-0.376-0.038-0.545-0.112
				c-0.169-0.075-0.294-0.168-0.376-0.281c-0.082-0.113-0.14-0.251-0.172-0.415c-0.023-0.11-0.034-0.284-0.034-0.522V5.098h0.559
				v1.83c0,0.292,0.011,0.489,0.034,0.59c0.035,0.147,0.11,0.263,0.224,0.347c0.114,0.083,0.255,0.125,0.423,0.125
				c0.167,0,0.325-0.043,0.472-0.129s0.251-0.203,0.312-0.351c0.062-0.148,0.092-0.363,0.092-0.645V5.098h0.56v3.3H21.084z"/>
			<path d="M22.632,8.397v-3.3h0.503v0.469c0.242-0.363,0.592-0.544,1.05-0.544c0.199,0,0.381,0.036,0.548,0.107
				c0.167,0.071,0.292,0.165,0.375,0.281c0.083,0.116,0.141,0.253,0.174,0.413c0.021,0.104,0.031,0.285,0.031,0.544v2.029h-0.56
				V6.39c0-0.228-0.021-0.398-0.065-0.511c-0.043-0.113-0.121-0.203-0.231-0.27s-0.241-0.101-0.39-0.101
				c-0.238,0-0.444,0.076-0.617,0.227c-0.173,0.151-0.259,0.438-0.259,0.861v1.802H22.632z"/>
			<path d="M26.346,5.455l-0.143-0.852V3.842h0.637v0.761l-0.149,0.852H26.346z"/>
			<path d="M27.182,7.413l0.553-0.087c0.031,0.222,0.117,0.391,0.259,0.509c0.142,0.118,0.34,0.177,0.595,0.177
				c0.257,0,0.447-0.052,0.571-0.157c0.125-0.105,0.187-0.228,0.187-0.369c0-0.126-0.055-0.226-0.165-0.298
				c-0.077-0.05-0.267-0.113-0.572-0.19c-0.41-0.104-0.694-0.193-0.853-0.269c-0.158-0.076-0.278-0.18-0.36-0.314
				c-0.082-0.133-0.123-0.281-0.123-0.443c0-0.147,0.034-0.283,0.101-0.408c0.067-0.125,0.159-0.229,0.275-0.312
				c0.087-0.064,0.206-0.119,0.355-0.163c0.15-0.044,0.312-0.067,0.483-0.067c0.259,0,0.486,0.038,0.682,0.112
				c0.196,0.075,0.34,0.176,0.433,0.303c0.093,0.127,0.158,0.298,0.193,0.511l-0.547,0.075c-0.025-0.17-0.097-0.302-0.216-0.397
				s-0.288-0.143-0.505-0.143c-0.257,0-0.44,0.042-0.55,0.127s-0.165,0.184-0.165,0.298c0,0.072,0.023,0.138,0.068,0.196
				c0.045,0.06,0.117,0.11,0.214,0.149c0.056,0.021,0.221,0.068,0.494,0.143c0.396,0.105,0.671,0.192,0.828,0.259
				c0.156,0.067,0.279,0.166,0.368,0.294c0.089,0.128,0.134,0.288,0.134,0.479c0,0.186-0.055,0.362-0.164,0.526
				c-0.108,0.165-0.266,0.292-0.471,0.382c-0.205,0.09-0.437,0.135-0.696,0.135c-0.429,0-0.755-0.089-0.98-0.268
				C27.388,8.027,27.244,7.763,27.182,7.413z"/>
			<path d="M32.171,8.397v-3.3h0.503v0.5c0.128-0.234,0.247-0.388,0.356-0.463c0.109-0.074,0.229-0.112,0.359-0.112
				c0.188,0,0.38,0.06,0.575,0.18l-0.192,0.519c-0.137-0.081-0.273-0.121-0.41-0.121c-0.123,0-0.232,0.037-0.33,0.11
				c-0.097,0.073-0.167,0.175-0.208,0.306C32.761,6.216,32.73,6.434,32.73,6.67v1.728H32.171z"/>
			<path d="M35.921,7.99c-0.207,0.176-0.407,0.301-0.598,0.373s-0.397,0.109-0.617,0.109c-0.363,0-0.641-0.089-0.836-0.266
				c-0.195-0.177-0.292-0.404-0.292-0.679c0-0.162,0.037-0.309,0.11-0.443c0.073-0.133,0.17-0.241,0.289-0.321
				c0.119-0.081,0.253-0.142,0.402-0.184c0.11-0.029,0.275-0.057,0.497-0.084c0.452-0.054,0.784-0.118,0.998-0.192
				c0.002-0.077,0.003-0.125,0.003-0.146c0-0.228-0.053-0.389-0.159-0.482c-0.143-0.126-0.355-0.189-0.637-0.189
				c-0.263,0-0.458,0.046-0.583,0.138c-0.125,0.092-0.218,0.255-0.278,0.49l-0.547-0.075c0.05-0.234,0.132-0.423,0.246-0.567
				s0.278-0.255,0.494-0.333c0.215-0.078,0.465-0.117,0.749-0.117c0.282,0,0.511,0.033,0.687,0.1
				c0.176,0.066,0.305,0.149,0.388,0.25s0.141,0.228,0.174,0.381c0.019,0.095,0.028,0.267,0.028,0.516v0.746
				c0,0.52,0.012,0.849,0.036,0.987s0.071,0.27,0.141,0.396h-0.584C35.975,8.281,35.938,8.146,35.921,7.99z M35.875,6.741
				c-0.203,0.083-0.508,0.153-0.914,0.211c-0.23,0.033-0.393,0.07-0.488,0.112c-0.096,0.042-0.169,0.102-0.221,0.182
				c-0.052,0.08-0.078,0.168-0.078,0.266c0,0.149,0.056,0.273,0.169,0.373c0.113,0.1,0.278,0.149,0.495,0.149
				c0.216,0,0.407-0.047,0.575-0.141c0.167-0.094,0.291-0.223,0.37-0.387c0.06-0.126,0.09-0.313,0.09-0.56V6.741z"/>
			<path d="M37.454,9.668l-0.062-0.525c0.122,0.033,0.229,0.05,0.32,0.05c0.125,0,0.224-0.021,0.298-0.062
				c0.075-0.042,0.136-0.1,0.184-0.174c0.035-0.056,0.092-0.194,0.171-0.416c0.01-0.031,0.027-0.077,0.049-0.137l-1.252-3.306h0.603
				l0.687,1.911c0.089,0.243,0.169,0.498,0.239,0.765c0.064-0.257,0.141-0.507,0.23-0.752l0.705-1.923h0.56L38.93,8.454
				c-0.135,0.362-0.239,0.612-0.314,0.749c-0.1,0.185-0.213,0.32-0.342,0.406s-0.282,0.129-0.46,0.129
				C37.707,9.737,37.587,9.714,37.454,9.668z"/>
		</g>
	</g>
</g>
</svg>
