<?xml version="1.0" encoding="iso-8859-1"?>
<!-- Generator: Adobe Illustrator 15.1.0, SVG Export Plug-In . SVG Version: 6.00 Build 0)  -->
<!DOCTYPE svg PUBLIC "-//W3C//DTD SVG 1.1//EN" "http://www.w3.org/Graphics/SVG/1.1/DTD/svg11.dtd">
<svg version="1.1" id="Layer_1" xmlns="http://www.w3.org/2000/svg" xmlns:xlink="http://www.w3.org/1999/xlink" x="0px" y="0px"
	 width="612px" height="792px" viewBox="0 0 612 792" style="enable-background:new 0 0 612 792;" xml:space="preserve">
<style type="text/css">
<![CDATA[
]]>
</style>
<text transform="matrix(1 0 0 1 127.167 295)" style="stroke:#000000;stroke-miterlimit:10; font-family:'Garamond'; font-size:12;">2</text>
<text transform="matrix(1 0 0 1 127.167 336.5)" style="stroke:#000000;stroke-miterlimit:10;stroke-dasharray:12,12,12,12,12,12; font-family:'Garamond'; font-size:12;">2</text>
<line style="fill:none;stroke:#000000;stroke-miterlimit:10;stroke-dasharray:12,12,12,12,12,12;" x1="139.833" y1="333" x2="176.833" y2="333"/>
<line style="fill:none;stroke:#000000;stroke-miterlimit:10;stroke-dasharray:12,12,12,12,12,12;" x1="121.833" y1="333" x2="86.833" y2="333"/>
<line style="fill:none;stroke:#000000;stroke-miterlimit:10;stroke-dasharray:12,12,12,12,12,12;" x1="128.833" y1="317" x2="128.833" y2="295"/>
<line style="fill:none;stroke:#000000;stroke-miterlimit:10;" x1="128.833" y1="278" x2="128.833" y2="260"/>
<line style="fill:none;stroke:#000000;stroke-miterlimit:10;" x1="86.833" y1="333" x2="128.833" y2="260"/>
<line style="fill:none;stroke:#000000;stroke-miterlimit:10;" x1="176.833" y1="333" x2="128.833" y2="260"/>
<line style="fill:none;stroke:#000000;stroke-miterlimit:10;stroke-dasharray:12,12,12,12,12,12;" x1="339.25" y1="334.583" x2="394.75" y2="334.583"/>
<line style="fill:none;stroke:#000000;stroke-miterlimit:10;stroke-dasharray:12,12,12,12,12,12;" x1="312.25" y1="334.583" x2="259.75" y2="334.583"/>
<line style="fill:none;stroke:#000000;stroke-miterlimit:10;stroke-dasharray:12,12,12,12,12,12;" x1="322.75" y1="321.958" x2="322.75" y2="288.958"/>
<line style="fill:none;stroke:#000000;stroke-miterlimit:10;stroke-dasharray:12,12,12,12,12,12;" x1="322.75" y1="263.958" x2="322.75" y2="225.083"/>
<line style="fill:none;stroke:#000000;stroke-miterlimit:10;" x1="259.75" y1="334.583" x2="322.75" y2="225.083"/>
<line style="fill:none;stroke:#000000;stroke-miterlimit:10;" x1="394.75" y1="334.583" x2="322.75" y2="225.083"/>
<text transform="matrix(1 0 0 1 315.917 279.833)" style="font-family:'Garamond'; font-size:12;">2.5</text>
<text transform="matrix(1 0 0 1 320.583 336.916)" style="font-family:'Garamond'; font-size:12;">3</text>
</svg>
