<?xml version="1.0" encoding="iso-8859-1"?>
<!-- Generator: Adobe Illustrator 15.1.0, SVG Export Plug-In . SVG Version: 6.00 Build 0)  -->
<!DOCTYPE svg PUBLIC "-//W3C//DTD SVG 1.1//EN" "http://www.w3.org/Graphics/SVG/1.1/DTD/svg11.dtd">
<svg version="1.1" id="Layer_1" xmlns="http://www.w3.org/2000/svg" xmlns:xlink="http://www.w3.org/1999/xlink" x="0px" y="0px"
	 width="216px" height="144px" viewBox="0 0 216 144" style="enable-background:new 0 0 216 144;" xml:space="preserve">
<style type="text/css">
<![CDATA[
]]>
</style>
<g>
	<polyline style="fill:none;stroke:#4C4C4C;stroke-width:1.1429;stroke-linecap:square;stroke-miterlimit:10;" points="
		166.571,78.143 166.571,81.571 165.429,83.857 165.429,87.286 164.286,90.715 164.286,93 163.143,96.429 162,98.715 160.857,101 
		159.714,104.429 158.571,107.857 157.429,110.143 155.143,112.429 152.857,114.715 151.714,117 149.429,119.286 147.143,121.571 
		144.857,123.857 142.571,126.143 140.286,127.286 136.857,128.429 134.571,130.715 132.286,131.857 128.857,133 126.571,134.143 
		123.143,135.286 120.857,136.429 117.429,136.429 115.143,137.571 111.714,137.571 108.286,137.571 106,137.571 102.571,137.571 
		99.143,137.571 96.857,137.571 93.429,136.429 90,135.286 87.714,135.286 84.286,134.143 82,133 78.571,130.715 76.286,129.571 
		74,128.429 71.714,126.143 69.429,123.857 67.143,122.715 64.857,120.429 62.571,118.143 60.286,115.857 59.143,113.571 
		56.857,111.286 54.571,107.857 53.429,105.571 52.286,103.286 51.143,99.857 50,97.571 48.857,94.143 47.714,91.857 47.714,88.429 
		47.714,86.143 46.571,82.715 46.571,79.286 46.571,77 46.571,73.571 47.714,70.143 47.714,67.857 47.714,64.429 48.857,61 
		50,58.714 51.143,56.429 52.286,53 53.429,49.572 54.571,47.286 56.857,45 59.143,42.714 60.286,40.429 62.571,38.143 
		64.857,35.857 67.143,33.572 69.429,32.429 71.714,30.143 74,27.857 76.286,26.714 78.571,25.572 82,23.286 84.286,22.143 
		87.714,21 90,21 93.429,19.857 96.857,18.714 99.143,18.714 102.571,18.714 106,18.714 108.286,18.714 111.714,18.714 
		115.143,18.714 117.429,19.857 120.857,19.857 123.143,21 126.571,22.143 128.857,23.286 132.286,24.429 134.571,25.572 
		136.857,27.857 140.286,29 142.571,30.143 144.857,32.429 147.143,34.714 149.429,37 151.714,39.286 152.857,41.572 
		155.143,43.857 157.429,46.143 158.571,48.429 159.714,51.857 160.857,54.143 162,56.429 163.143,59.857 164.286,63.286 
		164.286,65.572 165.429,69 165.429,72.429 166.571,74.715 166.571,78.143 	"/>
	
		<line style="fill:none;stroke:#0E0E0E;stroke-width:1.1429;stroke-linecap:square;stroke-miterlimit:10;" x1="109.429" y1="18.714" x2="106" y2="78.143"/>
	
		<line style="fill:none;stroke:#0E0E0E;stroke-width:1.1429;stroke-linecap:square;stroke-miterlimit:10;" x1="151.714" y1="39.286" x2="106" y2="78.143"/>
	
		<path style="fill-rule:evenodd;clip-rule:evenodd;fill:#4D4D4D;stroke:#000000;stroke-width:0;stroke-linecap:square;stroke-miterlimit:10;" d="
		M104.857,78.715c0-0.953,1.016-1.715,2.286-1.715c1.271,0,2.286,0.762,2.286,1.715c0,0.952-1.016,1.714-2.286,1.714
		C105.873,80.429,104.857,79.667,104.857,78.715L104.857,78.715z"/>
	<g>
		<defs>
			<polygon id="SVGID_1_" points="99.143,81.571 108.286,81.571 108.286,93 99.143,93 99.143,81.571 			"/>
		</defs>
		<clipPath id="SVGID_2_">
			<use xlink:href="#SVGID_1_"  style="overflow:visible;"/>
		</clipPath>
		<g style="clip-path:url(#SVGID_2_);">
			<text transform="matrix(1 0 0 1 99.1406 90.7646)" style="font-family:'ArialMT'; font-size:9.1429;">C</text>
		</g>
	</g>
	
		<path style="fill-rule:evenodd;clip-rule:evenodd;fill:#4D4D4D;stroke:#000000;stroke-width:0;stroke-linecap:square;stroke-miterlimit:10;" d="
		M108.286,18.714c0-1.27,0.762-2.286,1.714-2.286s1.714,1.016,1.714,2.286S110.952,21,110,21S108.286,19.984,108.286,18.714
		L108.286,18.714z"/>
	<g>
		<defs>
			<polygon id="SVGID_3_" points="108.286,5 117.429,5 117.429,16.429 108.286,16.429 108.286,5 			"/>
		</defs>
		<clipPath id="SVGID_4_">
			<use xlink:href="#SVGID_3_"  style="overflow:visible;"/>
		</clipPath>
		<g style="clip-path:url(#SVGID_4_);">
			<text transform="matrix(1 0 0 1 108.2891 14.1943)" style="font-family:'ArialMT'; font-size:9.1429;">A</text>
		</g>
	</g>
	
		<path style="fill-rule:evenodd;clip-rule:evenodd;fill:#4D4D4D;stroke:#000000;stroke-width:0;stroke-linecap:square;stroke-miterlimit:10;" d="
		M150.571,39.857c0-0.953,0.762-1.714,1.715-1.714c0.952,0,1.714,0.762,1.714,1.714c0,0.952-0.762,1.714-1.714,1.714
		C151.333,41.572,150.571,40.81,150.571,39.857L150.571,39.857z"/>
	<g>
		<defs>
			<polygon id="SVGID_5_" points="156.286,31.286 164.286,31.286 164.286,42.714 156.286,42.714 156.286,31.286 			"/>
		</defs>
		<clipPath id="SVGID_6_">
			<use xlink:href="#SVGID_5_"  style="overflow:visible;"/>
		</clipPath>
		<g style="clip-path:url(#SVGID_6_);">
			<text transform="matrix(1 0 0 1 156.2891 40.4834)" style="font-family:'ArialMT'; font-size:9.1429;">B</text>
		</g>
	</g>
</g>
</svg>
