<?xml version="1.0" encoding="iso-8859-1"?>
<!-- Generator: Adobe Illustrator 15.1.0, SVG Export Plug-In . SVG Version: 6.00 Build 0)  -->
<!DOCTYPE svg PUBLIC "-//W3C//DTD SVG 1.1//EN" "http://www.w3.org/Graphics/SVG/1.1/DTD/svg11.dtd">
<svg version="1.1" id="Layer_1" xmlns="http://www.w3.org/2000/svg" xmlns:xlink="http://www.w3.org/1999/xlink" x="0px" y="0px"
	 width="216px" height="144px" viewBox="0 0 216 144" style="enable-background:new 0 0 216 144;" xml:space="preserve">
<style type="text/css">
<![CDATA[
]]>
</style>
<g>
	
		<line style="fill:none;stroke:#0E0E0E;stroke-width:0.7152;stroke-linecap:square;stroke-miterlimit:10;" x1="129.385" y1="36.879" x2="42.126" y2="114.125"/>
	<g>
		<defs>
			<polygon id="SVGID_1_" points="-100.207,-14.619 -100.207,-14.619 -100.207,-14.619 -100.207,-14.619 -100.207,-14.619 			"/>
		</defs>
		<defs>
			<polygon id="SVGID_2_" points="80.034,63.343 87.186,63.343 87.186,74.071 80.034,74.071 80.034,63.343 			"/>
		</defs>
		<clipPath id="SVGID_3_">
			<use xlink:href="#SVGID_1_"  style="overflow:visible;"/>
		</clipPath>
		<clipPath id="SVGID_4_" style="clip-path:url(#SVGID_3_);">
			<use xlink:href="#SVGID_2_"  style="overflow:visible;"/>
		</clipPath>
		<g style="clip-path:url(#SVGID_4_);">
			<text transform="matrix(1 0 0 1 80.0337 71.978)" style="font-family:'ArialMT'; font-size:8.5829;">b</text>
		</g>
	</g>
	
		<line style="fill:none;stroke:#0E0E0E;stroke-width:0.7152;stroke-linecap:square;stroke-miterlimit:10;" x1="129.385" y1="36.879" x2="176.591" y2="91.237"/>
	<g>
		<defs>
			<polygon id="SVGID_5_" points="-100.207,-14.619 -100.207,-14.619 -100.207,-14.619 -100.207,-14.619 -100.207,-14.619 			"/>
		</defs>
		<defs>
			<polygon id="SVGID_6_" points="150.127,48.323 157.279,48.323 157.279,59.767 150.127,59.767 150.127,48.323 			"/>
		</defs>
		<clipPath id="SVGID_7_">
			<use xlink:href="#SVGID_5_"  style="overflow:visible;"/>
		</clipPath>
		<clipPath id="SVGID_8_" style="clip-path:url(#SVGID_7_);">
			<use xlink:href="#SVGID_6_"  style="overflow:visible;"/>
		</clipPath>
		<g style="clip-path:url(#SVGID_8_);">
			<text transform="matrix(1 0 0 1 150.127 56.9507)" style="font-family:'ArialMT'; font-size:8.5829;">a</text>
		</g>
	</g>
	
		<line style="fill:none;stroke:#0E0E0E;stroke-width:0.7152;stroke-linecap:square;stroke-miterlimit:10;" x1="176.591" y1="91.237" x2="42.126" y2="114.125"/>
	<g>
		<defs>
			<polygon id="SVGID_9_" points="-100.207,-14.619 -100.207,-14.619 -100.207,-14.619 -100.207,-14.619 -100.207,-14.619 			"/>
		</defs>
		<defs>
			<polygon id="SVGID_10_" points="106.498,104.111 112.935,104.111 112.935,114.84 106.498,114.84 106.498,104.111 			"/>
		</defs>
		<clipPath id="SVGID_11_">
			<use xlink:href="#SVGID_9_"  style="overflow:visible;"/>
		</clipPath>
		<clipPath id="SVGID_12_" style="clip-path:url(#SVGID_11_);">
			<use xlink:href="#SVGID_10_"  style="overflow:visible;"/>
		</clipPath>
		<g style="clip-path:url(#SVGID_12_);">
			<text transform="matrix(1 0 0 1 106.4976 112.7393)" style="font-family:'ArialMT'; font-size:8.5829;">c</text>
		</g>
	</g>
	
		<path style="fill-rule:evenodd;clip-rule:evenodd;fill:#4D4D4D;stroke:#000000;stroke-width:0.25;stroke-linecap:square;stroke-miterlimit:10;" d="
		M40.695,114.482c0-0.994,0.795-1.788,1.788-1.788s1.788,0.794,1.788,1.788c0,0.993-0.795,1.788-1.788,1.788
		S40.695,115.476,40.695,114.482L40.695,114.482z"/>
	<g>
		<defs>
			<polygon id="SVGID_13_" points="36.404,115.555 43.556,115.555 43.556,126.283 36.404,126.283 36.404,115.555 			"/>
		</defs>
		<clipPath id="SVGID_14_">
			<use xlink:href="#SVGID_13_"  style="overflow:visible;"/>
		</clipPath>
		<g style="clip-path:url(#SVGID_14_);">
			<text transform="matrix(1 0 0 1 36.4038 124.1904)" style="font-family:'ArialMT'; font-size:8.5829;">A</text>
		</g>
	</g>
	
		<path style="fill-rule:evenodd;clip-rule:evenodd;fill:#4D4D4D;stroke:#000000;stroke-width:0.25;stroke-linecap:square;stroke-miterlimit:10;" d="
		M127.955,37.236c0-0.993,0.794-1.788,1.788-1.788c0.993,0,1.788,0.795,1.788,1.788s-0.795,1.788-1.788,1.788
		C128.749,39.024,127.955,38.229,127.955,37.236L127.955,37.236z"/>
	<g>
		<defs>
			<polygon id="SVGID_15_" points="126.524,24.004 135.107,24.004 135.107,34.733 126.524,34.733 126.524,24.004 			"/>
		</defs>
		<clipPath id="SVGID_16_">
			<use xlink:href="#SVGID_15_"  style="overflow:visible;"/>
		</clipPath>
		<g style="clip-path:url(#SVGID_16_);">
			<text transform="matrix(1 0 0 1 126.5244 32.6396)" style="font-family:'ArialMT'; font-size:8.5829;">C</text>
		</g>
	</g>
	
		<path style="fill-rule:evenodd;clip-rule:evenodd;fill:#4D4D4D;stroke:#000000;stroke-width:0.25;stroke-linecap:square;stroke-miterlimit:10;" d="
		M175.16,91.595c0-0.994,0.795-1.788,1.788-1.788c0.994,0,1.788,0.794,1.788,1.788c0,0.993-0.794,1.788-1.788,1.788
		C175.955,93.383,175.16,92.588,175.16,91.595L175.16,91.595z"/>
	<g>
		<defs>
			<polygon id="SVGID_17_" points="180.883,86.945 188.75,86.945 188.75,97.674 180.883,97.674 180.883,86.945 			"/>
		</defs>
		<clipPath id="SVGID_18_">
			<use xlink:href="#SVGID_17_"  style="overflow:visible;"/>
		</clipPath>
		<g style="clip-path:url(#SVGID_18_);">
			<text transform="matrix(1 0 0 1 180.8828 95.5811)" style="font-family:'ArialMT'; font-size:8.5829;">B</text>
		</g>
	</g>
</g>
</svg>
