<?xml version="1.0" encoding="iso-8859-1"?>
<!-- Generator: Adobe Illustrator 15.1.0, SVG Export Plug-In . SVG Version: 6.00 Build 0)  -->
<!DOCTYPE svg PUBLIC "-//W3C//DTD SVG 1.1//EN" "http://www.w3.org/Graphics/SVG/1.1/DTD/svg11.dtd">
<svg version="1.1" id="Layer_1" xmlns="http://www.w3.org/2000/svg" xmlns:xlink="http://www.w3.org/1999/xlink" x="0px" y="0px"
	 width="216px" height="144px" viewBox="0 0 216 144" style="enable-background:new 0 0 216 144;" xml:space="preserve">
<style type="text/css">
<![CDATA[
]]>
</style>
<g>
	
		<line style="fill:none;stroke:#0E0E0E;stroke-width:0.9505;stroke-linecap:square;stroke-miterlimit:10;" x1="32.919" y1="129.86" x2="143.177" y2="129.86"/>
	
		<line style="fill:none;stroke:#0E0E0E;stroke-width:0.9505;stroke-linecap:square;stroke-miterlimit:10;" x1="143.177" y1="7.246" x2="143.177" y2="129.86"/>
	
		<line style="fill:none;stroke:#0E0E0E;stroke-width:0.9505;stroke-linecap:square;stroke-miterlimit:10;" x1="143.177" y1="7.246" x2="32.919" y2="129.86"/>
	
		<line style="fill:none;stroke:#0E0E0E;stroke-width:0.9505;stroke-linecap:square;stroke-miterlimit:10;" x1="143.177" y1="7.246" x2="94.701" y2="129.86"/>
	<g>
		<defs>
			<polygon id="SVGID_1_" points="4.404,127.96 36.721,127.96 36.721,139.365 4.404,139.365 4.404,127.96 			"/>
		</defs>
		<clipPath id="SVGID_2_">
			<use xlink:href="#SVGID_1_"  style="overflow:visible;"/>
		</clipPath>
		<g style="clip-path:url(#SVGID_2_);">
			<text transform="matrix(1 0 0 1 4.397 135.6025)"><tspan x="0" y="0" style="font-family:'ArialMT'; font-size:7.604;">S</tspan><tspan x="4.76" y="0" style="font-family:'ArialMT'; font-size:7.604;">n</tspan><tspan x="8.563" y="0" style="font-family:'ArialMT'; font-size:7.604; letter-spacing:-1;">u</tspan><tspan x="11.416" y="0" style="font-family:'ArialMT'; font-size:7.604;">f</tspan><tspan x="13.323" y="0" style="font-family:'ArialMT'; font-size:7.604;">f</tspan><tspan x="16.173" y="0" style="font-family:'ArialMT'; font-size:7.604;">l</tspan><tspan x="18.068" y="0" style="font-family:'ArialMT'; font-size:7.604;">e</tspan><tspan x="21.871" y="0" style="font-family:'ArialMT'; font-size:7.604;">s</tspan></text>
		</g>
	</g>
	<g>
		<defs>
			<polygon id="SVGID_3_" points="58.583,131.761 72.84,131.761 72.84,143.167 58.583,143.167 58.583,131.761 			"/>
		</defs>
		<clipPath id="SVGID_4_">
			<use xlink:href="#SVGID_3_"  style="overflow:visible;"/>
		</clipPath>
		<g style="clip-path:url(#SVGID_4_);">
			<text transform="matrix(1 0 0 1 58.5767 139.4072)"><tspan x="0" y="0" style="font-family:'ArialMT'; font-size:7.604; letter-spacing:-1;">1</tspan><tspan x="2.853" y="0" style="font-family:'ArialMT'; font-size:7.604;">0</tspan></text>
		</g>
	</g>
	
		<path style="fill-rule:evenodd;clip-rule:evenodd;fill:#4D4D4D;stroke:#000000;stroke-width:0;stroke-linecap:square;stroke-miterlimit:10;" d="
		M31.969,130.335c0-0.791,0.633-1.426,1.425-1.426c0.792,0,1.426,0.635,1.426,1.426c0,0.792-0.634,1.426-1.426,1.426
		C32.602,131.761,31.969,131.127,31.969,130.335L31.969,130.335z"/>
	<g>
		<defs>
			<polygon id="SVGID_5_" points="37.672,122.256 47.177,122.256 47.177,131.761 37.672,131.761 37.672,122.256 			"/>
		</defs>
		<clipPath id="SVGID_6_">
			<use xlink:href="#SVGID_5_"  style="overflow:visible;"/>
		</clipPath>
		<g style="clip-path:url(#SVGID_6_);">
			<text transform="matrix(1 0 0 1 37.6665 129.9053)"><tspan x="0" y="0" style="font-family:'ArialMT'; font-size:7.604;">5</tspan><tspan x="3.803" y="0" style="font-family:'ArialMT'; font-size:7.604;">0</tspan></text>
		</g>
	</g>
	
		<path style="fill-rule:evenodd;clip-rule:evenodd;fill:#4D4D4D;stroke:#000000;stroke-width:0;stroke-linecap:square;stroke-miterlimit:10;" d="
		M142.226,130.335c0-0.791,0.634-1.426,1.427-1.426c0.792,0,1.426,0.635,1.426,1.426c0,0.792-0.634,1.426-1.426,1.426
		C142.859,131.761,142.226,131.127,142.226,130.335L142.226,130.335z"/>
	<g>
		<defs>
			<polygon id="SVGID_7_" points="147.93,125.107 212.563,125.107 212.563,134.612 147.93,134.612 147.93,125.107 			"/>
		</defs>
		<clipPath id="SVGID_8_">
			<use xlink:href="#SVGID_7_"  style="overflow:visible;"/>
		</clipPath>
		<g style="clip-path:url(#SVGID_8_);">
			<text transform="matrix(1 0 0 1 147.9258 132.7568)"><tspan x="0" y="0" style="font-family:'ArialMT'; font-size:7.604;">B</tspan><tspan x="4.76" y="0" style="font-family:'ArialMT'; font-size:7.604;">o</tspan><tspan x="8.563" y="0" style="font-family:'ArialMT'; font-size:7.604;">tt</tspan><tspan x="12.378" y="0" style="font-family:'ArialMT'; font-size:7.604;">o</tspan><tspan x="16.181" y="0" style="font-family:'ArialMT'; font-size:7.604;">m</tspan><tspan x="21.884" y="0" style="font-family:'ArialMT'; font-size:7.604;"> </tspan><tspan x="23.791" y="0" style="font-family:'ArialMT'; font-size:7.604;">o</tspan><tspan x="27.595" y="0" style="font-family:'ArialMT'; font-size:7.604;">f </tspan><tspan x="31.409" y="0" style="font-family:'ArialMT'; font-size:7.604;">A</tspan><tspan x="36.169" y="0" style="font-family:'ArialMT'; font-size:7.604;">q</tspan><tspan x="40.915" y="0" style="font-family:'ArialMT'; font-size:7.604;">ua</tspan><tspan x="48.521" y="0" style="font-family:'ArialMT'; font-size:7.604;">r</tspan><tspan x="51.365" y="0" style="font-family:'ArialMT'; font-size:7.604;">i</tspan><tspan x="53.26" y="0" style="font-family:'ArialMT'; font-size:7.604;">u</tspan><tspan x="57.063" y="0" style="font-family:'ArialMT'; font-size:7.604;">m</tspan></text>
		</g>
	</g>
	
		<path style="fill-rule:evenodd;clip-rule:evenodd;fill:#4D4D4D;stroke:#000000;stroke-width:0;stroke-linecap:square;stroke-miterlimit:10;" d="
		M142.226,7.721c0-0.792,0.634-1.426,1.427-1.426c0.792,0,1.426,0.633,1.426,1.426c0,0.792-0.634,1.426-1.426,1.426
		C142.859,9.147,142.226,8.513,142.226,7.721L142.226,7.721z"/>
	<g>
		<defs>
			<polygon id="SVGID_9_" points="148.88,2.493 203.058,2.493 203.058,11.998 148.88,11.998 148.88,2.493 			"/>
		</defs>
		<clipPath id="SVGID_10_">
			<use xlink:href="#SVGID_9_"  style="overflow:visible;"/>
		</clipPath>
		<g style="clip-path:url(#SVGID_10_);">
			<text transform="matrix(1 0 0 1 148.8789 10.144)"><tspan x="0" y="0" style="font-family:'ArialMT'; font-size:7.604;">T</tspan><tspan x="4.751" y="0" style="font-family:'ArialMT'; font-size:7.604;">o</tspan><tspan x="8.555" y="0" style="font-family:'ArialMT'; font-size:7.604; letter-spacing:-1;">p</tspan><tspan x="11.407" y="0" style="font-family:'ArialMT'; font-size:7.604;"> </tspan><tspan x="13.314" y="0" style="font-family:'ArialMT'; font-size:7.604;">o</tspan><tspan x="18.061" y="0" style="font-family:'ArialMT'; font-size:7.604;">f </tspan><tspan x="21.875" y="0" style="font-family:'ArialMT'; font-size:7.604;">A</tspan><tspan x="26.635" y="0" style="font-family:'ArialMT'; font-size:7.604;">q</tspan><tspan x="30.438" y="0" style="font-family:'ArialMT'; font-size:7.604;">u</tspan><tspan x="35.185" y="0" style="font-family:'ArialMT'; font-size:7.604;">a</tspan><tspan x="38.987" y="0" style="font-family:'ArialMT'; font-size:7.604;">r</tspan><tspan x="41.831" y="0" style="font-family:'ArialMT'; font-size:7.604;">i</tspan><tspan x="43.726" y="0" style="font-family:'ArialMT'; font-size:7.604;">u</tspan><tspan x="47.529" y="0" style="font-family:'ArialMT'; font-size:7.604;">m</tspan></text>
		</g>
	</g>
	
		<path style="fill-rule:evenodd;clip-rule:evenodd;fill:#4D4D4D;stroke:#000000;stroke-width:0;stroke-linecap:square;stroke-miterlimit:10;" d="
		M93.751,130.335c0-0.791,0.633-1.426,1.425-1.426c0.792,0,1.426,0.635,1.426,1.426c0,0.792-0.634,1.426-1.426,1.426
		C94.384,131.761,93.751,131.127,93.751,130.335L93.751,130.335z"/>
	<g>
		<defs>
			<polygon id="SVGID_11_" points="99.455,119.403 108.959,119.403 108.959,128.909 99.455,128.909 99.455,119.403 			"/>
		</defs>
		<clipPath id="SVGID_12_">
			<use xlink:href="#SVGID_11_"  style="overflow:visible;"/>
		</clipPath>
		<g style="clip-path:url(#SVGID_12_);">
			<text transform="matrix(1 0 0 1 99.4492 127.0469)"><tspan x="0" y="0" style="font-family:'ArialMT'; font-size:7.604;">6</tspan><tspan x="3.803" y="0" style="font-family:'ArialMT'; font-size:7.604;">8</tspan></text>
		</g>
	</g>
</g>
</svg>
